<?xml version="1.0" encoding="iso-8859-1"?>
<!-- Generator: Adobe Illustrator 19.0.0, SVG Export Plug-In . SVG Version: 6.00 Build 0)  -->
<svg version="1.1" id="Layer_1" xmlns="http://www.w3.org/2000/svg" xmlns:xlink="http://www.w3.org/1999/xlink" x="0px" y="0px"
	 viewBox="0 0 511.999 511.999" style="enable-background:new 0 0 511.999 511.999;" xml:space="preserve">
<path style="fill:#FAE77D;" d="M507.629,82.852c-3.221-1.869-7.271-1.503-10.104,0.916c-17.439,14.891-39.687,23.092-62.643,23.092
	c-6.766,0-13.541-0.709-20.136-2.108c-3.107-0.659-6.321,0.409-8.414,2.792c-2.094,2.383-2.739,5.71-1.687,8.702l20.124,57.248
	c1.267,3.605,4.653,5.868,8.278,5.868c0.919,0,1.854-0.145,2.772-0.452c39.193-13.045,68.324-46.317,76.025-86.83
	C512.54,88.421,510.85,84.722,507.629,82.852z"/>
<path style="fill:#EDD239;" d="M490.77,44.04c-3.401-1.524-7.389-0.734-9.954,1.967c-15.787,16.633-37.055,27.116-59.886,29.516
	c-5.803,0.61-11.68,0.699-17.47,0.261c-2.954-0.219-5.823,1.061-7.625,3.412c-1.803,2.352-2.297,5.454-1.314,8.249l19.676,55.975
	c0.8,2.273,2.497,4.117,4.696,5.101c1.14,0.509,2.361,0.765,3.583,0.765c1.139,0,2.277-0.222,3.35-0.665
	c19.254-7.953,35.981-21.076,48.374-37.948c12.472-16.98,19.985-37,21.725-57.896C496.237,49.065,494.169,45.562,490.77,44.04z"/>
<path style="fill:#63C4F2;" d="M447.247,78.702c-20.599-28.966-50.382-44.277-86.133-44.277
	c-62.906,0-114.083,51.177-114.083,114.083c0,2.367,0.075,4.748,0.224,7.129c-8.928,1.094-17.923,1.647-26.84,1.647
	c-72.23,0-139.838-35.583-180.853-95.185c-3.741-5.433-12.22-4.799-15.114,1.122C6.992,98.94,7.001,138.297,24.47,177.038
	c3.271,7.254,6.856,13.837,10.405,19.641l-19.532-8.79c-6.287-2.829-13.411,2.692-12.251,9.481
	c8.737,51.12,38.215,80.411,61.404,95.981c2.306,1.548,4.593,2.994,6.847,4.342H58.116c-7.16,0-11.334,8.527-6.913,14.18
	c21.767,27.843,49.548,50.518,81.01,66.243c-37.482,23.372-80.106,37.611-124.2,41.383c-3.545,0.303-6.675,2.862-7.673,6.278
	c-1.028,3.518,0.337,7.477,3.322,9.608c38.276,27.324,96.466,42.19,161.526,42.19c16.634,0,33.718-0.972,51.032-2.955
	c57.851-6.628,119.277-34.325,164.316-74.086c28.828-25.45,51.479-55.81,67.323-90.234c18.141-39.415,27.339-84.254,27.339-133.271
	C475.198,138.969,465.271,104.049,447.247,78.702z"/>
<path style="fill:#3CAFE6;" d="M465.335,114.723c1.57,10.187,2.403,20.764,2.403,31.61c0,49.017-9.198,93.856-27.339,133.271
	c-15.844,34.425-38.495,64.785-67.323,90.234c-45.039,39.761-106.465,67.457-164.316,74.086
	c-17.314,1.984-34.398,2.955-51.032,2.955c-53.249,0-101.888-9.964-138.781-28.56c-3.635,0.456-7.277,0.868-10.934,1.18
	c-3.545,0.303-6.675,2.862-7.673,6.278c-1.028,3.518,0.337,7.477,3.322,9.608c38.276,27.324,96.466,42.19,161.526,42.19
	c16.634,0,33.718-0.972,51.032-2.955c57.851-6.628,119.277-34.325,164.316-74.086c28.828-25.45,51.479-55.81,67.323-90.234
	c18.141-39.415,27.339-84.254,27.339-133.271C475.198,154.747,471.772,133.562,465.335,114.723z"/>
<path style="fill:#FFFFFF;" d="M361.115,87.08c-14.517,0-26.327,11.81-26.327,26.327s11.81,26.327,26.327,26.327
	s26.327-11.81,26.327-26.327S375.632,87.08,361.115,87.08z"/>
<g>
</g>
<g>
</g>
<g>
</g>
<g>
</g>
<g>
</g>
<g>
</g>
<g>
</g>
<g>
</g>
<g>
</g>
<g>
</g>
<g>
</g>
<g>
</g>
<g>
</g>
<g>
</g>
<g>
</g>
</svg>
