<svg id="Layer_1" enable-background="new 0 0 511.457 511.457" height="512" viewBox="0 0 511.457 511.457" width="512" xmlns="http://www.w3.org/2000/svg"><g><path d="m476.681 476.854h-441.905c-19.206 0-34.776-15.57-34.776-34.776v-372.7c0-19.206 15.57-34.776 34.776-34.776h441.905c19.206 0 34.776 15.57 34.776 34.776v372.7c0 19.206-15.57 34.776-34.776 34.776z" fill="#fff4f4"/><path d="m476.681 34.603h-220.953v442.251h220.953c19.206 0 34.776-15.57 34.776-34.776v-372.699c0-19.207-15.57-34.776-34.776-34.776z" fill="#eee1dc"/><path d="m474.543 34.603h-437.629c-20.387 0-36.914 16.527-36.914 36.914v104.949h511.457v-104.949c0-20.387-16.527-36.914-36.914-36.914z" fill="#00337a"/><circle cx="64.017" cy="98.331" fill="#ff405c" r="16.028"/><circle cx="129.188" cy="98.331" fill="#ffed00" r="16.028"/><circle cx="197.313" cy="98.331" fill="#00ecce" r="16.028"/><path d="m157.885 273.238c-8.316-2.856-17.375 1.567-20.234 9.882l-6.587 19.164-7.531-19.679c-.062-.162-.141-.312-.208-.471-.129-.306-.255-.613-.402-.91-.121-.244-.258-.475-.39-.71-.12-.214-.233-.43-.363-.639-.158-.254-.331-.494-.501-.737-.126-.18-.247-.362-.381-.536-.18-.234-.372-.454-.563-.677-.148-.172-.291-.347-.446-.513-.188-.2-.386-.387-.583-.576-.179-.173-.355-.348-.543-.513-.19-.166-.389-.32-.587-.476-.21-.167-.416-.336-.635-.493-.202-.145-.413-.275-.622-.41-.225-.146-.447-.295-.681-.43-.245-.141-.498-.265-.75-.393-.208-.105-.409-.218-.623-.315-.356-.162-.721-.301-1.087-.436-.112-.041-.217-.094-.33-.133-.012-.004-.023-.006-.035-.01-1.004-.343-2.043-.588-3.104-.726-.011-.001-.021-.001-.032-.003-.504-.065-1.013-.105-1.524-.121-.099-.003-.196.005-.295.004-.42-.005-.841-.004-1.264.025-.119.008-.235.03-.354.041-.397.036-.795.074-1.192.141-.131.022-.259.059-.39.085-.522.101-1.042.23-1.56.387-.356.107-.712.214-1.058.345-.02.008-.04.012-.059.019-.191.073-.369.166-.556.246-.274.117-.55.229-.817.361-.261.129-.508.275-.759.417-.198.112-.399.216-.592.337-.263.164-.512.342-.764.52-.171.121-.345.236-.512.363-.238.182-.461.377-.687.571-.17.146-.342.288-.506.441-.198.186-.383.381-.57.576-.176.182-.354.362-.522.553-.16.183-.307.374-.458.564-.174.218-.35.434-.514.663-.134.187-.254.382-.379.575-.157.241-.317.48-.462.731-.125.217-.234.442-.348.665-.121.236-.249.467-.359.711-.137.302-.252.613-.37.923-.061.162-.136.315-.192.479l-6.587 19.164-7.531-19.679c-3.144-8.213-12.35-12.326-20.562-9.179-8.213 3.143-12.323 12.349-9.18 20.561l23.206 60.633c2.361 6.17 8.281 10.231 14.869 10.231.092 0 .185-.001.276-.002 6.697-.116 12.606-4.41 14.784-10.744l6.587-19.164 7.531 19.679c2.361 6.17 8.281 10.231 14.869 10.231.092 0 .185-.001.276-.002 6.697-.116 12.606-4.41 14.784-10.744l20.842-60.633c2.858-8.316-1.567-17.375-9.883-20.234z" fill="#192b80"/><path d="m304.153 273.238c-8.317-2.856-17.375 1.567-20.234 9.882l-6.587 19.164-7.531-19.679c-.062-.161-.14-.31-.207-.468-.129-.308-.256-.616-.404-.915-.119-.241-.255-.468-.385-.701-.122-.217-.237-.437-.369-.648-.156-.251-.327-.488-.495-.727-.128-.183-.251-.369-.388-.546-.177-.23-.366-.447-.554-.666-.151-.176-.297-.354-.456-.524-.184-.196-.379-.38-.572-.566-.183-.176-.362-.355-.554-.523-.186-.163-.382-.313-.575-.466-.214-.17-.424-.343-.648-.502-.197-.141-.403-.268-.606-.399-.23-.149-.457-.302-.696-.44s-.486-.258-.731-.383c-.214-.109-.422-.224-.641-.324-.348-.158-.705-.294-1.063-.427-.119-.044-.231-.1-.352-.141-.012-.004-.025-.007-.037-.011-1.004-.343-2.042-.588-3.101-.726-.013-.002-.026-.002-.039-.003-.502-.064-1.009-.105-1.518-.12-.099-.003-.196.006-.294.004-.42-.005-.841-.004-1.264.025-.119.008-.235.03-.354.041-.397.036-.794.074-1.192.141-.159.027-.314.071-.472.103-.488.097-.974.217-1.459.362-.363.109-.725.218-1.079.352-.019.007-.039.012-.058.019-.186.071-.359.162-.541.239-.28.119-.562.234-.834.369-.257.127-.5.271-.747.41-.202.114-.407.221-.603.343-.26.162-.507.339-.755.514-.174.123-.351.24-.52.369-.235.181-.457.374-.68.566-.172.147-.346.291-.512.446-.196.184-.38.379-.566.572-.178.184-.357.365-.526.558-.158.181-.304.371-.454.559-.175.22-.353.437-.517.667-.133.186-.252.379-.376.57-.158.242-.319.482-.464.735-.125.216-.233.441-.347.663-.122.236-.249.468-.36.712-.137.302-.252.613-.37.923-.061.162-.136.315-.192.479l-6.587 19.164-7.531-19.679c-3.143-8.213-12.349-12.326-20.562-9.179-8.213 3.143-12.323 12.349-9.18 20.561l23.206 60.633c2.361 6.17 8.281 10.231 14.869 10.231.092 0 .185-.001.276-.002 6.697-.116 12.606-4.41 14.784-10.744l6.587-19.164 7.531 19.679c2.361 6.17 8.281 10.231 14.869 10.231.092 0 .185-.001.276-.002 6.697-.116 12.606-4.41 14.784-10.744l20.842-60.633c2.855-8.316-1.569-17.375-9.885-20.234z" fill="#192b80"/><path d="m450.421 273.238c-8.316-2.856-17.375 1.567-20.234 9.882l-6.587 19.164-7.531-19.679c-.062-.161-.14-.31-.207-.468-.129-.308-.256-.616-.404-.915-.119-.241-.255-.468-.385-.701-.122-.217-.237-.437-.369-.648-.156-.251-.327-.488-.495-.727-.128-.183-.251-.369-.388-.546-.177-.23-.366-.447-.554-.666-.151-.176-.297-.354-.456-.524-.184-.196-.379-.38-.572-.566-.183-.176-.362-.355-.554-.523-.186-.163-.382-.313-.575-.466-.214-.17-.424-.343-.648-.502-.197-.141-.403-.268-.606-.399-.23-.149-.457-.302-.696-.44s-.486-.258-.731-.383c-.214-.109-.422-.224-.641-.324-.348-.158-.705-.294-1.063-.427-.119-.044-.231-.1-.352-.141-.012-.004-.025-.007-.037-.011-1.003-.343-2.041-.588-3.101-.725-.016-.002-.032-.002-.049-.004-.499-.063-1.002-.104-1.509-.12-.098-.003-.195.005-.293.004-.421-.005-.843-.004-1.267.025-.112.008-.221.028-.332.038-.405.036-.81.076-1.215.144-.058.01-.114.027-.171.037-.605.109-1.208.262-1.809.444-.344.105-.689.207-1.025.335-.02.008-.041.012-.061.02-.197.075-.379.17-.571.252-.268.115-.539.224-.8.353-.266.131-.517.28-.772.424-.193.109-.39.212-.579.329-.267.166-.52.347-.774.527-.168.118-.338.231-.501.356-.241.185-.468.382-.696.579-.167.143-.336.282-.497.433-.201.189-.389.387-.579.585-.173.179-.348.356-.513.544-.162.186-.312.38-.465.573-.172.215-.346.428-.507.654-.136.19-.258.388-.385.583-.155.239-.313.474-.456.723-.127.22-.237.448-.353.673-.12.234-.246.463-.356.704-.137.303-.253.615-.371.926-.061.161-.135.313-.192.478l-6.587 19.165-7.532-19.68c-3.143-8.213-12.348-12.326-20.562-9.179-8.213 3.143-12.322 12.349-9.179 20.561l23.206 60.633c2.361 6.17 8.281 10.231 14.869 10.231.092 0 .185-.001.276-.002 6.697-.116 12.606-4.41 14.784-10.744l6.587-19.164 7.531 19.679c2.361 6.17 8.281 10.231 14.869 10.231.092 0 .185-.001.276-.002 6.697-.116 12.606-4.41 14.784-10.744l20.842-60.633c2.86-8.318-1.564-17.377-9.88-20.236z" fill="#00215a"/><path d="m474.543 34.603h-218.815v141.863h255.728v-104.949c.001-20.387-16.526-36.914-36.913-36.914z" fill="#002659"/><path d="m304.153 273.239c-8.317-2.856-17.375 1.567-20.234 9.882l-6.587 19.164-7.531-19.679c-.062-.161-.14-.31-.207-.468-.129-.308-.256-.616-.404-.915-.119-.241-.255-.468-.385-.701-.122-.217-.237-.437-.369-.648-.156-.251-.327-.488-.495-.727-.128-.183-.251-.369-.388-.546-.177-.23-.366-.447-.554-.666-.151-.176-.297-.354-.456-.524-.184-.196-.379-.38-.572-.566-.183-.176-.362-.355-.554-.523-.186-.163-.382-.313-.575-.466-.214-.17-.424-.343-.648-.502-.197-.141-.403-.268-.606-.399-.23-.149-.457-.302-.696-.44s-.486-.258-.731-.383c-.214-.109-.422-.224-.641-.324-.348-.158-.705-.294-1.063-.427-.119-.044-.231-.099-.352-.141-.012-.004-.025-.007-.037-.011-1.004-.343-2.042-.588-3.101-.725-.013-.002-.026-.002-.039-.003-.397-.051-.798-.075-1.2-.095v62.552l.005-.014 7.531 19.679c2.361 6.17 8.281 10.231 14.869 10.231.092 0 .185-.001.276-.002 6.697-.116 12.606-4.41 14.784-10.745l20.842-60.633c2.858-8.317-1.566-17.377-9.882-20.235z" fill="#00215a"/><path d="m0 160.543v31.845h511.457v-31.845z" fill="#0089ff"/><path d="m255.728 160.543v31.845h255.729v-31.845z" fill="#295fcc"/></g></svg>