<svg width="32" height="32" viewBox="0 0 32 32" fill="none" xmlns="http://www.w3.org/2000/svg">
<g clip-path="url(#clip0_903_99)">
<path d="M31.8862 10.8758C31.7583 10.0434 30.8312 9.59515 30.1918 9.17894C29.041 8.41055 27.9221 7.67418 26.7711 6.90577C24.0538 5.08082 21.3046 3.25588 18.5873 1.43094C17.9478 1.01473 17.3085 0.566496 16.6691 0.15028C16.2216 -0.169885 15.6142 -0.169885 15.1346 0.15028C13.3124 1.36691 11.4582 2.61556 9.63602 3.83219L1.57994 9.21096C0.876631 9.65919 -0.0504577 10.1074 -0.0824262 11.0679C-0.114395 12.1245 -0.0824262 13.213 -0.0824262 14.2696V19.3923C-0.0824262 20.3208 -0.274238 21.4093 0.588914 21.9855C2.6349 23.3942 4.71286 24.7389 6.79083 26.1156C9.3483 27.8125 11.9058 29.5414 14.4633 31.2383C15.1666 31.7187 15.8699 32.2308 16.733 31.6545C17.4683 31.1743 18.1717 30.6941 18.907 30.2138C21.7521 28.3249 24.5973 26.4038 27.4426 24.5149L30.6074 22.4019C30.7992 22.2737 31.023 22.1457 31.2149 21.9855C31.6623 21.6653 31.8542 21.2171 31.8542 20.673V11.8683C31.8862 11.5162 31.9182 11.196 31.8862 10.8758C31.8862 10.9399 31.8862 10.8438 31.8862 10.8758ZM17.2765 3.8642L28.0499 11.0679L23.2547 14.3016L17.2765 10.2995V3.8642ZM14.5272 3.8642V10.2675L8.58107 14.2696L3.7538 11.0679L14.5272 3.8642ZM2.66688 13.6293L6.08752 15.9344L2.66688 18.2395V13.6293ZM14.5272 28.0047L3.7538 20.801L8.5491 17.5673L14.4953 21.5693V28.0047H14.5272ZM15.9019 19.2001L11.0427 15.9344L15.9019 12.6688L20.7612 15.9344L15.9019 19.2001ZM17.2765 28.0047V21.6013L23.2227 17.5993L28.0179 20.833L17.2765 28.0047ZM29.1368 18.2395L25.7162 15.9344L29.1688 13.6293L29.1368 18.2395Z" fill="white"/>
</g>
<defs>
<clipPath id="clip0_903_99">
<rect width="32" height="32" fill="white"/>
</clipPath>
</defs>
</svg>
