<svg width="32" height="32" viewBox="0 0 32 32" fill="none" xmlns="http://www.w3.org/2000/svg">
<g clip-path="url(#clip0_903_112)">
<path d="M16 0.395531C7.161 0.395531 0 7.56253 0 16.3955C0 23.4685 4.584 29.4635 10.937 31.5785C11.74 31.7295 12.03 31.2345 12.03 30.8065C12.03 30.4265 12.021 29.4215 12.015 28.0875C7.562 29.0515 6.624 25.9365 6.624 25.9365C5.895 24.0925 4.843 23.5975 4.843 23.5975C3.395 22.6085 4.958 22.6295 4.958 22.6295C6.562 22.7385 7.406 24.2745 7.406 24.2745C8.833 26.7225 11.15 26.0145 12.067 25.6025C12.207 24.5715 12.624 23.8625 13.078 23.4675C9.526 23.0665 5.791 21.6915 5.791 15.5605C5.791 13.8095 6.411 12.3835 7.436 11.2635C7.259 10.8625 6.717 9.23253 7.577 7.02853C7.577 7.02853 8.916 6.60153 11.977 8.66953C13.258 8.31453 14.618 8.13753 15.977 8.12853C17.337 8.13753 18.696 8.31553 19.977 8.66953C23.02 6.60153 24.358 7.02853 24.358 7.02853C25.217 9.23253 24.675 10.8615 24.519 11.2635C25.534 12.3835 26.154 13.8105 26.154 15.5605C26.154 21.7055 22.414 23.0605 18.858 23.4515C19.414 23.9305 19.935 24.9155 19.935 26.4105C19.935 28.5505 19.915 30.2745 19.915 30.7955C19.915 31.2115 20.195 31.7115 21.019 31.5505C27.419 29.4575 31.998 23.4575 31.998 16.3945C31.998 7.56153 24.837 0.394531 15.998 0.394531L16 0.395531Z" fill="white"/>
</g>
<defs>
<clipPath id="clip0_903_112">
<rect width="32" height="32" fill="white"/>
</clipPath>
</defs>
</svg>
