<svg width="32" height="24" viewBox="0 0 32 24" fill="none" xmlns="http://www.w3.org/2000/svg">
<path d="M31.5556 4.00078C31.5556 4.00078 30.2222 4.00078 30.2222 5.20078V18.8008C30.2222 18.8008 30.2222 20.0008 31.5556 20.0008H32V23.2008H21.3333V20.0008H23.1111V5.12078H22.9333L17.4844 23.2008H12.688L7.28889 5.12078H7.11111V20.0008H8.88889V23.2008H0V20.0008H0.444444C0.444444 20.0008 1.77778 20.0008 1.77778 18.8008V5.20078C1.77778 5.20078 1.77778 4.00078 0.444444 4.00078H0V0.800781H11.7938L15.9307 14.6568H16.0676L20.2418 0.800781H32V4.00078H31.5556Z" fill="white"/>
</svg>
