<svg width="32" height="32" viewBox="0 0 32 32" fill="none" xmlns="http://www.w3.org/2000/svg">
<g clip-path="url(#clip0_903_116)">
<path d="M31.2749 5.92398C30.7721 6.14695 30.2553 6.33513 29.7272 6.4879C30.3524 5.7808 30.8291 4.9488 31.1201 4.03835C31.1854 3.83427 31.1177 3.61089 30.95 3.47742C30.7825 3.34385 30.5497 3.32785 30.3652 3.43716C29.2437 4.10235 28.0337 4.58039 26.7649 4.85993C25.4869 3.6111 23.751 2.90039 21.9566 2.90039C18.1687 2.90039 15.087 5.98199 15.087 9.76976C15.087 10.0681 15.1059 10.3648 15.1432 10.6573C10.4429 10.2446 6.073 7.9343 3.07223 4.25337C2.96529 4.12217 2.80054 4.05146 2.63187 4.06498C2.46309 4.0782 2.31145 4.17337 2.22619 4.31964C1.61757 5.36398 1.29582 6.5584 1.29582 7.77368C1.29582 9.42891 1.88678 10.9994 2.93071 12.2265C2.61329 12.1166 2.30526 11.9792 2.01127 11.816C1.85344 11.7282 1.66082 11.7295 1.50402 11.8194C1.34712 11.9093 1.24874 12.0747 1.24462 12.2554C1.24389 12.2859 1.24389 12.3163 1.24389 12.3472C1.24389 14.8179 2.57365 17.0423 4.60668 18.2547C4.43202 18.2373 4.25747 18.212 4.08405 18.1788C3.90526 18.1447 3.72142 18.2073 3.60085 18.3437C3.48007 18.48 3.44013 18.6699 3.49576 18.8433C4.24828 21.1927 6.18572 22.9208 8.52792 23.4477C6.58531 24.6644 4.36379 25.3017 2.03171 25.3017C1.54511 25.3017 1.05571 25.2731 0.576744 25.2165C0.338809 25.1882 0.111299 25.3287 0.0302671 25.5549C-0.0507652 25.7813 0.0351187 26.0337 0.237544 26.1635C3.23347 28.0844 6.69762 29.0997 10.2553 29.0997C17.2493 29.0997 21.6245 25.8017 24.0632 23.0349C27.1042 19.585 28.8483 15.0186 28.8483 10.5067C28.8483 10.3182 28.8454 10.1278 28.8397 9.93812C30.0395 9.03417 31.0724 7.94018 31.913 6.68279C32.0407 6.49182 32.0269 6.23944 31.8789 6.06364C31.7312 5.88775 31.485 5.83087 31.2749 5.92398Z" fill="white"/>
</g>
<defs>
<clipPath id="clip0_903_116">
<rect width="32" height="32" fill="white"/>
</clipPath>
</defs>
</svg>
