<?xml version="1.0" standalone="no"?>
<!DOCTYPE svg PUBLIC "-//W3C//DTD SVG 20010904//EN"
 "http://www.w3.org/TR/2001/REC-SVG-20010904/DTD/svg10.dtd">
<svg version="1.0" xmlns="http://www.w3.org/2000/svg"
 width="1760.000000pt" height="1760.000000pt" viewBox="0 0 1760.000000 1760.000000"
 preserveAspectRatio="xMidYMid meet">
<metadata>
Created by potrace 1.14, written by Peter Selinger 2001-2017
</metadata>
<g transform="translate(0.000000,1760.000000) scale(0.100000,-0.100000)"
fill="#000000" stroke="none">
<path d="M6199 17566 c-2 -2 -49 -7 -104 -10 -55 -4 -113 -8 -130 -11 -16 -2
-59 -7 -95 -10 -36 -4 -74 -9 -85 -12 -32 -7 -58 -12 -88 -17 -15 -3 -54 -12
-85 -22 -31 -9 -61 -17 -67 -19 -5 -1 -19 -5 -30 -9 -11 -5 -33 -13 -50 -19
-47 -17 -106 -60 -156 -114 -25 -26 -45 -50 -45 -53 0 -3 -14 -21 -32 -40 -53
-59 -62 -70 -55 -70 3 0 -1 -8 -9 -17 -20 -23 -73 -129 -83 -168 -5 -16 -10
-37 -12 -45 -3 -8 -6 -44 -7 -80 -4 -115 36 -203 136 -301 33 -32 75 -65 94
-74 18 -8 35 -19 38 -24 17 -27 328 -151 411 -164 11 -1 25 -5 30 -8 9 -6 33
-11 113 -25 12 -2 34 -7 50 -10 15 -3 38 -8 52 -9 14 -2 25 -4 25 -5 0 -2 48
-9 99 -14 21 -2 58 -14 81 -26 36 -19 49 -34 78 -94 77 -158 95 -239 91 -404
-2 -128 -5 -142 -74 -432 -18 -74 -34 -144 -36 -155 -1 -11 -3 -20 -4 -20 -2
0 -6 -16 -14 -55 -8 -33 -13 -57 -26 -105 -5 -22 -13 -56 -16 -75 -3 -19 -9
-42 -14 -50 -4 -8 -6 -23 -5 -32 2 -10 0 -18 -4 -18 -4 0 -8 -6 -9 -12 -3 -29
-11 -75 -17 -98 -4 -14 -8 -32 -9 -40 -1 -8 -6 -25 -10 -37 -4 -12 -9 -30 -11
-40 -3 -15 -11 -51 -31 -138 -3 -11 -7 -29 -9 -40 -8 -34 -14 -58 -31 -125 -9
-36 -17 -75 -19 -87 -2 -11 -6 -30 -9 -41 -7 -21 -12 -41 -26 -107 -14 -61
-18 -77 -29 -114 -6 -19 -9 -37 -6 -39 3 -3 0 -11 -6 -19 -6 -7 -9 -13 -6 -13
3 0 1 -16 -5 -36 -5 -20 -12 -46 -14 -58 -3 -11 -8 -32 -11 -46 -3 -14 -6 -32
-7 -40 -1 -9 -5 -20 -8 -25 -5 -9 -17 -63 -24 -105 -3 -21 -12 -58 -18 -78 -8
-26 -18 -75 -19 -94 -1 -10 -6 -18 -11 -18 -5 0 -7 -2 -4 -5 5 -6 -1 -39 -41
-215 -12 -52 -24 -106 -27 -120 -2 -14 -20 -97 -40 -185 -19 -88 -37 -172 -39
-187 -2 -15 -6 -32 -9 -37 -3 -5 -8 -24 -10 -42 -3 -19 -10 -58 -16 -87 -7
-30 -13 -61 -15 -70 -2 -9 -4 -17 -6 -17 -2 0 -6 -25 -10 -67 -2 -16 -6 -28
-9 -28 -3 0 -6 -8 -7 -17 -1 -25 -11 -98 -14 -98 -1 0 -3 -9 -5 -20 -6 -36
-13 -68 -30 -155 -9 -43 -15 -85 -16 -97 -1 -7 -4 -13 -7 -13 -3 0 -7 -17 -8
-38 0 -20 -4 -48 -7 -62 -3 -14 -13 -63 -22 -110 -21 -112 -21 -108 -29 -160
-4 -25 -9 -54 -12 -65 -2 -11 -6 -36 -9 -55 -2 -19 -6 -42 -9 -50 -5 -16 -10
-47 -20 -120 -4 -24 -8 -47 -10 -50 -1 -3 -6 -32 -10 -65 -3 -32 -8 -62 -11
-66 -2 -3 -6 -27 -8 -53 -3 -25 -10 -72 -15 -104 -6 -31 -13 -75 -16 -97 -3
-22 -7 -51 -10 -65 -3 -14 -7 -47 -10 -75 -3 -27 -8 -57 -10 -65 -2 -8 -7 -40
-10 -70 -3 -30 -8 -68 -11 -85 -2 -16 -6 -46 -8 -65 -2 -19 -7 -57 -10 -85 -4
-27 -8 -64 -10 -82 -3 -18 -7 -37 -11 -43 -3 -5 0 -10 7 -10 10 0 10 -2 -1 -9
-7 -5 -11 -15 -9 -22 3 -8 1 -24 -3 -37 -7 -17 -6 -21 3 -16 7 5 8 3 3 -6 -4
-7 -10 -25 -12 -39 -6 -44 -11 -93 -18 -161 -12 -110 -14 -133 -20 -210 -3
-41 -8 -86 -11 -100 -2 -14 -7 -56 -10 -95 -2 -38 -7 -92 -9 -120 -3 -27 -7
-85 -10 -128 -3 -43 -7 -104 -10 -135 -4 -50 -9 -123 -20 -322 -2 -30 -4 -55
-5 -55 0 0 -3 -49 -5 -110 -2 -60 -6 -153 -9 -205 -10 -167 -16 -263 -21 -350
-3 -47 -7 -116 -10 -155 -13 -175 -15 -204 -21 -265 -3 -36 -7 -76 -9 -90 -2
-14 -7 -58 -10 -99 -4 -41 -9 -84 -11 -95 -2 -12 -6 -43 -9 -71 -3 -27 -10
-65 -15 -82 -6 -24 -5 -33 3 -33 7 0 6 -4 -3 -10 -8 -5 -12 -10 -8 -10 3 0 2
-15 -2 -32 -5 -18 -12 -53 -16 -78 -9 -68 -12 -85 -14 -85 -1 0 -3 -10 -6 -23
-2 -13 -16 -69 -30 -125 -24 -97 -28 -113 -38 -155 -3 -9 -16 -51 -31 -92 -14
-41 -26 -77 -27 -80 -3 -19 -67 -179 -91 -230 -11 -25 -21 -47 -22 -50 -1 -10
-107 -213 -130 -250 -14 -22 -25 -44 -25 -49 0 -5 -3 -11 -7 -13 -5 -1 -26
-32 -48 -68 -34 -56 -160 -236 -175 -250 -3 -3 -25 -32 -49 -65 -25 -33 -47
-62 -50 -65 -7 -6 -11 -13 -82 -130 -28 -47 -52 -89 -53 -95 -1 -5 -7 -19 -13
-30 -8 -16 -32 -81 -38 -105 -1 -3 -5 -12 -8 -20 -4 -8 -9 -26 -11 -40 -3 -14
-5 -26 -7 -27 -1 -2 -3 -12 -4 -23 -1 -11 -4 -21 -5 -22 -1 -2 -3 -14 -5 -28
-19 -148 -20 -458 -2 -487 5 -8 3 -13 -3 -13 -6 0 -8 -5 -5 -10 4 -6 8 -39 10
-73 8 -123 14 -177 20 -187 3 -6 1 -10 -5 -10 -6 0 -8 -5 -3 -12 4 -7 8 -35 9
-63 1 -27 3 -50 4 -50 1 0 3 -29 6 -65 2 -36 6 -87 8 -115 3 -27 7 -81 10
-120 9 -129 19 -260 22 -295 2 -19 5 -69 8 -110 3 -41 8 -102 10 -135 3 -33 8
-98 11 -145 4 -47 8 -110 11 -140 2 -30 6 -86 9 -125 5 -78 13 -189 20 -280 3
-33 8 -98 11 -145 3 -47 7 -110 10 -140 2 -30 6 -93 9 -140 3 -47 7 -103 10
-125 2 -22 7 -83 10 -135 3 -52 8 -122 10 -155 3 -33 7 -96 10 -140 2 -44 7
-120 11 -170 4 -49 7 -120 8 -157 1 -38 3 -68 6 -68 3 0 6 -24 6 -53 1 -28 4
-68 7 -87 3 -19 9 -57 13 -85 9 -55 11 -64 14 -67 1 -2 3 -11 6 -20 9 -39 10
-42 46 -136 40 -103 119 -206 218 -284 47 -37 170 -102 170 -90 0 4 4 2 8 -3
6 -9 38 -19 132 -41 127 -30 340 -33 535 -9 98 12 160 22 160 25 0 1 11 3 25
4 14 2 34 6 45 9 11 3 40 9 65 12 25 4 47 11 48 16 2 5 7 7 11 4 14 -8 337 81
535 147 49 17 94 31 100 33 6 1 19 5 28 9 9 4 22 9 30 10 7 2 21 6 30 10 9 4
25 9 35 11 10 2 19 4 21 5 1 2 5 3 10 5 4 1 21 7 37 14 17 7 37 14 45 16 8 2
27 8 43 14 15 6 27 8 27 6 0 -3 12 3 27 12 15 10 27 17 28 15 0 -3 20 3 55 15
8 4 20 7 26 8 6 2 71 23 145 48 140 47 230 74 289 88 19 4 85 20 145 34 61 15
117 28 125 29 8 1 25 6 37 10 12 4 30 9 40 11 10 2 54 14 98 25 44 12 87 23
95 25 8 2 15 4 15 5 0 1 8 3 18 5 10 2 41 10 70 19 171 51 297 89 335 101 23
7 44 13 45 13 1 1 15 5 30 11 16 6 32 9 37 6 5 -3 10 -2 12 3 1 4 62 27 133
51 72 24 141 48 155 54 14 6 27 11 30 12 23 5 89 30 105 38 11 6 26 12 33 13
8 1 21 6 30 10 9 4 19 8 22 9 3 1 18 7 33 13 16 7 34 12 41 12 6 0 16 4 22 9
5 4 56 27 114 51 149 60 172 70 344 150 59 27 114 50 121 50 7 0 15 3 17 8 2
4 95 53 208 110 205 103 281 142 290 152 3 3 28 17 55 30 28 14 52 28 53 33 2
4 7 7 12 7 12 0 344 202 348 212 2 4 10 8 17 8 8 0 19 8 24 18 6 9 11 13 11 9
0 -9 93 52 98 65 2 4 10 8 18 8 15 0 72 55 149 145 68 78 71 82 145 165 140
157 334 362 520 550 207 209 228 232 305 336 36 49 70 94 75 101 6 7 10 16 10
22 0 5 4 11 8 13 11 4 63 91 102 171 18 37 37 70 42 73 4 3 6 10 3 15 -4 5 -2
9 3 9 5 0 13 10 17 23 10 30 12 36 15 42 1 3 3 8 5 13 1 4 10 25 20 47 10 22
20 45 21 50 1 6 14 42 29 80 26 69 64 182 70 214 2 9 8 28 14 44 6 15 8 27 5
27 -2 0 0 8 5 18 5 9 11 31 15 47 3 17 12 57 20 90 8 33 17 76 21 95 10 55 14
73 20 100 3 14 8 43 11 65 3 22 8 51 10 65 3 14 7 39 9 55 2 17 7 41 10 55 3
14 8 41 10 60 2 19 6 53 9 75 9 63 18 158 18 183 0 12 5 22 11 22 6 0 8 3 5 6
-4 3 2 23 11 45 25 54 103 136 232 242 48 39 231 168 249 175 8 3 17 8 20 12
3 3 50 37 105 75 55 39 113 81 129 95 76 64 122 107 139 128 10 12 24 28 31
35 23 23 96 126 96 135 0 5 9 17 20 27 11 10 20 22 20 28 0 5 9 21 19 35 10
15 20 30 21 34 1 4 4 17 7 28 3 11 9 20 14 20 5 0 9 4 9 9 0 5 8 26 17 47 9
22 18 42 19 47 1 4 2 8 4 10 1 1 3 9 5 17 2 8 14 49 25 90 12 41 24 102 28
135 8 73 7 226 -2 280 -4 22 -8 49 -10 60 -16 88 -80 273 -100 287 -6 4 -7 8
-3 8 10 0 -74 157 -125 232 -21 31 -38 61 -38 67 0 5 -3 11 -8 13 -4 2 -25 28
-46 58 -22 30 -44 60 -51 65 -6 6 -22 26 -35 45 -14 19 -32 42 -40 50 -8 9
-40 45 -70 80 -30 35 -66 76 -80 91 -14 15 -59 65 -100 110 -90 99 -186 203
-256 276 -28 29 -50 53 -49 53 1 0 -54 57 -122 127 -68 70 -123 131 -123 135
0 4 -7 8 -15 8 -8 0 -15 4 -15 8 0 9 -132 145 -576 595 -140 142 -254 263
-254 268 0 6 -4 8 -8 5 -5 -3 -15 6 -22 19 -7 14 -19 25 -26 25 -7 0 -14 4
-16 9 -2 6 -82 92 -178 192 -272 282 -279 289 -390 410 -58 62 -116 125 -130
140 -79 85 -94 106 -111 155 -16 45 -18 75 -15 186 2 73 7 144 10 158 3 14 9
41 12 60 3 19 10 46 15 60 5 14 10 34 12 45 1 11 5 25 9 30 3 6 9 26 13 45 4
19 11 41 16 50 19 35 53 116 51 123 -1 4 2 7 7 7 5 0 12 13 16 30 4 16 14 34
23 40 9 5 14 10 10 10 -7 0 60 121 72 130 4 3 13 15 19 28 7 13 19 31 26 40 8
9 51 67 96 127 46 61 85 112 88 115 3 3 24 28 46 55 22 28 50 61 62 75 12 14
31 36 43 50 89 105 160 180 330 350 107 107 230 227 273 265 127 114 138 124
222 206 98 95 225 237 225 251 0 4 6 13 13 20 23 23 85 140 111 211 62 163 80
317 81 667 0 198 -4 266 -19 345 -2 11 -6 36 -10 55 -12 68 -14 78 -37 151
-12 41 -24 85 -26 99 -3 13 -8 29 -12 35 -5 5 -16 34 -25 62 -10 29 -21 55
-26 58 -5 3 -7 12 -3 20 3 8 0 15 -6 15 -6 0 -11 6 -11 12 0 15 -98 216 -115
238 -7 8 -23 35 -37 60 -37 70 -170 270 -180 270 -4 0 -8 5 -8 11 0 12 -125
172 -219 279 -112 128 -236 254 -391 398 -90 83 -97 90 -165 146 -33 27 -66
56 -72 65 -7 8 -13 12 -13 8 0 -3 -11 4 -23 16 -13 12 -39 33 -57 47 -19 14
-39 31 -46 38 -7 6 -17 12 -22 12 -6 0 -12 3 -14 8 -2 4 -30 27 -63 51 -33 25
-63 49 -67 55 -5 7 -8 7 -8 1 0 -5 -5 -2 -11 8 -5 9 -15 17 -20 17 -8 0 -60
35 -114 78 -18 14 -269 168 -322 198 -29 16 -53 33 -53 37 0 5 -4 6 -9 2 -5
-3 -17 2 -25 11 -9 8 -16 12 -16 8 0 -3 -6 -2 -12 4 -22 17 -320 164 -338 166
-3 1 -26 9 -50 20 -65 27 -120 48 -130 50 -3 1 -10 4 -16 8 -6 4 -21 9 -35 12
-13 3 -61 19 -106 35 -46 17 -83 28 -83 25 0 -4 -6 -2 -12 3 -11 9 -49 21 -75
24 -5 1 -19 6 -33 11 -39 15 -371 99 -409 103 -18 3 -48 9 -66 15 -18 6 -48
13 -66 15 -19 3 -59 9 -89 14 -30 5 -58 7 -62 5 -3 -2 -8 0 -10 5 -1 5 -28 12
-58 15 -30 3 -66 8 -80 11 -24 4 -69 10 -145 20 -16 2 -30 4 -30 5 0 1 -13 3
-30 4 -16 2 -57 6 -90 11 -33 4 -78 9 -100 11 -151 12 -183 15 -205 19 -14 3
-68 7 -120 11 -119 8 -114 7 -122 19 -5 6 -8 5 -8 -3 0 -7 -4 -11 -8 -8 -5 3
-44 7 -88 11 -43 3 -106 7 -139 10 -130 10 -262 18 -305 18 -25 1 -48 6 -52
12 -5 6 -8 6 -8 0 0 -6 -16 -9 -37 -7 -53 5 -870 12 -874 8z m3886 -3670 c24
-5 111 -25 135 -31 7 -2 42 -16 55 -21 59 -27 132 -105 146 -159 17 -62 20
-76 23 -131 2 -29 5 -56 8 -60 9 -18 -3 -206 -17 -274 -3 -14 -7 -34 -9 -45
-7 -36 -49 -149 -64 -175 -50 -82 -90 -138 -128 -181 -24 -27 -44 -48 -44 -46
0 3 -15 -10 -34 -28 -73 -68 -331 -214 -381 -215 -3 0 -19 -7 -35 -15 -17 -9
-30 -13 -30 -10 0 3 -8 1 -18 -4 -32 -17 -229 -66 -312 -77 -25 -3 -47 -8 -50
-9 -7 -4 -72 -14 -130 -19 -87 -8 -152 47 -154 128 -1 25 -4 46 -7 46 -8 0
-12 109 -10 220 4 131 13 201 41 325 13 60 69 226 80 240 5 6 10 19 12 30 1
11 6 22 9 25 3 3 28 43 55 89 72 123 221 269 317 312 15 7 27 16 27 21 0 4 9
8 19 8 11 0 22 4 25 9 5 7 30 15 74 22 4 0 15 5 25 11 10 5 39 12 65 15 26 3
49 8 52 10 6 6 214 -3 255 -11z m-637 -4841 c17 -4 32 -11 32 -16 0 -5 3 -8 8
-7 12 2 59 -20 82 -39 12 -10 34 -28 48 -40 15 -13 31 -23 35 -23 5 0 6 -4 2
-9 -3 -5 3 -12 12 -16 10 -3 29 -21 43 -40 14 -18 51 -68 83 -109 31 -42 57
-78 57 -81 0 -3 9 -15 20 -27 11 -12 26 -34 32 -50 7 -15 16 -28 20 -28 5 0 8
-6 8 -14 0 -8 3 -16 8 -18 4 -1 41 -55 83 -119 73 -110 164 -231 180 -237 4
-2 20 -15 36 -30 81 -74 211 -145 333 -182 41 -13 82 -25 90 -28 15 -5 26 -8
73 -16 12 -3 22 -5 22 -6 0 -1 25 -6 75 -14 14 -2 32 -6 40 -9 8 -3 31 -8 50
-11 19 -2 45 -7 58 -10 12 -3 32 -8 45 -11 12 -2 36 -8 52 -12 17 -4 36 -6 43
-4 6 1 12 -3 12 -9 0 -5 3 -9 8 -8 20 6 266 -59 412 -109 41 -14 80 -26 85
-28 6 -1 18 -5 28 -8 9 -4 25 -10 35 -14 9 -3 22 -7 27 -9 28 -7 161 -58 170
-64 6 -4 23 -10 40 -14 42 -11 183 -156 232 -241 49 -84 90 -197 102 -285 9
-65 7 -282 -3 -330 -3 -14 -9 -41 -12 -60 -31 -172 -153 -517 -202 -568 -6 -8
-17 -23 -23 -34 -12 -22 -20 -32 -104 -132 -62 -74 -183 -195 -274 -274 -29
-26 -64 -56 -77 -68 -13 -11 -35 -29 -50 -40 -14 -10 -38 -29 -52 -42 -26 -23
-128 -97 -161 -117 -9 -5 -20 -16 -24 -22 -4 -7 -12 -13 -17 -13 -8 0 -64 -35
-161 -101 -36 -24 -254 -140 -274 -146 -42 -11 -141 -50 -146 -57 -4 -5 -11
-6 -17 -2 -6 3 -23 1 -39 -5 -15 -6 -29 -11 -30 -11 -2 0 -35 -9 -75 -19 -40
-11 -82 -22 -93 -24 -11 -3 -56 -14 -100 -24 -44 -11 -91 -22 -105 -25 -14 -3
-43 -10 -65 -15 -22 -6 -60 -13 -85 -17 -25 -3 -48 -8 -53 -11 -4 -2 -19 -6
-32 -9 -14 -2 -37 -7 -52 -10 -16 -3 -39 -7 -53 -9 -14 -2 -25 -4 -25 -5 0 -1
-13 -3 -30 -5 -16 -2 -50 -9 -75 -14 -25 -5 -52 -10 -60 -10 -8 0 -35 -5 -60
-10 -25 -5 -66 -12 -90 -16 -25 -3 -61 -8 -80 -11 -19 -2 -46 -6 -60 -8 -14
-2 -50 -7 -80 -11 -51 -8 -103 -10 -115 -5 -6 3 -22 7 -32 9 -5 0 -21 13 -38
27 -80 69 -140 120 -149 129 -6 6 -31 26 -56 46 -82 67 -239 209 -286 259 -93
100 -124 136 -124 148 0 6 -4 12 -8 12 -10 0 -95 141 -95 158 0 6 -4 12 -8 12
-7 0 -10 10 -31 105 -19 87 -11 177 20 226 22 35 67 70 119 94 24 11 43 23 43
28 0 4 5 7 11 7 6 0 34 17 63 37 71 52 72 53 116 98 36 37 48 51 93 104 9 12
29 45 45 74 15 28 31 55 37 59 5 4 6 10 2 14 -4 4 -3 12 2 18 10 13 41 101 46
131 2 11 6 31 10 45 12 45 14 303 2 354 -14 60 -66 119 -119 134 -20 5 -71 7
-115 4 -104 -9 -347 -8 -403 0 -77 12 -144 26 -175 38 -16 6 -30 11 -30 10 0
-2 -80 31 -115 48 -19 9 -51 29 -71 45 -20 15 -42 27 -48 27 -6 0 -11 4 -11 9
0 5 -18 26 -39 47 -72 70 -141 210 -146 294 0 14 -4 30 -6 35 -11 19 0 187 16
255 3 14 8 36 11 50 9 48 67 196 108 275 29 57 61 100 112 150 118 117 270
242 352 290 17 11 32 23 32 27 0 4 4 8 9 8 12 0 115 63 119 73 2 4 12 7 23 7
10 0 19 4 19 8 0 8 60 36 73 33 4 0 7 3 7 9 0 6 5 10 12 10 6 0 30 9 52 19 51
24 118 53 131 57 6 1 37 12 70 24 33 11 70 23 82 25 12 3 34 10 48 15 14 5 29
9 33 9 4 -1 10 0 15 1 22 7 71 20 97 24 14 3 36 7 49 10 13 3 49 8 80 12 31 3
57 7 59 9 5 4 86 -3 120 -10z"/>
</g>
</svg>
