<?xml version="1.0" encoding="UTF-8" standalone="no"?>
<svg xmlns="http://www.w3.org/2000/svg" version="1.2" baseProfile="tiny" viewBox="0.00 0.00 414.00 111.00">
<g stroke-width="2.00" fill="none" stroke-linecap="butt">
<path stroke="#b54f2c" vector-effect="non-scaling-stroke" d="
  M 44.67 38.28
  Q 43.44 37.58 42.56 39.40
  Q 42.14 40.27 41.50 41.33
  Q 40.14 43.58 41.22 46.34
  Q 41.41 46.85 41.87 47.15
  Q 43.41 48.16 43.72 50.00
  A 1.86 1.85 19.2 0 0 44.17 50.93
  Q 46.36 53.37 48.80 55.60
  Q 50.67 57.31 50.99 59.03
  Q 51.42 61.30 50.76 63.66"
/>
<path stroke="#b54f2c" vector-effect="non-scaling-stroke" d="
  M 25.35 58.96
  Q 22.04 60.20 23.39 64.57
  Q 23.54 65.06 23.93 65.39
  Q 28.46 69.15 24.72 73.53
  Q 24.40 73.90 24.31 74.39
  Q 23.70 77.62 21.42 80.04
  Q 21.08 80.40 21.08 80.89
  C 21.09 83.79 25.75 82.89 27.75 82.61
  Q 29.83 82.32 30.60 84.32
  Q 30.77 84.75 31.21 84.88
  Q 35.06 85.97 37.86 84.58
  Q 43.52 81.78 49.17 79.10
  A 1.54 1.54 0.0 0 1 51.37 80.38
  Q 51.67 84.56 49.89 88.10
  Q 49.25 89.37 47.34 90.61
  Q 43.19 93.31 43.17 97.54"
/>
<path stroke="#9a3f21" vector-effect="non-scaling-stroke" d="
  M 388.22 8.95
  L 388.96 16.72"
/>
<path stroke="#97401b" vector-effect="non-scaling-stroke" d="
  M 164.19 32.11
  Q 165.81 29.01 171.96 32.63"
/>
</g>
<path fill="#b23210" d="
  M 44.67 38.28
  Q 43.44 37.58 42.56 39.40
  Q 42.14 40.27 41.50 41.33
  Q 40.14 43.58 41.22 46.34
  Q 41.41 46.85 41.87 47.15
  Q 43.41 48.16 43.72 50.00
  A 1.86 1.85 19.2 0 0 44.17 50.93
  Q 46.36 53.37 48.80 55.60
  Q 50.67 57.31 50.99 59.03
  Q 51.42 61.30 50.76 63.66
  Q 47.34 62.26 43.41 61.54
  Q 41.04 61.11 39.78 59.88
  C 38.20 58.36 36.67 54.06 34.27 54.35
  Q 29.11 54.99 25.35 58.96
  Q 22.04 60.20 23.39 64.57
  Q 23.54 65.06 23.93 65.39
  Q 28.46 69.15 24.72 73.53
  Q 24.40 73.90 24.31 74.39
  Q 23.70 77.62 21.42 80.04
  Q 21.08 80.40 21.08 80.89
  C 21.09 83.79 25.75 82.89 27.75 82.61
  Q 29.83 82.32 30.60 84.32
  Q 30.77 84.75 31.21 84.88
  Q 35.06 85.97 37.86 84.58
  Q 43.52 81.78 49.17 79.10
  A 1.54 1.54 0.0 0 1 51.37 80.38
  Q 51.67 84.56 49.89 88.10
  Q 49.25 89.37 47.34 90.61
  Q 43.19 93.31 43.17 97.54
  Q 34.07 103.79 21.55 106.64
  C 16.63 107.76 3.23 114.83 2.54 104.99
  Q 1.63 91.76 1.04 84.50
  C 0.80 81.44 0.76 79.59 2.80 77.03
  C 7.42 71.21 7.55 65.86 7.99 57.26
  C 8.80 41.45 12.28 28.68 15.63 14.28
  Q 16.15 12.05 15.12 10.20
  Q 14.86 9.74 14.33 9.67
  C 10.91 9.26 4.62 7.50 9.32 2.57
  C 11.45 0.34 22.92 1.39 26.05 1.68
  Q 34.31 2.43 39.56 5.08
  C 45.64 8.15 54.37 15.55 54.37 23.25
  C 54.37 27.73 53.99 28.86 50.49 31.96
  Q 47.13 34.95 44.67 38.28
  Z
  M 39.75 24.31
  C 34.37 22.83 31.84 28.26 32.53 32.84
  A 0.84 0.83 -7.8 0 0 33.46 33.54
  C 37.90 32.99 42.09 31.16 41.22 25.81
  Q 41.04 24.67 39.75 24.31
  Z"
/>
<path fill="#8b2f16" d="
  M 388.22 8.95
  L 388.96 16.72
  C 388.49 20.55 387.91 23.40 385.32 26.56
  Q 382.56 29.94 379.96 33.44
  C 374.07 41.34 375.82 47.71 378.05 57.24
  C 378.94 61.04 372.70 70.49 370.25 73.24
  C 367.09 76.79 360.12 77.28 357.59 72.66
  C 356.25 70.21 356.05 67.17 356.24 64.06
  C 356.78 55.63 356.53 48.63 359.33 39.82
  C 360.96 34.67 361.51 29.47 362.55 24.20
  C 363.13 21.24 362.73 18.95 362.08 16.16
  A 0.70 0.70 0.0 0 0 361.45 15.61
  Q 354.13 15.09 354.93 7.53
  Q 355.11 5.80 357.65 5.24
  Q 362.91 4.09 367.53 6.67
  A 1.49 1.44 -33.9 0 0 368.48 6.84
  C 373.64 6.07 385.25 3.64 388.22 8.95
  Z"
/>
<path fill="#8f3b1a" d="
  M 318.22 29.41
  C 314.86 24.38 305.42 23.28 300.23 24.36
  Q 299.73 24.47 299.50 24.93
  Q 298.64 26.66 298.77 27.77
  Q 299.80 36.31 293.94 41.99
  C 289.51 46.29 291.16 55.49 292.10 61.02
  A 1.62 1.62 0.0 0 0 294.75 61.98
  C 303.18 54.83 315.21 57.61 324.74 60.75
  Q 326.82 61.44 331.95 61.19
  Q 332.52 61.16 332.48 61.73
  C 331.66 72.65 318.76 72.67 310.98 73.68
  Q 307.07 74.18 302.63 75.50
  C 296.94 77.19 286.59 81.74 279.96 78.79
  C 276.10 77.07 274.59 71.91 273.21 68.02
  C 271.68 63.70 271.58 61.46 273.45 56.93
  Q 275.07 53.04 275.86 48.87
  C 276.91 43.28 280.62 40.33 283.12 35.94
  Q 284.27 33.93 285.00 30.24
  Q 285.88 25.79 287.73 21.59
  A 2.11 2.11 0.0 0 0 287.31 19.26
  C 284.70 16.60 279.88 9.78 285.98 7.42
  A 1.43 1.40 43.9 0 1 286.97 7.41
  Q 302.41 13.25 318.22 17.79
  Q 321.14 18.63 323.12 20.30
  C 326.83 23.44 331.49 28.25 329.72 33.04
  C 327.29 39.62 321.43 42.02 314.79 42.42
  Q 308.41 42.80 302.17 38.84
  Q 301.25 38.26 302.23 37.79
  Q 307.36 35.31 313.47 33.22
  Q 316.66 32.13 318.16 30.41
  A 0.83 0.82 49.0 0 0 318.22 29.41
  Z"
/>
<path fill="#a94e2b" d="
  M 164.19 32.11
  Q 165.81 29.01 171.96 32.63
  Q 170.07 36.82 169.06 41.49
  C 167.13 50.46 171.82 54.83 178.55 59.39
  C 182.50 62.07 183.50 63.42 183.07 68.12
  C 182.26 77.04 172.14 73.09 167.90 70.01
  C 166.00 68.63 162.51 65.82 159.91 66.09
  Q 159.03 66.18 157.36 67.50
  C 154.71 69.59 149.91 71.48 148.70 66.54
  C 147.58 62.00 147.80 57.16 146.65 53.01
  C 145.35 48.30 143.26 43.72 143.40 39.07
  C 143.59 33.01 145.76 27.47 147.34 21.43
  A 1.93 1.92 -79.9 0 0 145.66 19.02
  C 141.88 18.66 135.73 15.86 135.78 11.03
  A 1.20 1.19 -21.9 0 1 136.13 10.21
  C 138.72 7.65 146.23 8.42 149.52 8.99
  Q 155.38 10.00 156.74 15.89
  Q 157.82 20.59 159.00 25.30
  A 0.84 0.83 -25.0 0 1 158.68 26.17
  Q 155.83 28.22 156.07 31.76
  Q 156.10 32.21 156.39 32.56
  C 158.70 35.40 162.39 36.83 164.19 32.11
  Z"
/>
<path fill="#a94e2b" d="
  M 388.22 8.95
  L 389.00 10.09
  Q 389.27 10.49 389.76 10.49
  C 397.76 10.57 406.44 16.74 410.97 22.78
  C 414.29 27.20 411.18 33.06 410.27 37.83
  Q 409.65 41.02 410.13 44.69
  Q 411.02 51.58 412.20 58.39
  C 412.99 62.94 411.37 70.71 405.78 70.87
  C 400.98 71.00 397.05 66.35 396.22 61.98
  C 395.31 57.13 395.75 50.97 395.45 46.67
  C 394.73 36.45 395.03 23.32 389.85 14.40
  Q 389.57 13.92 389.45 14.47
  L 388.96 16.72
  L 388.22 8.95
  Z"
/>
<path fill="#85320a" d="
  M 244.40 36.46
  C 244.80 36.40 245.42 35.98 245.65 35.59
  C 247.36 32.63 250.22 29.78 253.84 30.09
  Q 257.56 30.40 257.78 34.74
  C 258.13 41.29 252.28 43.32 246.75 44.04
  Q 244.41 44.34 242.28 45.47
  Q 238.43 47.52 232.68 50.13
  C 229.16 51.73 229.38 54.61 230.44 58.06
  Q 233.22 67.14 231.88 76.56
  C 231.33 80.47 230.72 87.31 226.76 88.43
  C 223.54 89.35 217.86 86.34 215.41 84.41
  C 211.82 81.59 211.66 77.96 212.32 73.75
  Q 213.40 66.89 214.67 62.34
  C 214.92 61.43 214.73 60.83 214.38 60.04
  Q 211.91 54.32 211.92 47.99
  C 211.94 40.26 207.59 40.96 202.94 37.66
  Q 197.63 33.89 194.17 28.78
  A 2.18 2.18 0.0 0 1 195.21 25.51
  C 201.30 23.23 210.75 24.99 217.25 25.56
  C 224.95 26.24 222.28 8.45 232.64 10.16
  Q 233.16 10.24 233.52 10.64
  C 236.38 13.84 236.94 17.84 237.34 21.94
  C 237.84 26.97 240.82 31.83 243.43 36.01
  A 0.98 0.98 0.0 0 0 244.40 36.46
  Z"
/>
<path fill="#85320a" d="
  M 171.96 32.63
  Q 165.81 29.01 164.19 32.11
  Q 164.72 28.51 160.56 26.92
  A 0.51 0.51 0.0 0 1 160.76 25.94
  Q 167.38 26.23 173.28 23.03
  C 177.18 20.92 177.69 14.59 182.36 14.62
  Q 182.83 14.62 183.14 14.97
  C 186.46 18.65 182.17 21.38 179.26 23.48
  C 176.15 25.72 174.40 29.61 171.96 32.63
  Z"
/>
<path fill="#b23210" d="
  M 96.79 59.35
  C 98.14 62.14 100.79 61.36 103.87 60.74
  Q 107.76 59.96 111.24 63.29
  Q 114.04 65.97 115.97 68.17
  C 118.94 71.57 122.34 74.08 125.33 77.37
  Q 125.85 77.94 125.08 77.99
  C 120.62 78.27 116.15 77.53 112.00 78.05
  C 104.39 79.02 96.14 80.66 88.74 78.80
  C 80.83 76.80 76.51 66.14 76.97 59.25
  Q 77.38 53.00 77.91 46.76
  C 78.50 39.71 81.67 34.44 84.61 28.26
  C 87.99 21.14 90.71 17.67 98.52 17.05
  C 102.14 16.77 107.75 18.19 105.99 23.08
  Q 105.82 23.58 105.88 24.10
  Q 106.60 29.66 103.55 34.36
  C 101.74 37.16 97.37 44.32 99.15 47.97
  A 1.32 1.27 -89.0 0 0 99.69 48.55
  L 104.58 51.30
  A 1.40 1.40 0.0 0 1 105.23 52.15
  Q 105.97 54.87 105.17 57.74
  A 0.87 0.86 -63.6 0 1 103.81 58.20
  Q 101.12 56.14 97.90 56.97
  A 1.70 1.69 -20.1 0 0 96.79 59.35
  Z"
/>
<path fill="#b23210" d="
  M 107.16 28.01
  L 107.51 21.45
  A 1.63 1.63 0.0 0 1 108.45 20.07
  C 113.23 17.83 116.92 18.70 121.24 21.87
  C 125.05 24.68 127.84 26.94 127.36 31.74
  Q 126.69 38.45 125.64 43.18
  C 124.37 48.94 118.48 48.26 115.92 44.11
  C 113.50 40.21 113.87 31.16 108.60 29.94
  A 1.87 1.87 0.0 0 1 107.16 28.01
  Z"
/>
<path fill="#b76b47" d="
  M 44.67 38.28
  Q 42.22 41.55 42.46 44.78
  A 1.51 1.49 -68.9 0 0 42.85 45.68
  C 47.72 51.06 53.02 55.96 57.81 61.34
  C 61.18 65.12 62.83 68.84 59.66 73.16
  C 58.26 75.08 55.83 75.83 54.00 77.83
  Q 53.66 78.21 53.60 78.72
  C 53.04 83.48 52.09 88.31 48.52 91.80
  Q 45.99 94.26 43.17 97.54
  Q 43.19 93.31 47.34 90.61
  Q 49.25 89.37 49.89 88.10
  Q 51.67 84.56 51.37 80.38
  A 1.54 1.54 0.0 0 0 49.17 79.10
  Q 43.52 81.78 37.86 84.58
  Q 35.06 85.97 31.21 84.88
  Q 30.77 84.75 30.60 84.32
  Q 29.83 82.32 27.75 82.61
  C 25.75 82.89 21.09 83.79 21.08 80.89
  Q 21.08 80.40 21.42 80.04
  Q 23.70 77.62 24.31 74.39
  Q 24.40 73.90 24.72 73.53
  Q 28.46 69.15 23.93 65.39
  Q 23.54 65.06 23.39 64.57
  Q 22.04 60.20 25.35 58.96
  C 22.33 64.34 25.75 67.19 30.78 66.54
  Q 32.18 66.36 32.29 67.77
  Q 32.61 71.85 29.04 73.60
  A 1.22 1.22 0.0 0 0 28.39 74.49
  C 27.95 77.11 31.68 79.50 33.07 80.84
  Q 33.46 81.21 34.00 81.14
  Q 38.46 80.57 42.80 79.37
  C 45.46 78.63 50.80 74.60 51.79 71.98
  C 52.87 69.16 53.60 65.87 50.76 63.66
  Q 51.42 61.30 50.99 59.03
  Q 50.67 57.31 48.80 55.60
  Q 46.36 53.37 44.17 50.93
  A 1.86 1.85 19.2 0 1 43.72 50.00
  Q 43.41 48.16 41.87 47.15
  Q 41.41 46.85 41.22 46.34
  Q 40.14 43.58 41.50 41.33
  Q 42.14 40.27 42.56 39.40
  Q 43.44 37.58 44.67 38.28
  Z"
/>
</svg>
