<svg width="15" height="11" viewBox="0 0 15 11" fill="none" xmlns="http://www.w3.org/2000/svg">
<path d="M7.1 6.316C6.972 6.324 6.816 6.408 6.632 6.568C6.448 6.72 6.248 6.92 6.032 7.168C5.824 7.408 5.604 7.676 5.372 7.972C5.148 8.268 4.928 8.564 4.712 8.86C4.504 9.148 4.308 9.42 4.124 9.676C3.94 9.932 3.784 10.136 3.656 10.288C3.48 10.216 3.328 10.112 3.2 9.976C3.072 9.832 2.98 9.656 2.924 9.448C2.964 9.2 3.02 8.944 3.092 8.68C3.164 8.408 3.256 8.128 3.368 7.84C3.488 7.552 3.632 7.252 3.8 6.94C3.976 6.62 4.188 6.284 4.436 5.932C4.316 5.94 4.152 6.028 3.944 6.196C3.736 6.356 3.512 6.568 3.272 6.832C3.032 7.088 2.784 7.38 2.528 7.708C2.272 8.028 2.032 8.344 1.808 8.656C1.512 9.072 1.264 9.436 1.064 9.748C0.872 10.06 0.732 10.244 0.644 10.3C0.436 10.148 0.292 9.984 0.212 9.808C0.132 9.632 0.0720001 9.436 0.032 9.22C0.0400001 9.028 0.068 8.788 0.116 8.5C0.172 8.212 0.248 7.916 0.344 7.612C0.528 7.028 0.764 6.448 1.052 5.872C1.348 5.296 1.632 4.768 1.904 4.288C2.128 4.336 2.328 4.412 2.504 4.516C2.688 4.62 2.88 4.772 3.08 4.972C3 5.22 2.876 5.484 2.708 5.764C2.54 6.036 2.364 6.324 2.18 6.628C1.996 6.932 1.828 7.244 1.676 7.564C1.524 7.884 1.424 8.208 1.376 8.536C1.6 8.216 1.864 7.848 2.168 7.432C2.48 7.016 2.796 6.624 3.116 6.256C3.444 5.888 3.768 5.576 4.088 5.32C4.408 5.064 4.696 4.936 4.952 4.936C5.048 4.936 5.152 4.952 5.264 4.984C5.376 5.016 5.48 5.056 5.576 5.104C5.672 5.152 5.752 5.2 5.816 5.248C5.88 5.288 5.916 5.32 5.924 5.344C5.884 5.504 5.788 5.724 5.636 6.004C5.492 6.276 5.336 6.564 5.168 6.868C5 7.172 4.844 7.468 4.7 7.756C4.556 8.036 4.472 8.26 4.448 8.428C4.84 7.892 5.208 7.408 5.552 6.976C5.896 6.536 6.22 6.16 6.524 5.848C6.828 5.536 7.108 5.296 7.364 5.128C7.628 4.96 7.876 4.876 8.108 4.876C8.268 4.876 8.416 4.92 8.552 5.008C8.696 5.088 8.796 5.208 8.852 5.368C8.78 5.608 8.66 5.896 8.492 6.232C8.332 6.568 8.168 6.924 8 7.3C7.832 7.668 7.68 8.032 7.544 8.392C7.416 8.752 7.352 9.076 7.352 9.364C7.352 9.532 7.376 9.644 7.424 9.7C7.472 9.748 7.54 9.772 7.628 9.772C7.724 9.772 7.812 9.756 7.892 9.724C7.98 9.684 8.044 9.664 8.084 9.664C8.132 9.696 8.16 9.736 8.168 9.784C8.176 9.832 8.18 9.876 8.18 9.916C8.02 10.044 7.856 10.148 7.688 10.228C7.52 10.316 7.332 10.36 7.124 10.36C6.932 10.36 6.772 10.328 6.644 10.264C6.524 10.2 6.424 10.112 6.344 10C6.264 9.888 6.208 9.76 6.176 9.616C6.144 9.472 6.128 9.316 6.128 9.148C6.128 8.876 6.164 8.608 6.236 8.344C6.308 8.072 6.392 7.816 6.488 7.576C6.592 7.328 6.7 7.1 6.812 6.892C6.924 6.676 7.02 6.484 7.1 6.316Z" fill="white"/>
<path d="M11.9558 4.396C12.1158 4.396 12.2998 4.444 12.5078 4.54C12.7158 4.636 12.8998 4.76 13.0598 4.912C13.0198 4.592 12.9678 4.292 12.9038 4.012C12.8478 3.724 12.7598 3.428 12.6398 3.124C12.5278 2.82 12.3758 2.488 12.1838 2.128C11.9918 1.768 11.7518 1.356 11.4638 0.891999C11.4878 0.82 11.5398 0.736 11.6198 0.64C11.7078 0.543999 11.8038 0.455999 11.9078 0.375999C12.0198 0.288 12.1318 0.212 12.2438 0.148C12.3638 0.0839994 12.4758 0.0439994 12.5798 0.0279996C12.8038 0.276 13.0158 0.588 13.2158 0.964C13.4158 1.332 13.5918 1.732 13.7438 2.164C13.8958 2.588 14.0118 3.028 14.0918 3.484C14.1798 3.94 14.2238 4.376 14.2238 4.792C14.2238 5.208 14.1758 5.636 14.0798 6.076C13.9918 6.516 13.8638 6.948 13.6958 7.372C13.5358 7.788 13.3478 8.184 13.1318 8.56C12.9158 8.936 12.6798 9.272 12.4238 9.568C12.1758 9.864 11.9158 10.104 11.6438 10.288C11.3718 10.48 11.0998 10.6 10.8278 10.648C10.2758 10.584 9.85178 10.404 9.55578 10.108C9.26778 9.82 9.12378 9.42 9.12378 8.908C9.12378 8.636 9.16378 8.34 9.24378 8.02C9.33178 7.7 9.44378 7.384 9.57978 7.072C9.72378 6.752 9.88778 6.444 10.0718 6.148C10.2638 5.844 10.4638 5.572 10.6718 5.332C10.8878 5.092 11.1038 4.888 11.3198 4.72C11.5358 4.552 11.7478 4.444 11.9558 4.396ZM10.7318 10.168C11.0118 10.072 11.2918 9.86 11.5718 9.532C11.8518 9.204 12.1038 8.82 12.3278 8.38C12.5518 7.932 12.7318 7.456 12.8678 6.952C13.0118 6.44 13.0838 5.948 13.0838 5.476C13.0838 5.34 13.0838 5.256 13.0838 5.224C13.0838 5.192 13.0798 5.16 13.0718 5.128C12.8798 5.208 12.6758 5.344 12.4598 5.536C12.2438 5.728 12.0278 5.952 11.8118 6.208C11.5958 6.456 11.3918 6.728 11.1998 7.024C11.0078 7.32 10.8358 7.616 10.6838 7.912C10.5318 8.208 10.4118 8.492 10.3238 8.764C10.2358 9.036 10.1918 9.276 10.1918 9.484C10.1918 9.884 10.3718 10.112 10.7318 10.168Z" fill="#FACC15"/>
</svg>
