<svg width="62" height="110" viewBox="0 0 62 110" fill="none" xmlns="http://www.w3.org/2000/svg">
<g clip-path="url(#clip0_244_2)">
<path d="M44.6704 37.2801C43.8504 36.8135 43.1471 37.1868 42.5604 38.4001C42.2804 38.9801 41.9271 39.6235 41.5004 40.3301C40.5938 41.8301 40.5004 43.5001 41.2204 45.3401C41.3471 45.6801 41.5638 45.9501 41.8704 46.1501C42.8971 46.8235 43.5138 47.7735 43.7204 49.0001C43.7791 49.346 43.9352 49.6685 44.1704 49.9301C45.6304 51.5568 47.1738 53.1135 48.8004 54.6001C50.0471 55.7401 50.7771 56.8835 50.9904 58.0301C51.2771 59.5435 51.2004 61.0868 50.7604 62.6601C48.4804 61.7268 46.0304 61.0201 43.4104 60.5401C41.8304 60.2535 40.6204 59.7001 39.7804 58.8801C38.2004 57.3601 36.6704 53.0601 34.2704 53.3501C30.8304 53.7768 27.8571 55.3135 25.3504 57.9601C23.1438 58.7868 22.4904 60.6568 23.3904 63.5701C23.4904 63.8968 23.6704 64.1701 23.9304 64.3901C26.9504 66.8968 27.2138 69.6101 24.7204 72.5301C24.5071 72.7768 24.3704 73.0635 24.3104 73.3901C23.9038 75.5435 22.9404 77.4268 21.4204 79.0401C21.1938 79.2801 21.0804 79.5635 21.0804 79.8901C21.0904 82.7901 25.7504 81.8901 27.7504 81.6101C29.1371 81.4168 30.0871 81.9868 30.6004 83.3201C30.7138 83.6068 30.9171 83.7935 31.2104 83.8801C33.7771 84.6068 35.9938 84.5068 37.8604 83.5801C41.6338 81.7135 45.4038 79.8868 49.1704 78.1001C49.3968 77.992 49.6462 77.9408 49.8969 77.951C50.1475 77.9611 50.3919 78.0324 50.6088 78.1586C50.8257 78.2848 51.0084 78.462 51.1411 78.6749C51.2739 78.8878 51.3526 79.1299 51.3704 79.3801C51.5704 82.1668 51.0771 84.7401 49.8904 87.1001C49.4638 87.9468 48.6138 88.7835 47.3404 89.6101C44.5738 91.4101 43.1838 93.7201 43.1704 96.5401C37.1038 100.707 29.8971 103.74 21.5504 105.64C16.6304 106.76 3.23044 113.83 2.54044 103.99C1.93377 95.1701 1.43377 88.3401 1.04044 83.5001C0.800441 80.4401 0.760441 78.5901 2.80044 76.0301C7.42044 70.2101 7.55044 64.8601 7.99044 56.2601C8.80044 40.4501 12.2804 27.6801 15.6304 13.2801C15.9771 11.7935 15.8071 10.4335 15.1204 9.20014C14.9471 8.89347 14.6838 8.7168 14.3304 8.67014C10.9104 8.26014 4.62044 6.50014 9.32044 1.57014C11.4504 -0.659864 22.9204 0.390136 26.0504 0.680136C31.5571 1.18014 36.0604 2.31347 39.5604 4.08014C45.6404 7.15014 54.3704 14.5501 54.3704 22.2501C54.3704 26.7301 53.9904 27.8601 50.4904 30.9601C48.2504 32.9535 46.3104 35.0601 44.6704 37.2801ZM39.7504 23.3101C34.3704 21.8301 31.8404 27.2601 32.5304 31.8401C32.5624 32.0538 32.6774 32.2465 32.8511 32.3772C33.0248 32.5079 33.2434 32.5664 33.4604 32.5401C37.9004 31.9901 42.0904 30.1601 41.2204 24.8101C41.1004 24.0501 40.6104 23.5501 39.7504 23.3101Z" fill="#B23210"/>
<path d="M44.6701 37.2799C43.0367 39.4599 42.3001 41.6266 42.4601 43.7799C42.4861 44.1165 42.6235 44.4334 42.8501 44.6799C47.7201 50.0599 53.0201 54.9599 57.8101 60.3399C61.1801 64.1199 62.8301 67.8399 59.6601 72.1599C58.2601 74.0799 55.8301 74.8299 54.0001 76.8299C53.7734 77.0832 53.6401 77.3799 53.6001 77.7199C53.0401 82.4799 52.0901 87.3099 48.5201 90.7999C46.8334 92.4399 45.0501 94.3532 43.1701 96.5399C43.1834 93.7199 44.5734 91.4099 47.3401 89.6099C48.6134 88.7832 49.4634 87.9466 49.8901 87.0999C51.0767 84.7399 51.5701 82.1666 51.3701 79.3799C51.3522 79.1296 51.2735 78.8875 51.1408 78.6746C51.008 78.4617 50.8253 78.2845 50.6084 78.1583C50.3916 78.0322 50.1472 77.9609 49.8965 77.9507C49.6458 77.9405 49.3965 77.9917 49.1701 78.0999C45.4034 79.8866 41.6334 81.7132 37.8601 83.5799C35.9934 84.5066 33.7767 84.6066 31.2101 83.8799C30.9167 83.7932 30.7134 83.6066 30.6001 83.3199C30.0867 81.9866 29.1367 81.4166 27.7501 81.6099C25.7501 81.8899 21.0901 82.7899 21.0801 79.8899C21.0801 79.5632 21.1934 79.2799 21.4201 79.0399C22.9401 77.4266 23.9034 75.5432 24.3101 73.3899C24.3701 73.0632 24.5067 72.7766 24.7201 72.5299C27.2134 69.6099 26.9501 66.8966 23.9301 64.3899C23.6701 64.1699 23.4901 63.8966 23.3901 63.5699C22.4901 60.6566 23.1434 58.7866 25.3501 57.9599C22.3301 63.3399 25.7501 66.1899 30.7801 65.5399C31.7134 65.4199 32.2167 65.8299 32.2901 66.7699C32.5034 69.4899 31.4201 71.4332 29.0401 72.5999C28.8695 72.6868 28.7218 72.8127 28.6089 72.9673C28.4959 73.1219 28.421 73.3009 28.3901 73.4899C27.9501 76.1099 31.6801 78.4999 33.0701 79.8399C33.3301 80.0866 33.6401 80.1866 34.0001 80.1399C36.9734 79.7599 39.9067 79.1699 42.8001 78.3699C45.4601 77.6299 50.8001 73.5999 51.7901 70.9799C52.8701 68.1599 53.6001 64.8699 50.7601 62.6599C51.2001 61.0866 51.2767 59.5432 50.9901 58.0299C50.7767 56.8832 50.0467 55.7399 48.8001 54.5999C47.1734 53.1132 45.6301 51.5566 44.1701 49.9299C43.9348 49.6683 43.7788 49.3458 43.7201 48.9999C43.5134 47.7732 42.8967 46.8232 41.8701 46.1499C41.5634 45.9499 41.3467 45.6799 41.2201 45.3399C40.5001 43.4999 40.5934 41.8299 41.5001 40.3299C41.9267 39.6232 42.2801 38.9799 42.5601 38.3999C43.1467 37.1866 43.8501 36.8132 44.6701 37.2799Z" fill="#B76B47"/>
</g>
<defs>
<clipPath id="clip0_244_2">
<rect width="62" height="110" fill="white"/>
</clipPath>
</defs>
</svg>
