<svg xmlns="http://www.w3.org/2000/svg" version="1.1" xmlns:xlink="http://www.w3.org/1999/xlink" xmlns:svgjs="http://svgjs.dev/svgjs" viewBox="0 0 800 800" opacity="0.85" width="800" height="800"><g stroke-width="0.5" stroke="hsl(261, 60%, 38%)" fill="none"><rect width="80" height="50" x="0" y="0"></rect><rect width="80" height="50" x="80" y="0"></rect><rect width="80" height="50" x="160" y="0"></rect><rect width="80" height="50" x="240" y="0"></rect><rect width="80" height="50" x="320" y="0"></rect><rect width="80" height="50" x="400" y="0"></rect><rect width="80" height="50" x="480" y="0"></rect><rect width="80" height="50" x="560" y="0"></rect><rect width="80" height="50" x="640" y="0"></rect><rect width="80" height="50" x="720" y="0"></rect><rect width="80" height="50" x="800" y="0"></rect><rect width="80" height="50" x="0" y="50"></rect><rect width="80" height="50" x="80" y="50"></rect><rect width="80" height="50" x="160" y="50"></rect><rect width="80" height="50" x="240" y="50"></rect><rect width="80" height="50" x="320" y="50"></rect><rect width="80" height="50" x="400" y="50"></rect><rect width="80" height="50" x="480" y="50"></rect><rect width="80" height="50" x="560" y="50"></rect><rect width="80" height="50" x="640" y="50"></rect><rect width="80" height="50" x="720" y="50"></rect><rect width="80" height="50" x="800" y="50"></rect><rect width="80" height="50" x="0" y="100"></rect><rect width="80" height="50" x="80" y="100"></rect><rect width="80" height="50" x="160" y="100"></rect><rect width="80" height="50" x="240" y="100"></rect><rect width="80" height="50" x="320" y="100"></rect><rect width="80" height="50" x="400" y="100"></rect><rect width="80" height="50" x="480" y="100"></rect><rect width="80" height="50" x="560" y="100"></rect><rect width="80" height="50" x="640" y="100"></rect><rect width="80" height="50" x="720" y="100"></rect><rect width="80" height="50" x="800" y="100"></rect><rect width="80" height="50" x="0" y="150"></rect><rect width="80" height="50" x="80" y="150"></rect><rect width="80" height="50" x="160" y="150"></rect><rect width="80" height="50" x="240" y="150"></rect><rect width="80" height="50" x="320" y="150"></rect><rect width="80" height="50" x="400" y="150"></rect><rect width="80" height="50" x="480" y="150"></rect><rect width="80" height="50" x="560" y="150"></rect><rect width="80" height="50" x="640" y="150"></rect><rect width="80" height="50" x="720" y="150"></rect><rect width="80" height="50" x="800" y="150"></rect><rect width="80" height="50" x="0" y="200"></rect><rect width="80" height="50" x="80" y="200"></rect><rect width="80" height="50" x="160" y="200"></rect><rect width="80" height="50" x="240" y="200"></rect><rect width="80" height="50" x="320" y="200"></rect><rect width="80" height="50" x="400" y="200"></rect><rect width="80" height="50" x="480" y="200"></rect><rect width="80" height="50" x="560" y="200"></rect><rect width="80" height="50" x="640" y="200"></rect><rect width="80" height="50" x="720" y="200"></rect><rect width="80" height="50" x="800" y="200"></rect><rect width="80" height="50" x="0" y="250"></rect><rect width="80" height="50" x="80" y="250"></rect><rect width="80" height="50" x="160" y="250"></rect><rect width="80" height="50" x="240" y="250"></rect><rect width="80" height="50" x="320" y="250"></rect><rect width="80" height="50" x="400" y="250"></rect><rect width="80" height="50" x="480" y="250"></rect><rect width="80" height="50" x="560" y="250"></rect><rect width="80" height="50" x="640" y="250"></rect><rect width="80" height="50" x="720" y="250"></rect><rect width="80" height="50" x="800" y="250"></rect><rect width="80" height="50" x="0" y="300"></rect><rect width="80" height="50" x="80" y="300"></rect><rect width="80" height="50" x="160" y="300"></rect><rect width="80" height="50" x="240" y="300"></rect><rect width="80" height="50" x="320" y="300"></rect><rect width="80" height="50" x="400" y="300"></rect><rect width="80" height="50" x="480" y="300"></rect><rect width="80" height="50" x="560" y="300"></rect><rect width="80" height="50" x="640" y="300"></rect><rect width="80" height="50" x="720" y="300"></rect><rect width="80" height="50" x="800" y="300"></rect><rect width="80" height="50" x="0" y="350"></rect><rect width="80" height="50" x="80" y="350"></rect><rect width="80" height="50" x="160" y="350"></rect><rect width="80" height="50" x="240" y="350"></rect><rect width="80" height="50" x="320" y="350"></rect><rect width="80" height="50" x="400" y="350"></rect><rect width="80" height="50" x="480" y="350"></rect><rect width="80" height="50" x="560" y="350"></rect><rect width="80" height="50" x="640" y="350"></rect><rect width="80" height="50" x="720" y="350"></rect><rect width="80" height="50" x="800" y="350"></rect><rect width="80" height="50" x="0" y="400"></rect><rect width="80" height="50" x="80" y="400"></rect><rect width="80" height="50" x="160" y="400"></rect><rect width="80" height="50" x="240" y="400"></rect><rect width="80" height="50" x="320" y="400"></rect><rect width="80" height="50" x="400" y="400"></rect><rect width="80" height="50" x="480" y="400"></rect><rect width="80" height="50" x="560" y="400"></rect><rect width="80" height="50" x="640" y="400"></rect><rect width="80" height="50" x="720" y="400"></rect><rect width="80" height="50" x="800" y="400"></rect><rect width="80" height="50" x="0" y="450"></rect><rect width="80" height="50" x="80" y="450"></rect><rect width="80" height="50" x="160" y="450"></rect><rect width="80" height="50" x="240" y="450"></rect><rect width="80" height="50" x="320" y="450"></rect><rect width="80" height="50" x="400" y="450"></rect><rect width="80" height="50" x="480" y="450"></rect><rect width="80" height="50" x="560" y="450"></rect><rect width="80" height="50" x="640" y="450"></rect><rect width="80" height="50" x="720" y="450"></rect><rect width="80" height="50" x="800" y="450"></rect><rect width="80" height="50" x="0" y="500"></rect><rect width="80" height="50" x="80" y="500"></rect><rect width="80" height="50" x="160" y="500"></rect><rect width="80" height="50" x="240" y="500"></rect><rect width="80" height="50" x="320" y="500"></rect><rect width="80" height="50" x="400" y="500"></rect><rect width="80" height="50" x="480" y="500"></rect><rect width="80" height="50" x="560" y="500"></rect><rect width="80" height="50" x="640" y="500"></rect><rect width="80" height="50" x="720" y="500"></rect><rect width="80" height="50" x="800" y="500"></rect><rect width="80" height="50" x="0" y="550"></rect><rect width="80" height="50" x="80" y="550"></rect><rect width="80" height="50" x="160" y="550"></rect><rect width="80" height="50" x="240" y="550"></rect><rect width="80" height="50" x="320" y="550"></rect><rect width="80" height="50" x="400" y="550"></rect><rect width="80" height="50" x="480" y="550"></rect><rect width="80" height="50" x="560" y="550"></rect><rect width="80" height="50" x="640" y="550"></rect><rect width="80" height="50" x="720" y="550"></rect><rect width="80" height="50" x="800" y="550"></rect><rect width="80" height="50" x="0" y="600"></rect><rect width="80" height="50" x="80" y="600"></rect><rect width="80" height="50" x="160" y="600"></rect><rect width="80" height="50" x="240" y="600"></rect><rect width="80" height="50" x="320" y="600"></rect><rect width="80" height="50" x="400" y="600"></rect><rect width="80" height="50" x="480" y="600"></rect><rect width="80" height="50" x="560" y="600"></rect><rect width="80" height="50" x="640" y="600"></rect><rect width="80" height="50" x="720" y="600"></rect><rect width="80" height="50" x="800" y="600"></rect><rect width="80" height="50" x="0" y="650"></rect><rect width="80" height="50" x="80" y="650"></rect><rect width="80" height="50" x="160" y="650"></rect><rect width="80" height="50" x="240" y="650"></rect><rect width="80" height="50" x="320" y="650"></rect><rect width="80" height="50" x="400" y="650"></rect><rect width="80" height="50" x="480" y="650"></rect><rect width="80" height="50" x="560" y="650"></rect><rect width="80" height="50" x="640" y="650"></rect><rect width="80" height="50" x="720" y="650"></rect><rect width="80" height="50" x="800" y="650"></rect><rect width="80" height="50" x="0" y="700"></rect><rect width="80" height="50" x="80" y="700"></rect><rect width="80" height="50" x="160" y="700"></rect><rect width="80" height="50" x="240" y="700"></rect><rect width="80" height="50" x="320" y="700"></rect><rect width="80" height="50" x="400" y="700"></rect><rect width="80" height="50" x="480" y="700"></rect><rect width="80" height="50" x="560" y="700"></rect><rect width="80" height="50" x="640" y="700"></rect><rect width="80" height="50" x="720" y="700"></rect><rect width="80" height="50" x="800" y="700"></rect><rect width="80" height="50" x="0" y="750"></rect><rect width="80" height="50" x="80" y="750"></rect><rect width="80" height="50" x="160" y="750"></rect><rect width="80" height="50" x="240" y="750"></rect><rect width="80" height="50" x="320" y="750"></rect><rect width="80" height="50" x="400" y="750"></rect><rect width="80" height="50" x="480" y="750"></rect><rect width="80" height="50" x="560" y="750"></rect><rect width="80" height="50" x="640" y="750"></rect><rect width="80" height="50" x="720" y="750"></rect><rect width="80" height="50" x="800" y="750"></rect><rect width="80" height="50" x="0" y="800"></rect><rect width="80" height="50" x="80" y="800"></rect><rect width="80" height="50" x="160" y="800"></rect><rect width="80" height="50" x="240" y="800"></rect><rect width="80" height="50" x="320" y="800"></rect><rect width="80" height="50" x="400" y="800"></rect><rect width="80" height="50" x="480" y="800"></rect><rect width="80" height="50" x="560" y="800"></rect><rect width="80" height="50" x="640" y="800"></rect><rect width="80" height="50" x="720" y="800"></rect><rect width="80" height="50" x="800" y="800"></rect></g></svg>