<svg width="18" height="18" viewBox="0 0 18 18" fill="none" xmlns="http://www.w3.org/2000/svg">
<path d="M17.9359 6.11741C17.864 5.64917 17.3425 5.39703 16.9828 5.16291C16.3355 4.73069 15.7061 4.31648 15.0587 3.88425C13.5302 2.85772 11.9838 1.83119 10.4553 0.804661C10.0956 0.57054 9.73597 0.31841 9.37632 0.0842886C9.12457 -0.0958045 8.7829 -0.0958045 8.51317 0.0842886C7.48817 0.768642 6.4452 1.47101 5.4202 2.15536L0.888656 5.18092C0.493044 5.43305 -0.0284435 5.68518 -0.0464258 6.22546C-0.0644081 6.81977 -0.0464258 7.43209 -0.0464258 8.02639V10.9079C-0.0464258 11.4302 -0.15432 12.0425 0.331203 12.3666C1.48207 13.159 2.65092 13.9154 3.81978 14.6898C5.25836 15.6443 6.69695 16.6168 8.13554 17.5713C8.53115 17.8415 8.92676 18.1296 9.41228 17.8054C9.82588 17.5353 10.2215 17.2652 10.6351 16.995C12.2355 15.9325 13.8359 14.8519 15.4364 13.7894L17.2166 12.6008C17.3245 12.5287 17.4504 12.4567 17.5583 12.3666C17.81 12.1865 17.9179 11.9344 17.9179 11.6283V6.6757C17.9359 6.47759 17.9539 6.2975 17.9359 6.11741C17.9359 6.0994 17.9359 6.15343 17.9359 6.11741V6.11741ZM9.71798 2.17337L15.778 6.22546L13.0807 8.0444L9.71798 5.79324V2.17337ZM8.1715 2.17337V5.77523L4.82679 8.02639L2.11145 6.22546L8.1715 2.17337V2.17337ZM1.50006 7.66621L3.42417 8.96288L1.50006 10.2595V7.66621ZM8.1715 15.7524L2.11145 11.7003L4.80881 9.88135L8.15352 12.1325V15.7524H8.1715ZM8.94474 10.7998L6.21143 8.96288L8.94474 7.12593L11.6781 8.96288L8.94474 10.7998ZM9.71798 15.7524V12.1505L13.0627 9.89936L15.76 11.7183L9.71798 15.7524V15.7524ZM16.3894 10.2595L14.4653 8.96288L16.4074 7.66621L16.3894 10.2595V10.2595Z" fill="white"/>
</svg>
