<svg width="18" height="22" viewBox="0 0 18 22" fill="none" xmlns="http://www.w3.org/2000/svg">
<path d="M8 1.43457H2C1.44772 1.43457 1 1.82389 1 2.30414V4.04327C1 4.52351 1.44772 4.91283 2 4.91283H8C8.55228 4.91283 9 4.52351 9 4.04327V2.30414C9 1.82389 8.55228 1.43457 8 1.43457Z" stroke="white" stroke-width="2" stroke-linecap="round" stroke-linejoin="round"/>
<path d="M13 4.91309H15C15.5304 4.91309 16.0391 5.09632 16.4142 5.42247C16.7893 5.74862 17 6.19097 17 6.65222V18.8261C17 19.2874 16.7893 19.7297 16.4142 20.0559C16.0391 20.382 15.5304 20.5653 15 20.5653H3C2.46957 20.5653 1.96086 20.382 1.58579 20.0559C1.21071 19.7297 1 19.2874 1 18.8261V6.65222C1 6.19097 1.21071 5.74862 1.58579 5.42247C1.96086 5.09632 2.46957 4.91309 3 4.91309H5" stroke="white" stroke-width="2" stroke-linecap="round" stroke-linejoin="round"/>
</svg>
