<svg width="32" height="32" viewBox="0 0 32 32" fill="none" xmlns="http://www.w3.org/2000/svg">
<path d="M22.6667 2.66602H9.33342C5.65152 2.66602 2.66675 5.65078 2.66675 9.33268V22.666C2.66675 26.3479 5.65152 29.3327 9.33342 29.3327H22.6667C26.3486 29.3327 29.3334 26.3479 29.3334 22.666V9.33268C29.3334 5.65078 26.3486 2.66602 22.6667 2.66602Z" stroke="white" stroke-width="2" stroke-linecap="round" stroke-linejoin="round"/>
<path d="M21.3334 15.1604C21.4979 16.2701 21.3084 17.4034 20.7917 18.3991C20.275 19.3948 19.4575 20.2023 18.4555 20.7066C17.4535 21.211 16.3179 21.3865 15.2104 21.2083C14.1029 21.0301 13.0797 20.5072 12.2865 19.7139C11.4932 18.9207 10.9703 17.8976 10.7921 16.79C10.6139 15.6825 10.7894 14.5469 11.2938 13.5449C11.7981 12.5429 12.6056 11.7254 13.6013 11.2087C14.5971 10.6921 15.7304 10.5025 16.84 10.6671C17.9719 10.8349 19.0198 11.3624 19.8289 12.1715C20.6381 12.9806 21.1655 14.0285 21.3334 15.1604Z" stroke="white" stroke-width="2" stroke-linecap="round" stroke-linejoin="round"/>
<path d="M23.3333 8.66602H23.3466" stroke="white" stroke-width="2" stroke-linecap="round" stroke-linejoin="round"/>
</svg>
