<svg width="100" height="100" viewBox="0 0 100 100" fill="none" xmlns="http://www.w3.org/2000/svg">
<path d="M86.0326 11.1426L54.8022 34.3378L60.5775 20.6529L86.0326 11.1426Z" fill="#E2761B" stroke="#E2761B" stroke-linecap="round" stroke-linejoin="round"/>
<path d="M13.936 11.1426L44.9153 34.5575L39.4225 20.6529L13.936 11.1426Z" fill="#E4761B" stroke="#E4761B" stroke-linecap="round" stroke-linejoin="round"/>
<path d="M74.7957 64.9082L66.478 77.6515L84.2746 82.5479L89.3908 65.1907L74.7957 64.9082Z" fill="#E4761B" stroke="#E4761B" stroke-linecap="round" stroke-linejoin="round"/>
<path d="M10.6401 65.1907L15.7249 82.5479L33.5215 77.6515L25.2039 64.9082L10.6401 65.1907Z" fill="#E4761B" stroke="#E4761B" stroke-linecap="round" stroke-linejoin="round"/>
<path d="M32.5173 43.3769L27.5581 50.8785L45.2292 51.6632L44.6014 32.6738L32.5173 43.3769Z" fill="#E4761B" stroke="#E4761B" stroke-linecap="round" stroke-linejoin="round"/>
<path d="M67.4513 43.3779L55.2103 32.4551L54.8022 51.6641L72.4419 50.8794L67.4513 43.3779Z" fill="#E4761B" stroke="#E4761B" stroke-linecap="round" stroke-linejoin="round"/>
<path d="M33.5215 77.6516L44.1304 72.4727L34.9653 65.3164L33.5215 77.6516Z" fill="#E4761B" stroke="#E4761B" stroke-linecap="round" stroke-linejoin="round"/>
<path d="M55.8379 72.4727L66.4782 77.6516L65.003 65.3164L55.8379 72.4727Z" fill="#E4761B" stroke="#E4761B" stroke-linecap="round" stroke-linejoin="round"/>
<path d="M66.4782 77.6516L55.8379 72.4727L56.6854 79.4093L56.5912 82.3283L66.4782 77.6516Z" fill="#D7C1B3" stroke="#D7C1B3" stroke-linecap="round" stroke-linejoin="round"/>
<path d="M33.5215 77.6516L43.4085 82.3283L43.3457 79.4093L44.1304 72.4727L33.5215 77.6516Z" fill="#D7C1B3" stroke="#D7C1B3" stroke-linecap="round" stroke-linejoin="round"/>
<path d="M43.5656 60.7348L34.7144 58.1297L40.9604 55.2734L43.5656 60.7348Z" fill="#233447" stroke="#233447" stroke-linecap="round" stroke-linejoin="round"/>
<path d="M56.4028 60.7348L59.008 55.2734L65.2854 58.1297L56.4028 60.7348Z" fill="#233447" stroke="#233447" stroke-linecap="round" stroke-linejoin="round"/>
<path d="M33.5217 77.6514L35.0283 64.9082L25.2041 65.1907L33.5217 77.6514Z" fill="#CD6116" stroke="#CD6116" stroke-linecap="round" stroke-linejoin="round"/>
<path d="M64.9717 64.9082L66.4783 77.6514L74.7959 65.1907L64.9717 64.9082Z" fill="#CD6116" stroke="#CD6116" stroke-linecap="round" stroke-linejoin="round"/>
<path d="M72.4419 50.8789L54.8022 51.6636L56.4344 60.7345L59.0395 55.2731L65.317 58.1294L72.4419 50.8789Z" fill="#CD6116" stroke="#CD6116" stroke-linecap="round" stroke-linejoin="round"/>
<path d="M34.7144 58.1294L40.9919 55.2731L43.5656 60.7345L45.2292 51.6636L27.5581 50.8789L34.7144 58.1294Z" fill="#CD6116" stroke="#CD6116" stroke-linecap="round" stroke-linejoin="round"/>
<path d="M27.5581 50.8789L34.9655 65.3171L34.7144 58.1294L27.5581 50.8789Z" fill="#E4751F" stroke="#E4751F" stroke-linecap="round" stroke-linejoin="round"/>
<path d="M65.3168 58.1294L65.0029 65.3171L72.4417 50.8789L65.3168 58.1294Z" fill="#E4751F" stroke="#E4751F" stroke-linecap="round" stroke-linejoin="round"/>
<path d="M45.229 51.6641L43.5654 60.735L45.637 71.4381L46.1078 57.3452L45.229 51.6641Z" fill="#E4751F" stroke="#E4751F" stroke-linecap="round" stroke-linejoin="round"/>
<path d="M54.8025 51.6641L53.9551 57.3138L54.3317 71.4381L56.4347 60.735L54.8025 51.6641Z" fill="#E4751F" stroke="#E4751F" stroke-linecap="round" stroke-linejoin="round"/>
<path d="M56.4345 60.7341L54.3315 71.4371L55.8381 72.4729L65.0032 65.3166L65.3171 58.1289L56.4345 60.7341Z" fill="#F6851B" stroke="#F6851B" stroke-linecap="round" stroke-linejoin="round"/>
<path d="M34.7144 58.1289L34.9655 65.3166L44.1306 72.4729L45.6371 71.4371L43.5656 60.7341L34.7144 58.1289Z" fill="#F6851B" stroke="#F6851B" stroke-linecap="round" stroke-linejoin="round"/>
<path d="M56.5912 82.3291L56.6853 79.41L55.9006 78.7195H44.0676L43.3457 79.41L43.4085 82.3291L33.5215 77.6523L36.9741 80.4772L43.9735 85.3422H55.9948L63.0256 80.4772L66.4782 77.6523L56.5912 82.3291Z" fill="#C0AD9E" stroke="#C0AD9E" stroke-linecap="round" stroke-linejoin="round"/>
<path d="M55.8379 72.4733L54.3313 71.4375H45.637L44.1304 72.4733L43.3457 79.4099L44.0676 78.7194H55.9006L56.6853 79.4099L55.8379 72.4733Z" fill="#161616" stroke="#161616" stroke-linecap="round" stroke-linejoin="round"/>
<path d="M87.3508 35.8444L90.0187 23.0384L86.0325 11.1426L55.8379 33.5531L67.4512 43.3774L83.8668 48.1796L87.5077 43.9423L85.9383 42.8124L88.4493 40.5211L86.5033 39.0145L89.0143 37.0999L87.3508 35.8444Z" fill="#763D16" stroke="#763D16" stroke-linecap="round" stroke-linejoin="round"/>
<path d="M9.98096 23.0384L12.6489 35.8444L10.954 37.0999L13.465 39.0145L11.5503 40.5211L14.0613 42.8124L12.4919 43.9423L16.1015 48.1796L32.5171 43.3774L44.1304 33.5531L13.9358 11.1426L9.98096 23.0384Z" fill="#763D16" stroke="#763D16" stroke-linecap="round" stroke-linejoin="round"/>
<path d="M83.8667 48.1792L67.4511 43.377L72.4417 50.8785L65.0029 65.3167L74.7958 65.1911H89.3909L83.8667 48.1792Z" fill="#F6851B" stroke="#F6851B" stroke-linecap="round" stroke-linejoin="round"/>
<path d="M32.5171 43.377L16.1015 48.1792L10.6401 65.1911H25.2039L34.9653 65.3167L27.5579 50.8785L32.5171 43.377Z" fill="#F6851B" stroke="#F6851B" stroke-linecap="round" stroke-linejoin="round"/>
<path d="M54.8021 51.663L55.8379 33.5525L60.6088 20.6523H39.4224L44.1305 33.5525L45.229 51.663L45.6057 57.3755L45.637 71.437H54.3313L54.3941 57.3755L54.8021 51.663Z" fill="#F6851B" stroke="#F6851B" stroke-linecap="round" stroke-linejoin="round"/>
</svg>
