<svg width="184" height="25" viewBox="0 0 184 25" fill="none" xmlns="http://www.w3.org/2000/svg">
<g clip-path="url(#clip0_230_302)">
<path d="M13.8 2.90039C13.8 0.900391 11.9 0.400391 10.4 0.400391V0.700391C11.3 0.700391 12 1.00039 12 1.70039C12 2.10039 11.7 2.70039 10.8 2.70039C10.1 2.70039 8.6 2.30039 7.5 1.90039C6.2 1.40039 5 1.00039 4 1.00039C2 1.00039 0.6 2.50039 0.6 4.20039C0.6 5.70039 1.7 6.20039 2.1 6.40039L2.2 6.20039C2 6.00039 1.7 5.80039 1.7 5.20039C1.7 4.80039 2.1 4.10039 3.1 4.10039C4 4.10039 5.2 4.50039 6.8 5.00039C8.2 5.40039 9.7 5.70039 10.5 5.80039V8.90039L9 10.2004V10.3004L10.5 11.6004V15.9004C9.7 16.4004 8.8 16.5004 8 16.5004C6.5 16.5004 5.2 16.1004 4.1 14.9004L8.2 12.9004V6.00039L3.2 8.20039C3.6 6.90039 4.7 6.00039 5.8 5.40039L5.7 5.10039C2.7 5.90039 0 8.70039 0 12.1004C0 16.1004 3.3 19.1004 7 19.1004C11 19.1004 13.6 15.9004 13.6 12.6004H13.4C12.8 13.9004 11.9 15.1004 10.8 15.7004V11.6004L12.4 10.3004V10.2004L10.8 8.90039V5.80039C12.3 5.80039 13.8 4.80039 13.8 2.90039ZM5.1 13.9004L3.9 14.5004C3.2 13.6004 2.8 12.4004 2.8 10.7004C2.8 10.0004 2.8 9.20039 3 8.60039L5.1 7.70039V13.9004V13.9004ZM15.7 16.2004L14.4 17.2004L14.6 17.4004L15.2 16.9004L17.4 18.9004L20.4 16.9004L20.3 16.7004L19.5 17.2004L18.5 16.2004V9.40039L19.3 8.80039L21 10.2004V16.3004C21 20.1004 20.2 20.7004 18.5 21.3004V21.6004C21.3 21.7004 23.9 20.8004 23.9 15.9004V9.30039L24.8 8.60039L24.6 8.40039L23.8 9.00039L21.3 6.90039L18.5 9.00039V0.800391H18.3L14.8 3.20039V3.40039C15.2 3.60039 15.8 3.80039 15.8 4.90039L15.7 16.2004V16.2004ZM34 15.1004L31.5 17.0004L29 15.0004V13.8004L33.7 10.6004V10.5004L31.3 6.90039L26.1 9.70039V16.3004L25.1 17.1004L25.3 17.3004L26.2 16.6004L29.6 19.1004L34.1 15.5004L34 15.1004V15.1004ZM29 13.4004V8.50039L29.2 8.40039L31.4 11.9004L29 13.4004ZM53.1 2.00039C53.1 1.70039 53 1.40039 52.9 1.10039H52.7C52.4 1.90039 52 2.30039 51 2.30039C50.1 2.30039 49.5 1.80039 49.1 1.40039L46.2 4.70039L46.4 4.90039L47.4 4.00039C48 4.50039 48.5 4.90039 49.9 5.00039V13.3004L44 3.20039C43.5 2.40039 42.8 1.30039 41.4 1.30039C39.8 1.30039 38.4 2.70039 38.6 4.90039H38.9C39 4.30039 39.3 3.60039 40 3.60039C40.5 3.60039 41 4.10039 41.3 4.60039V7.90039C39.5 7.90039 38.3 8.70039 38.3 10.2004C38.3 11.0004 38.7 12.2004 39.9 12.5004V12.3004C39.7 12.1004 39.6 11.9004 39.6 11.6004C39.6 11.1004 40 10.7004 40.7 10.7004H41.2V14.9004C39.1 14.9004 37.4 16.1004 37.4 18.1004C37.4 20.0004 39 20.9004 40.8 20.8004V20.6004C39.7 20.5004 39.2 20.0004 39.2 19.3004C39.2 18.4004 39.8 18.0004 40.6 18.0004C41.4 18.0004 42.1 18.5004 42.6 19.1004L45.5 15.9004L45.3 15.7004L44.6 16.5004C43.5 15.5004 42.9 15.2004 41.6 15.0004V5.00039L49.6 19.0004H50.2V5.00039C51.7 4.90039 53.1 3.70039 53.1 2.00039V2.00039ZM60.4 15.1004L57.9 17.0004L55.4 15.0004V13.8004L60.1 10.6004V10.5004L57.7 6.90039L52.5 9.70039V16.3004L51.5 17.1004L51.7 17.3004L52.6 16.6004L56 19.1004L60.5 15.5004L60.4 15.1004V15.1004ZM55.4 13.4004V8.50039L55.6 8.40039L57.8 11.9004L55.4 13.4004V13.4004ZM76.7 8.00039L76 8.50039L74.1 6.90039L71.9 8.90039L72.8 9.80039V17.3004L70.4 15.8004V9.60039L71.2 9.10039L68.9 6.90039L66.7 8.90039L67.6 9.80039V17.0004L67.3 17.2004L65.2 15.7004V9.70039C65.2 8.30039 64.5 7.90039 63.7 7.40039C63 6.90039 62.6 6.60039 62.6 5.90039C62.6 5.30039 63.2 5.00039 63.5 4.80039V4.60039C62.7 4.60039 60.6 5.40039 60.6 7.30039C60.6 8.30039 61.1 8.70039 61.6 9.20039C62.1 9.70039 62.6 10.1004 62.6 11.0004V16.8004L61.5 17.6004L61.7 17.8004L62.7 17.0004L65 19.0004L67.5 17.3004L70.3 19.0004L75.6 15.9004V9.20039L76.9 8.20039L76.7 8.00039V8.00039ZM95.3 2.50039L94.3 3.40039L92.1 1.40039L88.8 3.80039V1.60039H88.5L88.6 17.8004C88.3 17.8004 87.4 17.6004 86.7 17.4004L86.5 3.90039C86.5 2.90039 85.8 1.50039 84 1.50039C82.2 1.50039 81 2.90039 81 4.30039H81.3C81.4 3.70039 81.7 3.20039 82.3 3.20039C82.9 3.20039 83.4 3.60039 83.4 4.90039V8.80039C81.6 8.90039 80.5 9.90039 80.5 11.2004C80.5 12.0004 80.9 13.2004 82.1 13.2004V13.0004C81.7 12.8004 81.6 12.5004 81.6 12.3004C81.6 11.7004 82.1 11.5004 82.9 11.5004H83.3V17.7004C81.8 18.2004 81.2 19.3004 81.2 20.5004C81.2 22.2004 82.5 23.4004 84.5 23.4004C85.9 23.4004 87.1 23.2004 88.3 22.9004C89.3 22.7004 90.6 22.4004 91.2 22.4004C92 22.4004 92.3 22.8004 92.3 23.3004C92.3 24.0004 92 24.3004 91.6 24.4004V24.6004C93.2 24.3004 94.2 23.3004 94.2 21.8004C94.2 20.3004 92.7 19.4004 91.1 19.4004C90.3 19.4004 88.6 19.7004 87.4 19.9004C86 20.2004 84.6 20.4004 84.2 20.4004C83.5 20.4004 82.7 20.1004 82.7 19.1004C82.7 18.3004 83.4 17.6004 85.1 17.6004C86 17.6004 87.1 17.7004 88.2 18.0004C89.4 18.3004 90.5 18.6004 91.5 18.6004C93 18.6004 94.3 18.1004 94.3 16.0004V3.70039L95.5 2.70039L95.3 2.50039V2.50039ZM91.2 8.60039C90.9 8.90039 90.5 9.20039 90 9.20039C89.5 9.20039 89 8.90039 88.8 8.60039V4.20039L89.8 3.50039L91.2 4.80039V8.60039ZM91.2 11.6004C91 11.4004 90.5 11.1004 90 11.1004C89.5 11.1004 89 11.4004 88.8 11.6004V9.00039C89 9.20039 89.5 9.50039 90 9.50039C90.5 9.50039 91 9.20039 91.2 9.00039V11.6004ZM91.2 16.3004C91.2 17.1004 90.7 17.9004 89.6 17.9004H88.8V12.0004C89 11.8004 89.5 11.5004 90 11.5004C90.5 11.5004 90.9 11.8004 91.2 12.0004V16.3004V16.3004ZM104.9 9.20039L101.7 6.90039L96.8 9.70039V16.2004L95.8 17.0004L95.9 17.2004L96.7 16.6004L99.9 19.0004L104.9 16.0004V9.20039V9.20039ZM99.5 15.5004V8.30039L102 10.1004V17.2004L99.5 15.5004V15.5004ZM114.4 7.10039H114.2C113.9 7.30039 113.6 7.50039 113.3 7.50039C112.9 7.50039 112.4 7.30039 112.2 7.00039H112L110.3 8.90039L108.6 7.00039L105.6 9.00039L105.7 9.20039L106.5 8.70039L107.5 9.80039V16.1004L106.2 17.1004L106.4 17.3004L107 16.8004L109.4 18.8004L112.5 16.7004L112.4 16.5004L111.5 17.0004L110.3 16.0004V9.00039C110.8 9.50039 111.4 10.0004 112.1 10.0004C113.5 10.1004 114.3 8.70039 114.4 7.10039V7.10039ZM126.4 16.7004L123 19.0004L118.4 12.0004L121.7 6.90039H121.9C122.3 7.30039 122.9 7.70039 123.6 7.70039C124.3 7.70039 124.8 7.30039 125.1 6.90039H125.3C125.2 8.90039 123.8 10.1004 122.8 10.1004C121.8 10.1004 121.3 9.60039 120.7 9.30039L120.4 9.80039L125.4 17.2004L126.4 16.6004V16.7004V16.7004ZM115.4 16.2004L114.1 17.2004L114.3 17.4004L114.9 16.9004L117.1 18.9004L120.1 16.9004L119.9 16.7004L119.1 17.2004L118.1 16.2004V0.800391H118L114.4 3.20039V3.40039C114.8 3.60039 115.4 3.70039 115.4 4.90039V16.2004V16.2004ZM143 2.90039C143 0.900391 141.1 0.400391 139.6 0.400391V0.700391C140.5 0.700391 141.2 1.00039 141.2 1.70039C141.2 2.10039 140.9 2.70039 140 2.70039C139.3 2.70039 137.8 2.30039 136.7 1.90039C135.4 1.50039 134.2 1.10039 133.2 1.10039C131.2 1.10039 129.8 2.60039 129.8 4.30039C129.8 5.80039 130.9 6.30039 131.3 6.50039L131.4 6.30039C131.1 6.10039 130.8 5.90039 130.8 5.30039C130.8 4.90039 131.2 4.20039 132.2 4.20039C133.1 4.20039 134.3 4.60039 135.9 5.10039C137.3 5.50039 138.8 5.80039 139.6 5.90039V9.00039L138.1 10.3004V10.4004L139.6 11.7004V16.0004C138.8 16.5004 137.9 16.6004 137.1 16.6004C135.6 16.6004 134.3 16.2004 133.2 15.0004L137.3 13.0004V6.00039L132.3 8.20039C132.8 6.90039 133.9 6.00039 134.9 5.30039L134.8 5.10039C131.8 5.90039 129.1 8.60039 129.1 12.0004C129.1 16.0004 132.4 19.0004 136.1 19.0004C140.1 19.0004 142.7 15.8004 142.7 12.5004H142.5C141.9 13.8004 141 15.0004 139.9 15.6004V11.5004L141.5 10.2004V10.1004L140 8.80039V5.80039C141.5 5.80039 143 4.80039 143 2.90039V2.90039ZM134.3 13.9004L133.1 14.5004C132.4 13.6004 132 12.4004 132 10.7004C132 10.0004 132.1 9.20039 132.3 8.60039L134.4 7.70039L134.3 13.9004V13.9004ZM146.5 1.90039H146.4L144.4 3.60039V3.70039L146.1 5.60039H146.3L148.3 3.90039V3.80039L146.5 1.90039V1.90039ZM149.5 16.7004L148.7 17.2004L147.7 16.2004V9.30039L148.7 8.60039L148.5 8.40039L147.8 9.00039L146 6.90039L143.1 8.90039L143.3 9.20039L144 8.70039L144.9 9.80039V16.3004L143.6 17.3004L143.7 17.5004L144.4 17.0004L146.6 19.0004L149.6 17.0004L149.5 16.7004V16.7004ZM166.2 16.6004L165.5 17.1004L164.4 16.1004V9.30039L165.4 8.50039L165.2 8.30039L164.4 9.00039L162.1 6.90039L159.1 9.00039L156.8 6.90039L154 9.00039L152.2 6.90039L149.3 8.90039L149.4 9.20039L150.1 8.70039L151.1 9.80039V16.3004L150.3 17.1004L152.6 19.0004L154.8 17.0004L153.9 16.1004V9.30039L154.8 8.70039L156.3 10.1004V16.1004L155.5 16.9004L157.8 18.8004L160 16.8004L159.1 15.9004V9.30039L159.9 8.80039L161.5 10.2004V16.2004L160.8 16.9004L163.1 19.0004L166.2 16.9004V16.6004V16.6004ZM174.9 15.1004L172.4 17.0004L169.9 15.0004V13.8004L174.6 10.6004V10.5004L172.2 6.90039L167 9.70039V16.5004L170.5 19.0004L175 15.4004L174.9 15.1004V15.1004ZM169.9 13.4004V8.50039L170.1 8.40039L172.3 11.9004L169.9 13.4004V13.4004ZM184 12.5004L182.1 11.0004C183.4 9.90039 183.9 8.40039 183.9 7.40039V6.80039H183.7C183.5 7.30039 183.1 7.80039 182.3 7.80039C181.5 7.80039 181 7.40039 180.5 6.80039L176 9.30039V12.9004L177.7 14.2004C176 15.7004 175.7 16.7004 175.7 17.5004C175.7 18.5004 176.2 19.2004 177 19.5004L177.1 19.3004C176.9 19.1004 176.7 19.0004 176.7 18.5004C176.7 18.2004 177.1 17.7004 177.9 17.7004C178.9 17.7004 179.5 18.4004 179.8 18.7004L184.1 16.1004V12.5004H184V12.5004ZM182.9 9.50039C182.2 10.7004 180.7 11.9004 179.8 12.5004L178.7 11.6004V8.10039C179.1 9.10039 180.2 9.90039 181.3 9.90039C182 9.90039 182.4 9.80039 182.9 9.50039V9.50039ZM181.2 17.5004C180.7 16.4004 179.5 15.6004 178.3 15.6004C178 15.6004 177.2 15.6004 176.4 16.1004C176.9 15.3004 178.2 13.9004 179.9 12.9004L181.1 13.9004L181.2 17.5004V17.5004Z" fill="black"/>
</g>
<defs>
<clipPath id="clip0_230_302">
<rect width="184" height="25" fill="white"/>
</clipPath>
</defs>
</svg>
