<svg width="25" height="25" viewBox="0 0 25 25" fill="none" xmlns="http://www.w3.org/2000/svg">
<path d="M21.9883 24.9965H3.99922C3.60223 25.0096 3.20684 24.9402 2.83804 24.7927C2.46924 24.6452 2.13507 24.4227 1.85665 24.1394C1.57551 23.863 1.35432 23.5316 1.20687 23.1659C1.05942 22.8003 0.988869 22.4081 0.999616 22.014V3.99922C0.986486 3.60223 1.05588 3.20684 1.20339 2.83804C1.35091 2.46924 1.57335 2.13507 1.85665 1.85665C2.13507 1.57335 2.46924 1.35091 2.83804 1.20339C3.20684 1.05588 3.60223 0.986486 3.99922 0.999616H21.9969C22.3939 0.986486 22.7893 1.05588 23.1581 1.20339C23.5269 1.35091 23.861 1.57335 24.1394 1.85665C24.4227 2.13507 24.6452 2.46924 24.7927 2.83804C24.9402 3.20684 25.0096 3.60223 24.9965 3.99922V21.9969C24.992 22.7925 24.6733 23.5541 24.1099 24.1159C23.5465 24.6777 22.7839 24.9942 21.9883 24.9965V24.9965ZM12.561 20.0343C14.6491 20.037 16.6797 19.3501 18.3373 18.0802C18.3948 18.0426 18.4426 17.992 18.4769 17.9324C18.5111 17.8728 18.5309 17.806 18.5345 17.7374C18.5386 17.6797 18.53 17.6218 18.5092 17.5678C18.4885 17.5138 18.4561 17.4651 18.4144 17.425C18.3727 17.3849 18.3226 17.3545 18.2679 17.3359C18.2131 17.3173 18.1549 17.311 18.0974 17.3175L17.7374 17.4203C16.133 18.1901 14.3748 18.5857 12.5952 18.5773C10.4181 18.4286 8.31896 17.7071 6.51032 16.4862L6.19322 16.3662C5.97039 16.3662 5.85898 16.4776 5.85041 16.709C5.85306 16.765 5.86739 16.8199 5.89248 16.8701C5.91757 16.9203 5.95287 16.9646 5.9961 17.0004C7.71664 18.8031 10.0562 19.8871 12.5438 20.0343H12.561ZM11.0954 16.1091C11.6692 16.1206 12.2387 16.0069 12.7641 15.776C13.2895 15.5451 13.7583 15.2026 14.1379 14.7721C14.2645 15.0342 14.4324 15.2744 14.635 15.4834C14.9949 15.852 15.2435 16.0319 15.4063 16.0319C15.5228 16.0169 15.6327 15.9694 15.7234 15.8948C15.9327 15.7345 16.1329 15.5629 16.3233 15.3806L16.9232 14.8492C16.975 14.8196 17.0195 14.7789 17.0536 14.73C17.0877 14.6811 17.1105 14.6252 17.1204 14.5664C17.1224 14.4812 17.0917 14.3984 17.0347 14.335C16.9913 14.2981 16.9637 14.246 16.9575 14.1893C16.8103 13.9835 16.6758 13.7688 16.5547 13.5465C16.3557 12.1993 16.2926 10.8355 16.3662 9.47565C16.3662 6.97312 15.1235 5.72186 12.621 5.72186C10.427 5.84184 9.14141 6.776 8.71289 8.54149C8.71289 8.79003 8.81574 8.91001 9.00428 8.91001L10.7183 9.14141C10.8733 9.05839 10.9989 8.92973 11.0783 8.77288C11.1489 8.45323 11.3269 8.16742 11.5826 7.96312C11.8384 7.75881 12.1565 7.64836 12.4838 7.65017C12.6361 7.63094 12.7908 7.64389 12.9377 7.68817C13.0847 7.73246 13.2208 7.8071 13.3371 7.90726C13.4534 8.00742 13.5474 8.13088 13.613 8.26966C13.6786 8.40843 13.7144 8.55943 13.718 8.71289V9.74133C10.1584 9.74133 8.37865 10.9269 8.37865 13.298C8.34996 13.6868 8.40556 14.0772 8.54164 14.4426C8.67772 14.8079 8.89107 15.1396 9.16712 15.4149C9.69215 15.8818 10.376 16.1302 11.0783 16.1091H11.0954ZM12.141 14.3179C11.9802 14.31 11.8228 14.2686 11.6789 14.1963C11.5349 14.1241 11.4077 14.0226 11.3052 13.8984C11.2028 13.7742 11.1274 13.6299 11.0839 13.4749C11.0404 13.3199 11.0297 13.1574 11.0526 12.998C11.0526 11.7811 11.9096 11.1726 13.7608 11.1726V11.7039C13.7828 12.0092 13.7828 12.3157 13.7608 12.621C13.7053 12.9642 13.5831 13.2932 13.4009 13.5894C13.302 13.7696 13.1648 13.9259 12.9989 14.0473C12.8331 14.1688 12.6426 14.2523 12.441 14.2922L12.141 14.3179ZM18.9287 18.8259C19.3229 18.8259 19.6486 18.4145 19.9229 17.6174C20.0566 17.2549 20.129 16.8725 20.1371 16.4862C20.1371 16.0576 19.76 15.8348 19.0144 15.8348C17.7888 15.9291 17.1546 16.1948 17.1032 16.6918C17.1032 16.889 17.2061 16.9832 17.4203 16.9832L18.6373 16.8461C18.9201 16.8461 19.0658 16.9147 19.0658 16.9832C19.0541 17.23 19.0019 17.4732 18.9116 17.7031C18.8173 17.986 18.7402 18.1917 18.6973 18.3116C18.6583 18.3898 18.6322 18.4737 18.6202 18.5602C18.6209 18.5994 18.63 18.638 18.647 18.6733C18.6639 18.7087 18.6882 18.74 18.7182 18.7652C18.7483 18.7904 18.7834 18.8088 18.8212 18.8193C18.859 18.8297 18.8985 18.832 18.9373 18.8259H18.9287Z" fill="black"/>
</svg>
