<svg width="25" height="24" viewBox="0 0 25 24" fill="none" xmlns="http://www.w3.org/2000/svg">
<path fill-rule="evenodd" clip-rule="evenodd" d="M15.0487 12.653C15.2219 12.8261 15.4568 12.9234 15.7017 12.9234C15.9466 12.9234 16.1815 12.8261 16.3547 12.653C16.5279 12.4799 16.6252 12.2451 16.6252 12.0003V7.38396H18.7307L21.9812 17.9535C22.1332 18.4395 22.1681 18.9546 22.0831 19.4568C21.998 19.9589 21.7954 20.4338 21.4918 20.8428C21.1967 21.2494 20.8093 21.5802 20.3614 21.8081C19.9135 22.036 19.4179 22.1544 18.9154 22.1536H5.06358C4.57428 22.15 4.09218 22.0355 3.65361 21.8186C3.21504 21.6017 2.83146 21.2881 2.5318 20.9015C2.23213 20.5148 2.0242 20.0652 1.92369 19.5865C1.82317 19.1078 1.83269 18.6125 1.95154 18.1381L4.62032 7.38396H7.39062V12.0003C7.39062 12.2451 7.48792 12.4799 7.6611 12.653C7.83428 12.8261 8.06916 12.9234 8.31408 12.9234C8.55899 12.9234 8.79388 12.8261 8.96706 12.653C9.14024 12.4799 9.23753 12.2451 9.23753 12.0003V7.38396H14.7783V12.0003C14.7783 12.2451 14.8755 12.4799 15.0487 12.653ZM16.6252 5.53776V4.6155C16.6252 3.39139 16.1387 2.21742 15.2728 1.35185C14.4069 0.486274 13.2325 0 12.0079 0C10.7833 0 9.6089 0.486274 8.74299 1.35185C7.87709 2.21742 7.39062 3.39139 7.39062 4.6155V5.53776H3.92773C3.71678 5.53162 3.51009 5.59789 3.34207 5.72553C3.17405 5.85318 3.05484 6.0345 3.00428 6.23932L0.196977 17.695C0.00713193 18.4416 -0.00962873 19.2217 0.147973 19.9757C0.305575 20.7298 0.633377 21.4379 1.10637 22.046C1.57937 22.6542 2.18507 23.1463 2.87727 23.4849C3.56947 23.8235 4.32989 23.9996 5.10052 23.9998H18.9523C19.749 24.0076 20.536 23.8248 21.2477 23.4667C21.9593 23.1086 22.5749 22.5856 23.0432 21.9412C23.5193 21.2996 23.8369 20.5546 23.9701 19.7669C24.1033 18.9792 24.0483 18.1712 23.8097 17.4088L20.319 6.18393C20.2581 5.98942 20.1344 5.82055 19.9674 5.70366C19.8003 5.58677 19.5993 5.52844 19.3956 5.53776H16.6252ZM9.23753 5.53776H14.7783V4.6155C14.7783 3.88104 14.4864 3.17665 13.9668 2.65731C13.4473 2.13796 12.7426 1.8462 12.0079 1.8462C11.2731 1.8462 10.5685 2.13796 10.049 2.65731C9.52941 3.17665 9.23753 3.88104 9.23753 4.6155V5.53776Z" fill="black"/>
</svg>
