<svg width="24" height="24" viewBox="0 0 24 24" fill="none" xmlns="http://www.w3.org/2000/svg">
<g clip-path="url(#clip0_224_301)">
<path d="M23.4987 0.50175C22.8297 -0.16725 21.7482 -0.16725 21.0792 0.50175L12.0012 9.57975L2.9232 0.50175C2.2542 -0.16725 1.1727 -0.16725 0.503703 0.50175C-0.165297 1.17075 -0.165297 2.25225 0.503703 2.92125L9.5817 11.9992L0.503703 21.0773C-0.165297 21.7463 -0.165297 22.8277 0.503703 23.4975C1.1727 24.1672 2.2542 24.1665 2.9232 23.4975L12.0012 14.4188L21.0792 23.4975C21.7482 24.1665 22.8297 24.1665 23.4987 23.4975C24.1677 22.8285 24.1677 21.747 23.4987 21.0773L14.4207 11.9992L23.4987 2.92125C24.1677 2.2695 24.1677 1.17075 23.4987 0.50175V0.50175Z" fill="black"/>
</g>
<defs>
<clipPath id="clip0_224_301">
<rect width="24" height="24" fill="white"/>
</clipPath>
</defs>
</svg>
