<svg width="24" height="24" viewBox="0 0 24 24" fill="none" xmlns="http://www.w3.org/2000/svg">
<path d="M23.9334 8.17348C23.8376 7.54916 23.1422 7.21297 22.6626 6.90081C21.7996 6.32452 20.9604 5.77223 20.0972 5.19593C18.0592 3.82722 15.9973 2.45851 13.9593 1.08981C13.4797 0.777647 13.0002 0.441474 12.5206 0.129312C12.185 -0.110812 11.7294 -0.110812 11.3698 0.129312C10.0031 1.04178 8.61248 1.97827 7.24581 2.89074L1.20376 6.92482C0.676272 7.261 -0.0190444 7.59717 -0.0430208 8.31754C-0.0669972 9.10996 -0.0430208 9.92638 -0.0430208 10.7188V14.5608C-0.0430208 15.2572 -0.18688 16.0736 0.460484 16.5057C1.99497 17.5623 3.55344 18.5708 5.11192 19.6033C7.03003 20.876 8.94815 22.1727 10.8663 23.4453C11.3937 23.8056 11.9212 24.1897 12.5686 23.7575C13.1201 23.3973 13.6476 23.0372 14.199 22.6769C16.3329 21.2603 18.4668 19.8195 20.6008 18.4028L22.9744 16.818C23.1182 16.7219 23.2861 16.6259 23.43 16.5057C23.7656 16.2656 23.9094 15.9295 23.9094 15.5213V8.91786C23.9334 8.65372 23.9574 8.4136 23.9334 8.17348C23.9334 8.2215 23.9334 8.14946 23.9334 8.17348ZM12.9762 2.91475L21.0562 8.31754L17.4598 10.7428L12.9762 7.74125V2.91475ZM10.9142 2.91475V7.71724L6.4546 10.7188L2.83415 8.31754L10.9142 2.91475ZM2.01896 10.2385L4.58444 11.9674L2.01896 13.6963V10.2385ZM10.9142 21.0201L2.83415 15.6173L6.43063 13.1921L10.8902 16.1936V21.0201H10.9142ZM11.9452 14.4167L8.30079 11.9674L11.9452 9.51817L15.5897 11.9674L11.9452 14.4167ZM12.9762 21.0201V16.2176L17.4358 13.2161L21.0322 15.6413L12.9762 21.0201ZM21.8714 13.6963L19.306 11.9674L21.8954 10.2385L21.8714 13.6963Z" fill="black"/>
</svg>
