<svg width="21" height="24" viewBox="0 0 21 24" fill="none" xmlns="http://www.w3.org/2000/svg">
<path d="M2.69022 1.2096C2.90004 0.84227 3.20323 0.536927 3.56907 0.324506C3.9349 0.112086 4.35038 0.00013645 4.77342 0H17.095C17.5181 0.00013645 17.9335 0.112086 18.2994 0.324506C18.6652 0.536927 18.9684 0.84227 19.1782 1.2096L20.5498 3.6096C21.3274 4.9704 20.6086 6.6132 19.2418 7.074C19.2478 7.1724 19.2466 7.2708 19.2394 7.3704L18.211 21.7704C18.1679 22.3759 17.897 22.9426 17.4528 23.3563C17.0085 23.77 16.4241 24 15.817 24H6.05022C5.44319 24 4.8587 23.77 4.41448 23.3563C3.97026 22.9426 3.69932 22.3759 3.65622 21.7704L2.62782 7.3704C2.62058 7.27177 2.61938 7.17278 2.62422 7.074C1.25862 6.6132 0.539818 4.9704 1.31622 3.6096L2.68902 1.2096H2.69022ZM5.02302 7.2L5.27982 10.8H16.5886L16.8454 7.2H5.02302ZM5.79462 18L6.05142 21.6H15.817L16.0738 18H5.79462ZM18.4666 4.8L17.095 2.4H4.77342L3.40182 4.8H18.4666Z" fill="black"/>
</svg>
