<svg width="25" height="24" viewBox="0 0 25 24" fill="none" xmlns="http://www.w3.org/2000/svg">
<path d="M4.69315 1.2096C4.90297 0.84227 5.20616 0.536927 5.572 0.324506C5.93783 0.112086 6.35331 0.00013645 6.77635 0H19.0979C19.521 0.00013645 19.9365 0.112086 20.3023 0.324506C20.6681 0.536927 20.9713 0.84227 21.1811 1.2096L22.5527 3.6096C23.3303 4.9704 22.6115 6.6132 21.2447 7.074C21.2507 7.1724 21.2495 7.2708 21.2423 7.3704L20.2139 21.7704C20.1708 22.3759 19.8999 22.9426 19.4557 23.3563C19.0115 23.77 18.427 24 17.8199 24H8.05315C7.44612 24 6.86163 23.77 6.41741 23.3563C5.97319 22.9426 5.70225 22.3759 5.65915 21.7704L4.63075 7.3704C4.62351 7.27177 4.62231 7.17278 4.62715 7.074C3.26155 6.6132 2.54275 4.9704 3.31915 3.6096L4.69195 1.2096H4.69315ZM7.02595 7.2L7.28275 10.8H18.5915L18.8483 7.2H7.02595ZM7.79755 18L8.05435 21.6H17.8199L18.0767 18H7.79755ZM20.4695 4.8L19.0979 2.4H6.77635L5.40475 4.8H20.4695Z" fill="black"/>
</svg>
