<svg width="20" height="24" viewBox="0 0 20 24" fill="none" xmlns="http://www.w3.org/2000/svg">
<path d="M14.4447 4.3592C13.8924 4.3592 13.4447 4.80692 13.4447 5.3592C13.4447 5.91149 13.8924 6.3592 14.4447 6.3592V4.3592ZM18.2382 21.8786L18.8874 22.6392L18.8876 22.6391L18.2382 21.8786ZM1.76221 21.8786L1.11285 22.6391L1.11296 22.6392L1.76221 21.8786ZM1.76221 5.91489L2.4115 6.67542L2.41151 6.67542L1.76221 5.91489ZM5.55577 6.3592C6.10806 6.3592 6.55577 5.91149 6.55577 5.3592C6.55577 4.80692 6.10806 4.3592 5.55577 4.3592V6.3592ZM8.88911 0.564453H2.22244V2.56445H8.88911V0.564453ZM2.22244 0.564453C1.21065 0.564453 0.111328 1.29443 0.111328 2.51308H2.11133C2.11133 2.54322 2.10362 2.56977 2.09471 2.58775C2.08655 2.60422 2.08058 2.60752 2.08607 2.60283C2.09883 2.59193 2.14391 2.56445 2.22244 2.56445V0.564453ZM0.111328 2.51308V4.41031H2.11133V2.51308H0.111328ZM0.111328 4.41031C0.111328 5.62895 1.21065 6.35892 2.22244 6.35892V4.35892C2.14391 4.35892 2.09883 4.33144 2.08607 4.32054C2.08057 4.31585 2.08655 4.31915 2.09471 4.33562C2.10362 4.3536 2.11133 4.38016 2.11133 4.41031H0.111328ZM2.22244 6.35892H8.88911V4.35892H2.22244V6.35892ZM8.88911 6.35892C9.90089 6.35892 11.0002 5.62895 11.0002 4.41031H9.00022C9.00022 4.38016 9.00793 4.3536 9.01684 4.33562C9.025 4.31915 9.03097 4.31585 9.02548 4.32054C9.01272 4.33144 8.96764 4.35892 8.88911 4.35892V6.35892ZM11.0002 4.41031V2.51308H9.00022V4.41031H11.0002ZM11.0002 2.51308C11.0002 1.29443 9.9009 0.564453 8.88911 0.564453V2.56445C8.96764 2.56445 9.01271 2.59193 9.02547 2.60283C9.03097 2.60752 9.02499 2.60422 9.01684 2.58775C9.00793 2.56977 9.00022 2.54322 9.00022 2.51308H11.0002ZM14.4447 6.3592H16.6669V4.3592H14.4447V6.3592ZM16.6669 6.3592C17.0376 6.3592 17.3674 6.48633 17.5889 6.67544L18.8875 5.15434C18.2755 4.63185 17.4749 4.3592 16.6669 4.3592V6.3592ZM17.5889 6.67544C17.8056 6.86036 17.8891 7.07408 17.8891 7.25643H19.8891C19.8891 6.43242 19.5044 5.68102 18.8875 5.15434L17.5889 6.67544ZM17.8891 7.25643V20.537H19.8891V7.25643H17.8891ZM17.8891 20.537C17.8891 20.7194 17.8056 20.9331 17.5889 21.1181L18.8876 22.6391C19.5044 22.1124 19.8891 21.3611 19.8891 20.537H17.8891ZM17.589 21.118C17.3674 21.3072 17.0375 21.4343 16.6669 21.4343V23.4343C17.4749 23.4343 18.2755 23.1616 18.8874 22.6392L17.589 21.118ZM16.6669 21.4343H3.33355V23.4343H16.6669V21.4343ZM3.33355 21.4343C2.96289 21.4343 2.63301 21.3072 2.41146 21.1181L1.11296 22.6392C1.72489 23.1616 2.52548 23.4343 3.33355 23.4343V21.4343ZM2.41156 21.1181C2.19487 20.9331 2.11133 20.7194 2.11133 20.537H0.111328C0.111328 21.3611 0.496032 22.1124 1.11285 22.6391L2.41156 21.1181ZM2.11133 20.537V7.25643H0.111328V20.537H2.11133ZM2.11133 7.25643C2.11133 7.07409 2.19489 6.86036 2.4115 6.67542L1.11291 5.15435C0.496014 5.68102 0.111328 6.43241 0.111328 7.25643H2.11133ZM2.41151 6.67542C2.63298 6.48634 2.9628 6.3592 3.33355 6.3592V4.3592C2.52557 4.3592 1.72492 4.63184 1.1129 5.15436L2.41151 6.67542ZM3.33355 6.3592H5.55577V4.3592H3.33355V6.3592Z" fill="black"/>
</svg>
