<svg width="24" height="19" viewBox="0 0 24 19" fill="none" xmlns="http://www.w3.org/2000/svg">
<path d="M20.3272 1.54773C18.7483 0.811989 17.0842 0.294274 15.377 0C15.1442 0.426223 14.9307 0.862653 14.7423 1.30929C12.9258 1.03518 11.0745 1.03518 9.25689 1.30929C9.06369 0.862653 8.85138 0.426225 8.61858 0.00504287C6.90529 0.299439 5.24118 0.817031 3.66227 1.5529C0.523634 6.2571 -0.323382 10.8497 0.102536 15.3711C1.9394 16.7463 3.99341 17.7916 6.17701 18.4615C6.66773 17.7916 7.10325 17.0763 7.47518 16.3301C6.76611 16.0612 6.07866 15.7314 5.42477 15.3355C5.59874 15.2088 5.7667 15.0819 5.92987 14.9397C9.77639 16.7768 14.2228 16.7768 18.0704 14.9397C18.2336 15.0768 18.4016 15.2088 18.5696 15.3355C17.9169 15.7264 17.2282 16.0612 16.5203 16.3301C16.8971 17.0763 17.3278 17.7867 17.8173 18.4564C20.0009 17.7867 22.055 16.7413 23.8918 15.3661H23.8978C24.3969 10.129 23.046 5.5821 20.3272 1.54773ZM8.01268 12.5892C6.82849 12.5892 5.85309 11.488 5.85309 10.1483C5.85309 8.80866 6.8045 7.70744 8.01268 7.70744C9.22089 7.70744 10.1903 8.80866 10.1711 10.1483C10.1711 11.488 9.21489 12.5892 8.01268 12.5892ZM15.9841 12.5892C14.7999 12.5892 13.8245 11.488 13.8245 10.1483C13.8245 8.80866 14.7807 7.70744 15.9841 7.70744C17.1862 7.70744 18.1616 8.80866 18.1424 10.1483C18.1424 11.488 17.1862 12.5892 15.9841 12.5892Z" fill="black"/>
</svg>
