<svg width="14" height="24" viewBox="0 0 14 24" fill="none" xmlns="http://www.w3.org/2000/svg">
<path d="M13.6412 16.1677C13.6412 11.9077 10.152 11.4222 7.34862 11.0326C4.29323 10.608 2.56431 10.2388 2.56431 7.608C2.56431 5.4 4.87846 4.61538 6.86031 4.61538C7.84795 4.58348 8.82903 4.7868 9.72266 5.20857C10.6163 5.63035 11.3969 6.2585 12 7.04123L13.4363 5.88185C12.7904 5.05123 11.9867 4.35648 11.0714 3.83751C10.156 3.31855 9.14718 2.98561 8.10277 2.85785V0H6.25662V2.78954C2.91969 2.99262 0.718154 4.87569 0.718154 7.608C0.718154 11.9742 4.25354 12.4662 7.09385 12.8603C10.0966 13.2785 11.7951 13.6375 11.7951 16.1677C11.7951 18.9665 8.90308 19.3846 7.17969 19.3846C4.01354 19.3846 2.67692 18.4948 1.43631 16.9588L0 18.1182C0.731779 19.0825 1.67825 19.863 2.76431 20.3976C3.85036 20.9323 5.0461 21.2065 6.25662 21.1985V24H8.10277V21.1892C11.5422 20.9086 13.6412 19.0412 13.6412 16.1677V16.1677Z" fill="black"/>
</svg>
