<svg width="24" height="24" viewBox="0 0 24 24" fill="none" xmlns="http://www.w3.org/2000/svg">
<path d="M12.0021 0C5.37736 0 0.00585938 5.3715 0.00585938 11.9977C0.00585938 17.298 3.44236 21.795 8.21086 23.382C8.81086 23.4915 8.99986 23.136 8.99986 22.818C8.99986 22.533 9.00586 21.7365 8.99986 20.7352C5.66311 21.4605 4.97161 19.155 4.97161 19.155C4.42636 17.769 3.64036 17.4 3.64036 17.4C2.55136 16.656 3.72211 16.6702 3.72211 16.6702C4.92586 16.755 5.56036 17.907 5.56036 17.907C6.63061 19.7392 8.36761 19.2097 9.05086 18.9037C9.16036 18.1282 9.47086 17.5995 9.81361 17.2995C7.14961 16.9965 4.34911 15.9675 4.34911 11.37C4.34911 10.0597 4.81636 8.9895 5.58361 8.151C5.45986 7.848 5.04736 6.62775 5.70136 4.9755C5.70136 4.9755 6.70861 4.653 8.99986 6.20625C9.95686 5.94 10.9836 5.80725 12.0036 5.80275C13.0229 5.80725 14.0489 5.94 15.0074 6.20625C17.2986 4.65375 18.3044 4.9755 18.3044 4.9755C18.9584 6.62775 18.5466 7.848 18.4236 8.151C19.1909 8.9895 19.6566 10.0597 19.6566 11.37C19.6566 15.9795 16.8516 16.9935 14.1786 17.2897C14.6091 17.661 14.9999 18.381 14.9999 19.5C14.9999 21 14.9999 22.4265 14.9999 22.821C14.9999 23.142 15.1934 23.4967 15.8024 23.3805C20.5664 21.7912 23.9999 17.2965 23.9999 11.9977C23.9999 5.3715 18.6284 0 12.0021 0Z" fill="black"/>
</svg>
