<svg width="24" height="24" viewBox="0 0 24 24" fill="none" xmlns="http://www.w3.org/2000/svg">
<path d="M20.4 20.4H16.8V14.04C16.8 13.5626 16.6104 13.1048 16.2728 12.7672C15.9352 12.4296 15.4774 12.24 15 12.24C14.5226 12.24 14.0648 12.4296 13.7272 12.7672C13.3896 13.1048 13.2 13.5626 13.2 14.04V20.4H9.6V9.6H13.2V11.04C13.8 10.032 15.108 9.36 16.2 9.36C17.3139 9.36 18.3822 9.8025 19.1699 10.5902C19.9575 11.3778 20.4 12.4461 20.4 13.56V20.4ZM5.4 7.572C4.2 7.572 3.228 6.6 3.228 5.4C3.228 4.82395 3.45684 4.27149 3.86416 3.86416C4.27149 3.45684 4.82395 3.228 5.4 3.228C6.6 3.228 7.572 4.2 7.572 5.4C7.572 5.97605 7.34317 6.52851 6.93584 6.93584C6.52851 7.34317 5.97605 7.572 5.4 7.572V7.572ZM7.2 20.4H3.6V9.6H7.2V20.4ZM21.6 0H2.4C1.068 0 0 1.068 0 2.4V21.6C0 22.2365 0.252856 22.847 0.702944 23.2971C1.15303 23.7471 1.76348 24 2.4 24H21.6C22.2365 24 22.847 23.7471 23.2971 23.2971C23.7471 22.847 24 22.2365 24 21.6V2.4C24 1.068 22.92 0 21.6 0Z" fill="black"/>
</svg>
