<svg width="24" height="24" viewBox="0 0 24 24" fill="none" xmlns="http://www.w3.org/2000/svg">
<g clip-path="url(#clip0_191_428)">
<path d="M2.84592 6.35958C2.87578 6.06497 2.76347 5.77369 2.54344 5.57545L0.302484 2.87592V2.47266H7.26047L12.6387 14.2677L17.367 2.47266L24 2.4727V2.87592L22.084 4.71291C21.9188 4.83877 21.8369 5.04581 21.8712 5.25066V18.7482C21.8369 18.953 21.9188 19.16 22.084 19.2859L23.9551 21.1229V21.5261H14.5435V21.1229L16.4818 19.241C16.6723 19.0507 16.6723 18.9946 16.6723 18.7035V7.79334L11.283 21.4813H10.5547L4.28006 7.79334V16.9672C4.22784 17.3529 4.35591 17.7412 4.62741 18.0201L7.14853 21.078V21.4813H0V21.078L2.52113 18.0201C2.79061 17.7407 2.91117 17.3497 2.84592 16.9672V6.35958V6.35958Z" fill="black"/>
</g>
<defs>
<clipPath id="clip0_191_428">
<rect width="24" height="24" fill="white"/>
</clipPath>
</defs>
</svg>
