<svg width="23" height="24" viewBox="0 0 23 24" fill="none" xmlns="http://www.w3.org/2000/svg">
<path d="M9 0.417936C9.14642 0.595855 9.23612 0.813594 9.25751 1.04302C9.27891 1.27245 9.231 1.50302 9.12 1.70494C8.25279 3.29715 7.7999 5.08188 7.803 6.89494C7.803 12.9264 12.72 17.8104 18.78 17.8104C19.5705 17.8104 20.34 17.7279 21.0795 17.5704C21.3062 17.5213 21.5423 17.5401 21.7584 17.6244C21.9745 17.7087 22.1609 17.8548 22.2945 18.0444C22.4355 18.2416 22.5074 18.4798 22.499 18.7221C22.4905 18.9643 22.4023 19.197 22.248 19.3839C21.0715 20.8291 19.5874 21.9935 17.9038 22.7922C16.2201 23.5909 14.3795 24.0039 12.516 24.0009C5.601 24.0009 0 18.4299 0 11.5659C0 6.39994 3.171 1.96894 7.686 0.090936C7.91091 -0.00411619 8.16058 -0.0236252 8.39753 0.0353395C8.63447 0.0943043 8.84588 0.228559 9 0.417936V0.417936Z" fill="black"/>
</svg>
