<svg width="25" height="25" viewBox="0 0 25 25" fill="none" xmlns="http://www.w3.org/2000/svg">
<path fill-rule="evenodd" clip-rule="evenodd" d="M24.1626 1.4151C24.0661 1.18189 23.9236 0.963225 23.7351 0.772994C23.7308 0.768622 23.7264 0.764269 23.7221 0.759937C23.3607 0.401838 22.8634 0.180664 22.3144 0.180664H22.314H2.31299C1.20842 0.180664 0.312988 1.07609 0.312988 2.18066C0.312988 3.28523 1.20842 4.18066 2.31299 4.18066H17.486L0.898775 20.7679C0.117726 21.5489 0.117726 22.8152 0.898775 23.5963C1.67982 24.3773 2.94615 24.3773 3.7272 23.5963L20.3144 7.00909V22.1821C20.3144 23.2866 21.2098 24.1821 22.3144 24.1821C23.419 24.1821 24.3144 23.2866 24.3144 22.1821V2.18205V2.18066C24.3144 2.17758 24.3144 2.17451 24.3144 2.17143C24.3132 1.90361 24.2593 1.64823 24.1626 1.4151Z" fill="white"/>
</svg>
