<svg width="25" height="25" viewBox="0 0 25 25" fill="none" xmlns="http://www.w3.org/2000/svg">
<path d="M24.055 0.223825C24.1608 0.329787 24.2331 0.464497 24.263 0.611221C24.2929 0.757945 24.279 0.910217 24.2231 1.04912L15.3298 23.2817C15.2514 23.4775 15.1205 23.6478 14.9516 23.7741C14.7826 23.9003 14.5821 23.9774 14.3721 23.997C14.1621 24.0166 13.9508 23.9779 13.7614 23.8851C13.572 23.7923 13.4119 23.6491 13.2986 23.4712L8.44162 15.8372L0.807636 10.9802C0.629308 10.8671 0.485697 10.7069 0.39265 10.5173C0.299603 10.3277 0.260737 10.1161 0.280341 9.90585C0.299945 9.69558 0.377257 9.49481 0.503745 9.3257C0.630234 9.15659 0.800982 9.02571 0.997148 8.94751L23.2297 0.0572375C23.3686 0.00131958 23.5209 -0.0125572 23.6676 0.017331C23.8143 0.0472192 23.949 0.119555 24.055 0.225353V0.223825ZM9.96689 15.3909L14.1866 22.0208L21.4202 3.93766L9.96689 15.3909ZM20.3396 2.85713L2.25649 10.0907L8.88789 14.3089L20.3412 2.85713H20.3396Z" fill="black"/>
</svg>
