<svg width="24" height="24" viewBox="0 0 24 24" fill="none" xmlns="http://www.w3.org/2000/svg">
<path d="M0 0V24H24V0H0ZM10.488 8.272L16.019 11.515L15.333 12.677L9.801 9.434L10.488 8.272V8.272ZM9.032 11.385L15.217 13.124L14.886 14.354L8.682 12.687L9.032 11.385V11.385ZM8.36 14.198L14.858 14.848L14.74 16.128L8.236 15.542L8.36 14.198V14.198ZM8.167 16.667H14.834V18H8.167V16.667ZM17 20H6V13H7V19H16V13H17V20ZM16.148 11.296L12.588 6.077L13.703 5.317L17.262 10.536L16.148 11.296ZM17.504 10.455L16.424 4.231L17.752 4L18.833 10.224L17.504 10.455V10.455Z" fill="black"/>
</svg>
