<svg width="25" height="24" viewBox="0 0 25 24" fill="none" xmlns="http://www.w3.org/2000/svg">
<path d="M12.019 0C5.70732 0 0.530546 4.86 0.0400391 11.0364L6.48396 13.6956C7.02977 13.3236 7.68859 13.1052 8.3991 13.1052C8.46282 13.1052 8.52413 13.1088 8.58785 13.1112L11.454 8.9688V8.91C11.454 6.414 13.4857 4.386 15.9863 4.386C18.4858 4.386 20.5187 6.4164 20.5187 8.9124C20.5187 11.4084 18.4846 13.4376 15.9863 13.4376H15.8817L11.7978 16.3488C11.7978 16.4004 11.8014 16.4544 11.8014 16.5084C11.8014 18.3828 10.2842 19.9044 8.40511 19.9044C6.76768 19.9044 5.38392 18.7308 5.06894 17.1768L0.454806 15.27C1.88305 20.3064 6.51642 24 12.0202 24C18.6589 24 24.04 18.6276 24.04 12C24.04 5.3736 18.6577 0 12.019 0ZM6.09684 17.6004C6.35893 18.1428 6.81217 18.5988 7.41208 18.8496C8.71168 19.3896 10.2109 18.774 10.7507 17.4756C11.0151 16.8456 11.0151 16.1556 10.7555 15.5256C10.497 14.8956 10.0041 14.4048 9.37651 14.1432C8.75135 13.8828 8.08412 13.8936 7.49503 14.1132L9.02065 14.7432C9.97883 15.1428 10.4321 16.2432 10.0305 17.1984C9.63379 18.1548 8.53135 18.6084 7.57317 18.21L6.09684 17.6004V17.6004ZM19.0087 8.9064C19.0087 7.2444 17.6526 5.892 15.9875 5.892C14.3201 5.892 12.9676 7.2444 12.9676 8.9064C12.9676 10.572 14.3201 11.922 15.9875 11.922C17.6538 11.922 19.0075 10.572 19.0075 8.9064H19.0087ZM15.9936 6.636C17.2439 6.636 18.2634 7.65 18.2634 8.9016C18.2634 10.1532 17.2451 11.1672 15.9936 11.1672C14.7384 11.1672 13.7238 10.1532 13.7238 8.9016C13.7238 7.65 14.7396 6.636 15.9936 6.636V6.636Z" fill="black"/>
</svg>
