<svg width="24" height="24" viewBox="0 0 24 24" fill="none" xmlns="http://www.w3.org/2000/svg">
<path fill-rule="evenodd" clip-rule="evenodd" d="M12 0C12.5523 0 13 0.447715 13 1V3C13 3.55228 12.5523 4 12 4C11.4477 4 11 3.55228 11 3V1C11 0.447715 11.4477 0 12 0ZM12 8C9.79086 8 8 9.79086 8 12C8 14.2091 9.79086 16 12 16C14.2091 16 16 14.2091 16 12C16 9.79086 14.2091 8 12 8ZM6 12C6 8.68629 8.68629 6 12 6C15.3137 6 18 8.68629 18 12C18 15.3137 15.3137 18 12 18C8.68629 18 6 15.3137 6 12ZM13 21C13 20.4477 12.5523 20 12 20C11.4477 20 11 20.4477 11 21V23C11 23.5523 11.4477 24 12 24C12.5523 24 13 23.5523 13 23V21ZM3.51262 3.5136C3.90314 3.12307 4.53631 3.12307 4.92683 3.5136L6.34683 4.9336C6.73736 5.32412 6.73736 5.95729 6.34683 6.34781C5.95631 6.73833 5.32314 6.73833 4.93262 6.34781L3.51262 4.92781C3.1221 4.53729 3.1221 3.90412 3.51262 3.5136ZM19.0675 17.6523C18.6769 17.2617 18.0438 17.2617 17.6532 17.6523C17.2627 18.0428 17.2627 18.676 17.6532 19.0665L19.0732 20.4865C19.4638 20.877 20.0969 20.877 20.4875 20.4865C20.878 20.096 20.878 19.4628 20.4875 19.0723L19.0675 17.6523ZM0 12C0 11.4477 0.447715 11 1 11H3C3.55228 11 4 11.4477 4 12C4 12.5523 3.55228 13 3 13H1C0.447715 13 0 12.5523 0 12ZM21 11C20.4477 11 20 11.4477 20 12C20 12.5523 20.4477 13 21 13H23C23.5523 13 24 12.5523 24 12C24 11.4477 23.5523 11 23 11H21ZM6.34683 17.6523C6.73736 18.0428 6.73736 18.676 6.34683 19.0665L4.92683 20.4865C4.53631 20.877 3.90314 20.877 3.51262 20.4865C3.1221 20.096 3.1221 19.4628 3.51262 19.0723L4.93262 17.6523C5.32314 17.2617 5.95631 17.2617 6.34683 17.6523ZM20.4875 4.92781C20.878 4.53729 20.878 3.90412 20.4875 3.5136C20.0969 3.12307 19.4638 3.12307 19.0732 3.5136L17.6532 4.9336C17.2627 5.32412 17.2627 5.95729 17.6532 6.34781C18.0438 6.73833 18.6769 6.73833 19.0675 6.34781L20.4875 4.92781Z" fill="black"/>
</svg>
