<svg width="24" height="23" viewBox="0 0 24 23" fill="none" xmlns="http://www.w3.org/2000/svg">
<path d="M24 2.63529C23.1166 3.09647 22.1644 3.39953 21.1778 3.54447C22.1874 2.84612 22.9675 1.73929 23.3346 0.40847C22.3824 1.06729 21.327 1.52847 20.2141 1.792C19.3078 0.658824 18.0344 0 16.5889 0C13.8929 0 11.6902 2.52988 11.6902 5.65271C11.6902 6.10071 11.7361 6.53553 11.8164 6.944C7.73231 6.70682 4.0956 4.45365 1.67495 1.04094C1.25048 1.87106 1.00956 2.84612 1.00956 3.87388C1.00956 5.83718 1.86998 7.57647 3.20077 8.56471C2.38623 8.56471 1.62906 8.30118 0.963671 7.90588C0.963671 7.90588 0.963671 7.90588 0.963671 7.94541C0.963671 10.6861 2.66157 12.9788 4.91013 13.4927C4.49713 13.6245 4.06119 13.6904 3.61377 13.6904C3.30402 13.6904 2.99426 13.6508 2.69599 13.5849C3.31549 15.8118 5.11664 17.472 7.2849 17.5115C5.60994 19.04 3.48757 19.936 1.17017 19.936C0.780115 19.936 0.390057 19.9096 0 19.8569C2.17973 21.4645 4.77247 22.4 7.54876 22.4C16.5889 22.4 21.5564 13.7826 21.5564 6.31153C21.5564 6.06118 21.5564 5.824 21.5449 5.57365C22.5086 4.78306 23.3346 3.78165 24 2.63529Z" fill="black"/>
</svg>
