<svg width="23" height="25" viewBox="0 0 23 25" fill="none" xmlns="http://www.w3.org/2000/svg">
<path d="M21.9715 20.2578C21.4027 18.9106 20.5774 17.6869 19.5413 16.6548C18.5085 15.6197 17.285 14.7945 15.9383 14.2246C15.9263 14.2186 15.9142 14.2156 15.9021 14.2096C17.7805 12.8528 19.0016 10.6427 19.0016 8.14926C19.0016 4.01861 15.6549 0.671875 11.5243 0.671875C7.39361 0.671875 4.04687 4.01861 4.04687 8.14926C4.04687 10.6427 5.26798 12.8528 7.14637 14.2126C7.13431 14.2186 7.12225 14.2216 7.11019 14.2277C5.75944 14.7975 4.54737 15.6146 3.50717 16.6578C2.47213 17.6907 1.64689 18.9142 1.07702 20.2608C0.51719 21.5792 0.21526 22.9926 0.187575 24.4246C0.186771 24.4568 0.192415 24.4888 0.204176 24.5188C0.215937 24.5488 0.233576 24.5761 0.256055 24.5991C0.278534 24.6222 0.305397 24.6405 0.335061 24.653C0.364726 24.6655 0.396592 24.6719 0.428781 24.6719H2.23783C2.37049 24.6719 2.47602 24.5663 2.47903 24.4367C2.53933 22.1091 3.47401 19.9292 5.12627 18.2769C6.83582 16.5674 9.10617 15.6266 11.5243 15.6266C13.9424 15.6266 16.2127 16.5674 17.9223 18.2769C19.5745 19.9292 20.5092 22.1091 20.5695 24.4367C20.5725 24.5694 20.678 24.6719 20.8107 24.6719H22.6197C22.6519 24.6719 22.6838 24.6655 22.7135 24.653C22.7431 24.6405 22.77 24.6222 22.7925 24.5991C22.8149 24.5761 22.8326 24.5488 22.8443 24.5188C22.8561 24.4888 22.8617 24.4568 22.8609 24.4246C22.8308 22.9834 22.5323 21.5814 21.9715 20.2578V20.2578ZM11.5243 13.3352C10.1403 13.3352 8.83783 12.7955 7.85793 11.8156C6.87803 10.8357 6.33833 9.53318 6.33833 8.14926C6.33833 6.76534 6.87803 5.46283 7.85793 4.48293C8.83783 3.50303 10.1403 2.96333 11.5243 2.96333C12.9082 2.96333 14.2107 3.50303 15.1906 4.48293C16.1705 5.46283 16.7102 6.76534 16.7102 8.14926C16.7102 9.53318 16.1705 10.8357 15.1906 11.8156C14.2107 12.7955 12.9082 13.3352 11.5243 13.3352Z" fill="black"/>
</svg>
