<svg width="24" height="24" viewBox="0 0 24 24" fill="none" xmlns="http://www.w3.org/2000/svg">
<path fill-rule="evenodd" clip-rule="evenodd" d="M12 24C9.62663 24 7.30655 23.2962 5.33316 21.9776C3.35977 20.6591 1.8217 18.7849 0.913451 16.5922C0.307468 15.1292 9.58394e-06 13.5683 2.24056e-10 12C-4.78021e-06 11.2177 0.0764866 10.4336 0.230582 9.65892C0.693605 7.33115 1.83649 5.19295 3.51472 3.51472C5.19295 1.83649 7.33115 0.693605 9.65892 0.230582C10.4336 0.0764863 11.2177 -5.12682e-06 12 2.57727e-10C13.5683 1.02789e-05 15.1292 0.307469 16.5922 0.913451C18.7849 1.8217 20.6591 3.35977 21.9776 5.33316C23.2962 7.30655 24 9.62663 24 12C24 15.1826 22.7357 18.2348 20.4853 20.4853C18.2348 22.7357 15.1826 24 12 24ZM22.25 11.1429C22.1502 9.94971 21.8435 8.79026 21.3503 7.71428H18.4231C18.6507 8.78761 18.7943 9.93821 18.8407 11.1429H22.25ZM19.2731 4.72691C19.67 5.12384 20.0312 5.54988 20.3544 6H17.9678C17.5567 4.72862 17.0166 3.60897 16.3763 2.69172C17.4423 3.19288 18.4242 3.87804 19.2731 4.72691ZM12.8571 1.86435C14.1883 2.33373 15.3635 3.87072 16.145 6H12.8571V1.86435ZM12.8571 11.1429V7.71428H16.6568C16.9088 8.77796 17.0715 9.93466 17.1242 11.1429H12.8571ZM11.1429 11.1429V7.71428H7.34323C7.09122 8.77796 6.92849 9.93466 6.87579 11.1429H11.1429ZM7.85504 6H11.1429V1.86435C9.81166 2.33373 8.6365 3.87072 7.85504 6ZM7.62371 2.69172C6.98341 3.60897 6.44328 4.72863 6.03216 6H3.64561C4.3617 5.00292 5.25428 4.13683 6.28557 3.44775C6.71392 3.16153 7.16133 2.90911 7.62371 2.69172ZM2.49724 8.06383C2.54596 7.94623 2.59678 7.8297 2.64968 7.71428H5.57692C5.34928 8.78761 5.20566 9.93821 5.15928 11.1429H1.75007C1.83814 10.0897 2.08844 9.05078 2.49724 8.06383ZM18.8407 12.8571H22.2499C22.1506 14.0453 21.8455 15.2053 21.3503 16.2857H18.4231C18.6507 15.2124 18.7943 14.0618 18.8407 12.8571ZM16.6568 16.2857C16.9088 15.222 17.0715 14.0653 17.1242 12.8571H12.8571V16.2857H16.6568ZM12.8571 18H16.145C15.3635 20.1293 14.1883 21.6663 12.8571 22.1356V18ZM11.1429 18V22.1356C9.81166 21.6663 8.6365 20.1293 7.85504 18H11.1429ZM11.1429 16.2857H7.34323C7.09122 15.222 6.92849 14.0653 6.87579 12.8571H11.1429V16.2857ZM5.57692 16.2857C5.34928 15.2124 5.20566 14.0618 5.15928 12.8571H1.75006C1.78222 13.2418 1.83612 13.6255 1.91193 14.0066C2.06906 14.7966 2.31754 15.5611 2.64968 16.2857H5.57692ZM3.6456 18C3.96952 18.451 4.33082 18.877 4.72691 19.2731C5.57208 20.1183 6.55335 20.805 7.62372 21.3083C6.98341 20.391 6.44329 19.2714 6.03217 18H3.6456ZM17.9678 18H20.3544C19.3315 19.4243 17.9618 20.5629 16.3763 21.3083C17.0166 20.391 17.5567 19.2714 17.9678 18Z" fill="black"/>
</svg>
