<svg id="svg" version="1.1" xmlns="http://www.w3.org/2000/svg" xmlns:xlink="http://www.w3.org/1999/xlink" width="400" height="400" viewBox="0, 0, 400,400"><g id="svgg"><path id="path0" d="M169.200 102.418 C 167.330 102.558,165.294 102.881,164.675 103.136 C 164.057 103.390,162.257 103.701,160.675 103.826 C 159.094 103.950,156.450 104.386,154.800 104.793 C 153.150 105.200,150.720 105.655,149.400 105.804 C 145.508 106.244,139.439 107.614,139.114 108.126 C 137.515 110.640,139.069 124.800,140.943 124.800 C 141.975 124.800,145.499 128.817,146.823 131.504 C 149.988 137.925,147.017 147.009,140.692 150.250 C 138.805 151.217,138.813 151.180,138.806 158.879 L 138.800 165.957 140.924 167.367 C 150.269 173.570,150.353 185.506,141.100 192.386 L 138.800 194.096 138.800 201.227 L 138.800 208.357 140.924 209.767 C 150.298 215.989,150.285 228.810,140.900 234.796 L 138.800 236.135 138.800 242.652 L 138.800 249.170 141.197 250.798 C 151.213 257.599,150.225 272.792,139.500 276.906 C 138.486 277.296,138.517 283.163,139.551 286.313 C 139.963 287.571,140.421 289.113,140.568 289.740 C 140.916 291.224,143.073 294.081,144.608 295.092 C 145.641 295.771,146.720 295.917,152.008 296.094 C 156.305 296.237,158.784 296.505,160.107 296.969 C 161.156 297.336,163.435 297.799,165.171 297.997 C 166.908 298.195,169.379 298.665,170.664 299.041 C 174.280 300.101,211.899 300.142,214.021 299.089 C 214.803 298.701,216.457 298.219,217.697 298.017 C 218.938 297.815,220.368 297.386,220.876 297.064 C 221.384 296.742,222.415 296.350,223.167 296.193 C 223.918 296.036,225.088 295.569,225.767 295.155 C 226.445 294.741,227.215 294.402,227.479 294.401 C 228.513 294.398,237.327 288.918,240.600 286.242 C 245.645 282.119,252.838 273.108,254.432 268.915 C 254.665 268.303,255.092 267.531,255.381 267.201 C 255.669 266.870,256.041 266.150,256.208 265.600 C 256.374 265.050,256.845 264.171,257.255 263.646 C 257.665 263.121,258.000 262.309,258.000 261.840 C 258.000 261.372,258.360 260.316,258.800 259.496 C 259.240 258.675,259.600 257.553,259.600 257.003 C 259.600 256.453,259.956 254.967,260.390 253.702 C 260.825 252.436,261.369 249.690,261.599 247.600 C 261.829 245.510,262.234 243.170,262.499 242.400 C 263.285 240.112,263.160 223.408,262.325 219.200 C 261.954 217.330,261.535 214.458,261.393 212.818 C 261.251 211.177,260.885 209.352,260.580 208.762 C 260.275 208.171,259.854 206.723,259.646 205.544 C 259.225 203.165,258.286 200.232,257.165 197.800 C 256.759 196.920,256.242 195.750,256.015 195.200 C 255.788 194.650,255.436 193.930,255.234 193.600 C 255.031 193.270,254.379 192.018,253.785 190.817 C 251.188 185.567,245.527 178.354,241.657 175.365 C 240.258 174.284,238.862 173.161,238.555 172.869 C 235.317 169.795,221.460 164.301,215.800 163.848 C 214.040 163.707,210.811 163.427,208.623 163.226 C 203.897 162.792,192.011 163.856,189.451 164.943 C 188.599 165.304,187.635 165.600,187.307 165.600 C 186.980 165.600,184.449 166.500,181.683 167.600 C 176.297 169.742,176.115 169.787,175.200 169.209 C 174.677 168.878,174.574 164.595,174.400 135.963 C 174.168 97.846,174.812 101.999,169.200 102.418 M211.000 189.384 C 221.659 192.836,230.337 204.207,231.808 216.650 C 231.961 217.942,232.336 220.227,232.643 221.726 C 233.383 225.350,233.381 236.959,232.639 240.200 C 232.336 241.520,231.966 243.500,231.817 244.600 C 231.282 248.532,228.991 254.875,226.977 258.000 C 226.338 258.990,225.633 260.091,225.408 260.447 C 223.994 262.689,223.199 263.651,221.029 265.743 C 218.248 268.426,214.268 271.359,212.800 271.807 C 212.250 271.975,211.173 272.447,210.406 272.856 C 209.639 273.265,208.767 273.600,208.468 273.600 C 208.169 273.600,206.670 273.981,205.137 274.447 C 199.005 276.309,176.630 274.897,174.906 272.539 C 173.997 271.296,174.185 196.753,175.100 195.629 C 177.047 193.237,187.160 189.135,193.000 188.367 C 197.998 187.710,207.486 188.246,211.000 189.384 " stroke="none" fill="#f9fafb" fill-rule="evenodd"></path><path id="path1" d="M0.000 200.000 L 0.000 400.000 200.000 400.000 L 400.000 400.000 400.000 200.000 L 400.000 0.000 200.000 0.000 L 0.000 0.000 0.000 200.000 M176.371 100.654 C 177.194 101.700,177.200 101.938,177.200 133.854 L 177.200 166.000 178.400 166.000 C 179.159 166.000,179.600 165.795,179.600 165.443 C 179.600 164.723,180.478 164.400,182.433 164.400 C 183.467 164.400,184.272 164.128,184.800 163.600 C 185.409 162.991,186.133 162.800,187.837 162.800 C 189.414 162.800,190.354 162.580,191.022 162.054 C 193.063 160.449,217.843 160.449,219.567 162.055 C 220.173 162.620,220.982 162.800,222.908 162.800 C 224.896 162.800,225.636 162.974,226.308 163.600 C 226.861 164.116,227.719 164.400,228.721 164.400 C 229.736 164.400,230.513 164.662,230.958 165.154 C 231.334 165.569,232.150 166.010,232.772 166.134 C 233.394 166.259,234.174 166.631,234.503 166.961 C 234.833 167.291,235.575 167.679,236.152 167.824 C 236.728 167.968,237.200 168.245,237.200 168.438 C 237.200 168.631,237.785 169.041,238.500 169.349 C 239.215 169.657,240.498 170.559,241.350 171.354 C 242.203 172.149,243.052 172.800,243.236 172.800 C 243.421 172.800,243.765 173.160,244.000 173.600 C 244.235 174.040,244.610 174.400,244.833 174.400 C 245.371 174.400,247.171 176.465,247.187 177.100 C 247.194 177.375,247.474 177.600,247.809 177.600 C 248.143 177.600,248.622 178.050,248.873 178.600 C 249.123 179.150,249.541 179.600,249.800 179.600 C 250.059 179.600,250.477 180.050,250.727 180.600 C 250.978 181.150,251.367 181.600,251.591 181.600 C 251.816 181.600,252.000 181.856,252.000 182.169 C 252.000 182.482,252.450 183.273,253.000 183.927 C 253.550 184.581,254.000 185.361,254.000 185.662 C 254.000 185.962,254.360 186.432,254.800 186.707 C 255.240 186.982,255.600 187.627,255.600 188.141 C 255.600 188.655,255.960 189.402,256.400 189.800 C 256.840 190.198,257.200 191.012,257.200 191.608 C 257.200 192.204,257.578 193.173,258.040 193.760 C 258.502 194.347,258.979 195.569,259.101 196.475 C 259.222 197.381,259.654 198.454,260.061 198.861 C 260.467 199.267,260.800 200.067,260.800 200.638 C 260.800 201.209,261.055 202.154,261.366 202.738 C 263.097 205.989,263.570 207.397,263.824 210.058 C 263.979 211.676,264.397 213.540,264.753 214.200 C 265.725 216.002,265.731 246.528,264.759 248.018 C 264.407 248.558,263.989 250.324,263.831 251.943 C 263.613 254.170,263.210 255.502,262.172 257.425 C 261.417 258.823,260.800 260.396,260.800 260.921 C 260.800 261.446,260.462 262.182,260.049 262.555 C 259.614 262.949,259.190 264.053,259.041 265.178 C 258.897 266.263,258.538 267.215,258.229 267.333 C 257.925 267.450,257.545 268.143,257.386 268.873 C 257.226 269.603,256.759 270.629,256.348 271.154 C 255.937 271.679,255.600 272.460,255.600 272.891 C 255.600 273.338,255.257 273.765,254.800 273.884 C 254.301 274.015,254.000 274.430,254.000 274.988 C 254.000 275.480,253.550 276.369,253.000 276.962 C 252.450 277.556,252.000 278.212,252.000 278.421 C 252.000 278.629,251.750 278.800,251.443 278.800 C 251.137 278.800,250.774 279.250,250.636 279.800 C 250.498 280.350,250.118 280.800,249.792 280.800 C 249.467 280.800,249.200 281.081,249.200 281.425 C 249.200 282.038,242.619 288.800,242.022 288.800 C 241.748 288.800,240.472 289.819,238.797 291.376 C 238.465 291.684,237.695 292.061,237.086 292.214 C 236.477 292.367,235.797 292.831,235.575 293.246 C 235.353 293.661,234.846 294.000,234.448 294.000 C 234.050 294.000,233.398 294.360,233.000 294.800 C 232.602 295.240,231.989 295.601,231.638 295.601 C 231.287 295.602,230.460 295.931,229.800 296.333 C 229.140 296.734,227.982 297.186,227.226 297.336 C 226.471 297.487,225.550 297.883,225.181 298.217 C 224.812 298.551,223.540 298.933,222.355 299.066 C 221.170 299.199,219.875 299.590,219.479 299.935 C 219.082 300.280,217.822 300.686,216.679 300.836 C 215.535 300.986,213.340 301.385,211.800 301.722 C 204.051 303.417,181.538 303.244,172.000 301.417 C 170.350 301.101,167.875 300.833,166.500 300.821 C 164.566 300.805,163.822 300.622,163.213 300.013 C 162.502 299.302,161.653 299.203,154.313 298.974 C 147.241 298.754,146.061 298.624,145.116 297.961 C 144.520 297.542,143.769 297.200,143.447 297.200 C 141.103 297.200,138.117 291.907,137.355 286.400 C 136.746 282.005,136.644 277.344,137.148 277.032 C 137.340 276.914,137.605 276.273,137.738 275.608 C 137.871 274.944,138.235 274.400,138.547 274.400 C 138.859 274.400,139.218 274.130,139.345 273.800 C 139.471 273.470,139.781 273.200,140.033 273.200 C 140.535 273.200,143.200 270.441,143.200 269.922 C 143.200 269.745,143.470 269.600,143.800 269.600 C 144.214 269.600,144.400 269.184,144.400 268.254 C 144.400 267.514,144.760 266.450,145.200 265.891 C 145.671 265.292,146.000 264.268,146.000 263.400 C 146.000 262.532,145.671 261.508,145.200 260.909 C 144.760 260.350,144.400 259.330,144.400 258.642 C 144.400 257.826,144.123 257.219,143.600 256.893 C 143.160 256.618,142.800 256.215,142.800 255.997 C 142.800 255.411,141.403 254.118,140.439 253.813 C 139.978 253.666,139.600 253.309,139.600 253.020 C 139.600 252.730,139.251 252.402,138.824 252.290 C 136.055 251.566,135.929 233.969,138.685 232.912 C 139.653 232.540,142.761 229.553,143.017 228.748 C 143.147 228.337,143.486 228.000,143.769 228.000 C 145.050 228.000,144.849 217.331,143.546 216.151 C 143.136 215.780,142.800 215.144,142.800 214.738 C 142.800 214.329,142.515 214.000,142.163 214.000 C 141.812 214.000,141.438 213.668,141.332 213.263 C 141.216 212.817,140.561 212.383,139.670 212.163 C 135.247 211.070,135.738 189.600,140.186 189.600 C 140.508 189.600,140.965 189.240,141.200 188.800 C 141.435 188.360,141.892 188.000,142.214 188.000 C 142.536 188.000,142.800 187.646,142.800 187.214 C 142.800 186.782,143.133 186.250,143.540 186.032 C 145.045 185.227,145.049 174.263,143.545 173.870 C 143.118 173.758,142.800 173.318,142.800 172.837 C 142.800 172.377,142.590 172.000,142.334 172.000 C 142.077 172.000,141.582 171.722,141.234 171.383 C 140.885 171.043,139.983 170.233,139.229 169.583 C 138.474 168.933,137.622 167.726,137.335 166.901 C 136.721 165.138,136.592 153.178,137.167 151.360 C 137.369 150.722,137.639 149.719,137.767 149.132 C 137.936 148.352,138.324 147.992,139.203 147.799 C 139.865 147.654,140.591 147.190,140.817 146.767 C 141.043 146.345,141.582 146.000,142.014 146.000 C 142.533 146.000,142.800 145.729,142.800 145.200 C 142.800 144.760,143.160 144.040,143.600 143.600 C 144.048 143.152,144.400 142.267,144.400 141.587 C 144.400 140.920,144.661 139.749,144.981 138.984 C 145.489 137.768,145.489 137.386,144.981 135.946 C 144.661 135.040,144.400 133.810,144.400 133.212 C 144.400 132.613,144.040 131.798,143.600 131.400 C 143.160 131.002,142.800 130.344,142.800 129.938 C 142.800 129.532,142.540 129.200,142.223 129.200 C 141.905 129.200,141.394 128.841,141.086 128.401 C 140.778 127.962,139.982 127.413,139.317 127.181 C 136.885 126.333,135.691 111.544,137.623 106.200 L 138.202 104.600 141.968 104.484 C 144.961 104.392,145.837 104.228,146.232 103.688 C 146.640 103.131,147.584 102.981,151.454 102.858 C 155.133 102.741,156.279 102.571,156.632 102.088 C 156.973 101.622,158.362 101.378,162.243 101.101 C 165.366 100.878,167.715 100.518,168.200 100.187 C 169.794 99.100,175.401 99.421,176.371 100.654 M192.519 191.457 C 192.034 191.796,190.504 192.173,189.119 192.295 C 187.562 192.433,186.236 192.801,185.646 193.259 C 185.121 193.666,184.120 194.000,183.421 194.000 C 182.704 194.000,181.777 194.348,181.292 194.800 C 180.820 195.240,180.106 195.600,179.706 195.600 C 179.305 195.600,178.578 195.880,178.089 196.223 L 177.200 196.845 177.200 233.962 L 177.200 271.079 182.300 271.307 C 185.320 271.441,188.134 271.790,189.200 272.161 C 191.669 273.021,198.224 273.026,199.942 272.169 C 200.638 271.822,202.601 271.438,204.304 271.317 C 206.053 271.192,207.676 270.856,208.033 270.546 C 208.382 270.244,209.597 269.720,210.733 269.383 C 211.870 269.045,212.800 268.615,212.800 268.428 C 212.800 268.240,213.250 267.974,213.800 267.836 C 214.350 267.698,214.800 267.430,214.800 267.241 C 214.800 267.052,215.376 266.659,216.079 266.367 C 216.783 266.076,218.022 265.154,218.833 264.319 C 219.643 263.483,220.507 262.800,220.753 262.800 C 220.999 262.800,221.200 262.461,221.200 262.047 C 221.200 261.630,221.557 261.200,222.000 261.084 C 222.453 260.966,222.800 260.538,222.800 260.099 C 222.800 259.673,223.160 258.998,223.600 258.600 C 224.040 258.202,224.400 257.488,224.400 257.013 C 224.400 256.539,224.733 255.793,225.140 255.356 C 225.548 254.919,226.002 253.913,226.151 253.121 C 226.300 252.329,226.675 251.470,226.985 251.212 C 227.296 250.955,227.670 249.722,227.817 248.472 C 227.964 247.222,228.381 245.750,228.742 245.200 C 229.734 243.693,229.739 217.269,228.748 216.142 C 228.389 215.734,227.968 214.320,227.811 213.000 C 227.655 211.680,227.265 210.307,226.946 209.950 C 226.627 209.592,226.258 208.602,226.126 207.750 C 225.994 206.897,225.552 205.878,225.143 205.484 C 224.734 205.091,224.400 204.366,224.400 203.873 C 224.400 203.381,224.040 202.670,223.600 202.293 C 223.160 201.916,222.800 201.328,222.800 200.986 C 222.800 200.644,222.350 199.914,221.800 199.364 C 221.250 198.814,220.800 198.204,220.800 198.009 C 220.800 197.814,220.440 197.540,220.000 197.400 C 219.560 197.260,219.200 196.903,219.200 196.605 C 219.200 196.307,218.651 195.943,217.981 195.796 C 217.310 195.649,216.547 195.184,216.285 194.764 C 216.006 194.318,215.357 194.000,214.726 194.000 C 214.132 194.000,213.410 193.668,213.123 193.263 C 212.760 192.752,211.883 192.453,210.259 192.288 C 208.971 192.157,207.607 191.768,207.227 191.425 C 206.224 190.517,193.826 190.544,192.519 191.457 " stroke="none" fill="#046cc4" fill-rule="evenodd"></path><path id="path2" d="M173.600 101.523 L 175.000 102.207 175.200 134.804 C 175.310 152.732,175.546 167.626,175.725 167.901 C 176.047 168.400,177.756 168.217,178.600 167.594 C 179.232 167.128,188.428 163.971,190.200 163.612 C 191.417 163.365,191.544 163.277,190.728 163.244 C 189.723 163.203,184.944 164.697,179.350 166.802 C 175.208 168.360,175.600 171.723,175.600 134.675 C 175.600 98.709,175.748 100.768,173.169 100.819 C 172.302 100.836,172.348 100.911,173.600 101.523 M168.900 101.487 C 169.505 101.578,170.495 101.578,171.100 101.487 C 171.705 101.395,171.210 101.320,170.000 101.320 C 168.790 101.320,168.295 101.395,168.900 101.487 M162.000 102.066 C 161.230 102.277,159.970 102.598,159.200 102.779 C 158.065 103.046,157.990 103.117,158.803 103.154 C 159.354 103.179,160.434 103.007,161.203 102.771 C 161.971 102.535,163.500 102.197,164.600 102.021 C 166.534 101.710,166.547 101.700,165.000 101.691 C 164.120 101.686,162.770 101.855,162.000 102.066 M152.400 103.638 C 149.667 104.160,147.722 104.713,148.457 104.759 C 148.819 104.782,150.439 104.536,152.057 104.212 C 153.676 103.889,155.630 103.558,156.400 103.477 C 157.541 103.355,157.467 103.325,156.000 103.311 C 155.010 103.302,153.390 103.449,152.400 103.638 M141.704 105.406 C 138.939 106.007,138.400 106.246,138.400 106.873 C 138.400 107.169,138.553 107.171,138.903 106.881 C 139.329 106.527,143.207 105.636,146.800 105.067 C 147.350 104.980,146.990 104.899,146.000 104.886 C 145.010 104.874,143.077 105.108,141.704 105.406 M138.084 115.526 C 137.994 124.247,138.100 124.817,139.993 125.796 C 147.442 129.648,148.640 141.490,142.148 147.090 C 141.077 148.014,139.705 149.215,139.100 149.759 L 138.000 150.749 138.084 158.674 L 138.167 166.600 138.405 158.400 C 138.535 153.890,138.678 150.172,138.721 150.138 C 138.764 150.104,139.593 149.611,140.562 149.043 C 148.924 144.143,148.924 130.657,140.562 125.757 C 139.593 125.189,138.764 124.696,138.720 124.662 C 138.676 124.628,138.534 120.730,138.404 116.000 L 138.169 107.400 138.084 115.526 M196.400 162.038 C 195.410 162.227,193.970 162.547,193.200 162.750 C 190.763 163.391,193.486 163.247,196.200 162.592 C 199.462 161.804,210.914 161.815,214.200 162.608 C 215.520 162.927,217.050 163.170,217.600 163.148 C 218.627 163.107,217.529 162.794,213.600 162.008 C 211.339 161.555,198.811 161.577,196.400 162.038 M219.800 163.479 C 220.460 163.567,221.867 163.919,222.926 164.260 C 223.985 164.602,224.932 164.801,225.030 164.703 C 225.356 164.377,221.130 163.199,219.854 163.260 L 218.600 163.320 219.800 163.479 M226.000 165.073 C 227.479 165.590,235.895 169.789,236.982 170.552 C 244.708 175.973,251.042 183.048,254.818 190.474 C 255.790 192.385,256.645 193.888,256.719 193.815 C 256.843 193.690,255.204 190.205,253.705 187.405 C 251.275 182.866,245.109 176.113,239.600 171.955 C 236.189 169.380,227.469 164.772,226.120 164.832 C 225.568 164.856,225.540 164.912,226.000 165.073 M138.666 167.428 C 138.793 167.759,139.381 168.280,139.972 168.586 C 148.261 172.872,148.246 187.000,139.948 191.411 C 139.370 191.719,138.793 192.241,138.667 192.571 C 138.285 193.566,143.081 189.616,144.153 188.052 C 147.884 182.612,147.593 175.856,143.412 170.887 C 142.129 169.362,138.352 166.609,138.666 167.428 M192.400 189.578 C 189.823 190.047,184.903 191.534,182.800 192.479 C 174.147 196.368,175.200 190.583,175.200 234.254 C 175.200 274.100,175.135 272.771,177.100 272.805 C 177.265 272.808,179.650 273.166,182.400 273.600 C 185.150 274.034,188.660 274.361,190.200 274.325 C 192.209 274.279,192.492 274.219,191.200 274.115 C 185.118 273.623,177.618 272.430,176.662 271.804 L 175.600 271.108 175.609 234.254 C 175.617 199.952,175.666 197.339,176.309 196.515 C 177.022 195.603,180.469 193.600,181.327 193.600 C 181.594 193.600,182.468 193.248,183.271 192.818 C 187.873 190.351,200.393 188.813,206.487 189.966 C 209.600 190.555,213.998 191.941,214.800 192.586 C 215.130 192.851,216.002 193.307,216.737 193.598 C 228.585 198.292,235.208 227.805,229.113 248.744 C 224.727 263.811,214.862 272.017,198.600 274.125 C 197.658 274.247,197.758 274.293,199.065 274.340 C 207.030 274.627,218.453 268.490,223.708 261.099 C 237.760 241.339,233.542 202.622,216.275 192.877 C 210.765 189.768,199.733 188.243,192.400 189.578 M138.083 200.881 C 137.997 208.644,138.240 210.168,139.637 210.612 C 141.207 211.110,144.206 214.674,145.303 217.344 C 147.820 223.474,145.650 229.728,139.400 234.351 L 138.200 235.239 139.550 234.583 C 149.041 229.975,149.035 216.541,139.540 209.947 C 138.620 209.308,138.595 209.122,138.383 201.347 L 138.167 193.400 138.083 200.881 M256.801 194.501 C 256.801 194.667,257.160 195.475,257.600 196.296 C 258.040 197.116,258.400 197.570,258.400 197.304 C 258.400 197.037,258.041 196.230,257.601 195.510 C 257.162 194.789,256.802 194.336,256.801 194.501 M258.817 200.033 C 258.808 200.382,258.935 200.800,259.100 200.962 C 259.265 201.124,259.611 201.829,259.870 202.529 C 260.192 203.400,260.343 203.549,260.353 203.000 C 260.360 202.560,260.022 201.570,259.600 200.800 C 259.178 200.030,258.826 199.685,258.817 200.033 M260.414 204.892 C 260.406 205.272,260.659 206.262,260.976 207.092 C 261.293 207.921,261.632 208.960,261.730 209.400 C 261.904 210.186,261.908 210.186,261.954 209.385 C 261.979 208.936,261.646 207.586,261.214 206.385 C 260.782 205.183,260.422 204.511,260.414 204.892 M262.050 211.342 C 262.023 211.971,262.294 213.591,262.654 214.942 C 263.043 216.401,263.434 220.163,263.619 224.200 L 263.929 231.000 263.782 223.800 C 263.702 219.840,263.432 215.880,263.184 215.000 C 262.935 214.120,262.589 212.680,262.416 211.800 C 262.152 210.464,262.092 210.388,262.050 211.342 M263.755 237.800 C 263.756 240.660,263.820 241.778,263.897 240.283 C 263.974 238.789,263.974 236.449,263.896 235.083 C 263.818 233.718,263.755 234.940,263.755 237.800 M138.083 242.467 C 137.986 250.768,137.895 250.422,140.647 252.249 C 149.213 257.934,148.674 268.483,139.449 275.739 L 138.000 276.879 138.086 281.539 L 138.172 286.200 138.299 281.493 L 138.426 276.787 140.113 275.593 C 149.342 269.062,149.441 256.276,140.300 251.558 C 139.475 251.132,138.765 250.742,138.722 250.692 C 138.680 250.641,138.537 247.180,138.405 243.000 L 138.165 235.400 138.083 242.467 M263.255 244.200 C 263.220 244.860,262.925 246.390,262.600 247.600 C 262.275 248.810,262.028 250.250,262.051 250.800 C 262.084 251.593,262.128 251.635,262.263 251.000 C 262.356 250.560,262.711 249.115,263.051 247.789 C 263.392 246.463,263.592 244.843,263.495 244.189 L 263.320 243.000 263.255 244.200 M261.654 252.651 C 261.625 253.119,261.330 254.149,261.000 254.938 C 260.670 255.728,260.410 256.605,260.422 256.887 C 260.434 257.169,260.802 256.515,261.241 255.434 C 261.680 254.353,261.964 253.093,261.874 252.634 C 261.710 251.805,261.709 251.805,261.654 252.651 M259.740 259.275 C 258.502 262.838,257.960 264.259,257.594 264.900 C 257.340 265.343,257.335 265.600,257.581 265.600 C 257.794 265.600,258.229 264.723,258.548 263.651 C 258.866 262.579,259.424 261.127,259.787 260.424 C 260.151 259.721,260.392 258.877,260.324 258.548 C 260.256 258.219,259.993 258.546,259.740 259.275 M255.665 268.727 C 251.403 277.342,244.023 285.608,235.645 291.149 C 232.963 292.923,226.254 296.387,225.443 296.416 C 225.199 296.425,224.010 296.885,222.800 297.438 C 220.253 298.601,221.075 298.460,224.800 297.094 C 234.566 293.512,244.182 286.199,250.963 277.197 C 253.578 273.726,257.571 266.637,257.149 266.215 C 257.060 266.126,256.392 267.256,255.665 268.727 M138.441 287.200 C 138.434 287.750,138.686 288.650,139.000 289.200 C 139.724 290.466,139.727 290.243,139.021 288.000 C 138.618 286.723,138.450 286.490,138.441 287.200 M139.633 290.840 C 139.587 291.733,141.532 294.485,143.176 295.854 C 144.539 296.989,144.605 297.000,150.176 297.050 L 155.800 297.100 150.055 296.850 L 144.310 296.600 142.528 294.632 C 141.548 293.549,140.503 292.109,140.206 291.432 C 139.909 290.754,139.651 290.488,139.633 290.840 M156.471 297.616 C 156.840 297.831,158.010 298.099,159.071 298.211 L 161.000 298.415 159.000 297.825 C 156.597 297.117,155.453 297.022,156.471 297.616 M162.100 298.676 C 162.485 298.776,163.115 298.776,163.500 298.676 C 163.885 298.575,163.570 298.493,162.800 298.493 C 162.030 298.493,161.715 298.575,162.100 298.676 M217.600 298.854 C 217.050 299.077,215.700 299.503,214.600 299.803 C 213.164 300.194,212.906 300.355,213.685 300.374 C 214.282 300.388,215.639 300.057,216.702 299.639 C 217.764 299.220,219.075 298.795,219.616 298.693 L 220.600 298.509 219.600 298.480 C 219.050 298.464,218.150 298.632,217.600 298.854 M166.200 299.451 C 167.080 299.779,169.060 300.118,170.600 300.206 L 173.400 300.365 170.838 300.000 C 169.428 299.799,167.737 299.447,167.078 299.217 C 165.212 298.567,164.402 298.783,166.200 299.451 M177.712 300.695 C 178.764 300.777,180.384 300.776,181.312 300.692 C 182.240 300.608,181.380 300.541,179.400 300.542 C 177.420 300.543,176.660 300.612,177.712 300.695 M206.700 300.689 C 207.415 300.778,208.585 300.778,209.300 300.689 C 210.015 300.601,209.430 300.528,208.000 300.528 C 206.570 300.528,205.985 300.601,206.700 300.689 M188.900 301.314 C 192.433 301.562,196.367 301.562,199.900 301.314 C 205.200 300.942,205.000 300.928,194.400 300.928 C 183.800 300.928,183.600 300.942,188.900 301.314 " stroke="none" fill="#5ca1d6" fill-rule="evenodd"></path><path id="path3" d="M166.600 101.994 C 165.280 102.143,162.670 102.558,160.800 102.916 C 158.930 103.274,156.230 103.749,154.800 103.972 C 141.594 106.031,138.934 106.648,138.647 107.718 C 138.517 108.203,138.408 111.941,138.405 116.024 C 138.399 124.246,138.304 123.912,141.261 125.979 C 149.323 131.613,148.795 145.059,140.339 149.431 C 138.544 150.360,138.400 151.066,138.406 158.874 C 138.413 167.013,138.301 166.577,140.831 168.298 C 149.372 174.107,149.118 184.941,140.273 192.120 L 138.400 193.640 138.400 201.076 L 138.400 208.513 139.856 209.757 C 149.302 217.823,149.575 228.173,140.500 234.239 L 138.400 235.643 138.400 242.532 C 138.400 249.607,138.725 251.200,140.166 251.200 C 141.383 251.200,144.538 254.622,145.855 257.371 C 148.944 263.817,146.665 271.652,140.594 275.459 C 138.399 276.836,138.263 277.286,138.478 282.507 C 138.915 293.147,142.270 296.793,151.627 296.798 C 154.463 296.799,157.019 297.023,158.227 297.375 C 159.312 297.691,161.550 298.137,163.200 298.366 C 164.850 298.595,167.460 299.055,169.000 299.390 C 176.388 300.995,210.555 301.024,215.251 299.430 C 216.220 299.101,218.001 298.623,219.207 298.369 C 220.413 298.115,221.580 297.771,221.800 297.605 C 222.020 297.440,222.920 297.077,223.800 296.800 C 238.066 292.300,253.165 277.206,258.613 262.000 C 259.792 258.709,261.514 252.624,261.782 250.800 C 261.928 249.810,262.352 247.650,262.724 246.000 C 263.711 241.622,263.710 220.777,262.724 216.400 C 262.351 214.750,261.924 212.410,261.774 211.200 C 261.624 209.990,261.323 208.550,261.106 208.000 C 260.889 207.450,260.457 205.920,260.145 204.600 C 259.833 203.280,259.328 201.660,259.022 201.000 C 258.716 200.340,258.343 199.131,258.191 198.314 C 258.040 197.497,257.665 196.620,257.358 196.365 C 257.051 196.110,256.800 195.675,256.800 195.397 C 256.800 191.817,245.852 176.982,240.600 173.443 C 239.720 172.850,238.100 171.735,237.000 170.965 C 234.373 169.125,228.241 166.178,224.436 164.926 C 221.701 164.027,218.887 163.503,210.800 162.385 C 202.408 161.226,190.783 163.035,180.718 167.066 C 178.802 167.833,176.822 168.402,176.318 168.330 L 175.400 168.200 175.200 135.400 C 175.090 117.360,174.854 102.375,174.676 102.100 C 174.327 101.560,170.837 101.514,166.600 101.994 M174.400 135.963 C 174.574 164.595,174.677 168.878,175.200 169.209 C 176.115 169.787,176.297 169.742,181.683 167.600 C 184.449 166.500,186.980 165.600,187.307 165.600 C 187.635 165.600,188.599 165.304,189.451 164.943 C 192.011 163.856,203.897 162.792,208.623 163.226 C 210.811 163.427,214.040 163.707,215.800 163.848 C 221.460 164.301,235.317 169.795,238.555 172.869 C 238.862 173.161,240.258 174.284,241.657 175.365 C 245.527 178.354,251.188 185.567,253.785 190.817 C 254.379 192.018,255.031 193.270,255.234 193.600 C 255.436 193.930,255.788 194.650,256.015 195.200 C 256.242 195.750,256.759 196.920,257.165 197.800 C 258.286 200.232,259.225 203.165,259.646 205.544 C 259.854 206.723,260.275 208.171,260.580 208.762 C 260.885 209.352,261.251 211.177,261.393 212.818 C 261.535 214.458,261.954 217.330,262.325 219.200 C 263.160 223.408,263.285 240.112,262.499 242.400 C 262.234 243.170,261.829 245.510,261.599 247.600 C 261.369 249.690,260.825 252.436,260.390 253.702 C 259.956 254.967,259.600 256.453,259.600 257.003 C 259.600 257.553,259.240 258.675,258.800 259.496 C 258.360 260.316,258.000 261.372,258.000 261.840 C 258.000 262.309,257.665 263.121,257.255 263.646 C 256.845 264.171,256.374 265.050,256.208 265.600 C 256.041 266.150,255.669 266.870,255.381 267.201 C 255.092 267.531,254.665 268.303,254.432 268.915 C 252.838 273.108,245.645 282.119,240.600 286.242 C 237.327 288.918,228.513 294.398,227.479 294.401 C 227.215 294.402,226.445 294.741,225.767 295.155 C 225.088 295.569,223.918 296.036,223.167 296.193 C 222.415 296.350,221.384 296.742,220.876 297.064 C 220.368 297.386,218.938 297.815,217.697 298.017 C 216.457 298.219,214.803 298.701,214.021 299.089 C 211.899 300.142,174.280 300.101,170.664 299.041 C 169.379 298.665,166.908 298.195,165.171 297.997 C 163.435 297.799,161.156 297.336,160.107 296.969 C 158.784 296.505,156.305 296.237,152.008 296.094 C 146.720 295.917,145.641 295.771,144.608 295.092 C 143.073 294.081,140.916 291.224,140.568 289.740 C 140.421 289.113,139.963 287.571,139.551 286.313 C 138.517 283.163,138.486 277.296,139.500 276.906 C 150.225 272.792,151.213 257.599,141.197 250.798 L 138.800 249.170 138.800 242.652 L 138.800 236.135 140.900 234.796 C 150.285 228.810,150.298 215.989,140.924 209.767 L 138.800 208.357 138.800 201.227 L 138.800 194.096 141.100 192.386 C 150.353 185.506,150.269 173.570,140.924 167.367 L 138.800 165.957 138.806 158.879 C 138.813 151.180,138.805 151.217,140.692 150.250 C 147.017 147.009,149.988 137.925,146.823 131.504 C 145.499 128.817,141.975 124.800,140.943 124.800 C 139.069 124.800,137.515 110.640,139.114 108.126 C 139.439 107.614,145.508 106.244,149.400 105.804 C 150.720 105.655,153.150 105.200,154.800 104.793 C 156.450 104.386,159.094 103.950,160.675 103.826 C 162.257 103.701,164.057 103.390,164.675 103.136 C 165.294 102.881,167.330 102.558,169.200 102.418 C 174.812 101.999,174.168 97.846,174.400 135.963 M193.000 188.367 C 188.473 188.962,181.763 191.378,176.800 194.200 C 174.216 195.670,174.400 192.604,174.400 234.168 C 174.400 263.920,174.506 271.993,174.906 272.539 C 176.630 274.897,199.005 276.309,205.137 274.447 C 206.670 273.981,208.169 273.600,208.468 273.600 C 208.767 273.600,209.639 273.265,210.406 272.856 C 211.173 272.447,212.250 271.975,212.800 271.807 C 214.268 271.359,218.248 268.426,221.029 265.743 C 223.199 263.651,223.994 262.689,225.408 260.447 C 225.633 260.091,226.338 258.990,226.977 258.000 C 228.991 254.875,231.282 248.532,231.817 244.600 C 231.966 243.500,232.336 241.520,232.639 240.200 C 233.381 236.959,233.383 225.350,232.643 221.726 C 232.336 220.227,231.961 217.942,231.808 216.650 C 230.337 204.207,221.659 192.836,211.000 189.384 C 207.486 188.246,197.998 187.710,193.000 188.367 M206.200 189.219 C 222.968 191.633,232.248 206.631,232.175 231.200 C 232.119 250.331,224.325 266.185,212.600 271.017 C 211.720 271.380,210.460 271.916,209.800 272.210 C 202.584 275.418,178.065 275.361,175.700 272.130 C 175.308 271.595,175.200 263.369,175.200 234.213 C 175.200 191.781,174.792 195.965,179.121 193.968 C 180.595 193.288,182.250 192.495,182.800 192.206 C 187.887 189.532,198.746 188.146,206.200 189.219 " stroke="none" fill="#84b4dc" fill-rule="evenodd"></path><path id="path4" d="M166.900 101.876 C 167.285 101.976,167.915 101.976,168.300 101.876 C 168.685 101.775,168.370 101.693,167.600 101.693 C 166.830 101.693,166.515 101.775,166.900 101.876 M198.500 162.276 C 198.885 162.376,199.515 162.376,199.900 162.276 C 200.285 162.175,199.970 162.093,199.200 162.093 C 198.430 162.093,198.115 162.175,198.500 162.276 M209.900 162.282 C 210.395 162.378,211.205 162.378,211.700 162.282 C 212.195 162.187,211.790 162.109,210.800 162.109 C 209.810 162.109,209.405 162.187,209.900 162.282 M238.598 171.937 C 239.034 172.452,239.753 173.059,240.196 173.286 C 241.045 173.721,240.921 173.587,239.003 171.994 C 237.848 171.035,237.834 171.033,238.598 171.937 M146.914 179.800 C 146.917 180.900,146.995 181.303,147.087 180.695 C 147.179 180.086,147.177 179.186,147.082 178.695 C 146.987 178.203,146.911 178.700,146.914 179.800 M197.700 189.096 C 198.965 189.175,201.035 189.175,202.300 189.096 C 203.565 189.016,202.530 188.951,200.000 188.951 C 197.470 188.951,196.435 189.016,197.700 189.096 M219.600 194.925 C 219.600 194.994,220.185 195.579,220.900 196.225 L 222.200 197.400 221.025 196.100 C 219.930 194.888,219.600 194.616,219.600 194.925 M144.655 215.000 C 145.580 216.579,145.600 216.603,145.600 216.111 C 145.600 215.879,145.229 215.264,144.776 214.744 L 143.953 213.800 144.655 215.000 M263.293 220.800 C 263.293 221.570,263.375 221.885,263.476 221.500 C 263.576 221.115,263.576 220.485,263.476 220.100 C 263.375 219.715,263.293 220.030,263.293 220.800 M146.920 222.400 C 146.920 223.610,146.995 224.105,147.087 223.500 C 147.178 222.895,147.178 221.905,147.087 221.300 C 146.995 220.695,146.920 221.190,146.920 222.400 M231.701 223.800 C 231.705 224.680,231.787 224.993,231.883 224.495 C 231.979 223.998,231.975 223.278,231.875 222.895 C 231.775 222.513,231.696 222.920,231.701 223.800 M232.150 231.000 C 232.151 233.420,232.216 234.358,232.296 233.085 C 232.376 231.812,232.375 229.832,232.294 228.685 C 232.214 227.538,232.149 228.580,232.150 231.000 M143.999 230.500 C 143.410 231.304,143.313 231.584,143.745 231.233 C 144.401 230.700,145.393 229.200,145.089 229.200 C 145.013 229.200,144.522 229.785,143.999 230.500 M231.693 238.000 C 231.693 238.770,231.775 239.085,231.876 238.700 C 231.976 238.315,231.976 237.685,231.876 237.300 C 231.775 236.915,231.693 237.230,231.693 238.000 M263.293 242.000 C 263.293 242.770,263.375 243.085,263.476 242.700 C 263.576 242.315,263.576 241.685,263.476 241.300 C 263.375 240.915,263.293 241.230,263.293 242.000 M143.000 253.600 C 143.859 254.480,144.652 255.200,144.762 255.200 C 144.872 255.200,144.259 254.480,143.400 253.600 C 142.541 252.720,141.748 252.000,141.638 252.000 C 141.528 252.000,142.141 252.720,143.000 253.600 M226.800 256.000 C 226.351 256.880,226.074 257.600,226.184 257.600 C 226.294 257.600,226.751 256.880,227.200 256.000 C 227.649 255.120,227.926 254.400,227.816 254.400 C 227.706 254.400,227.249 255.120,226.800 256.000 M220.181 265.300 L 218.600 267.000 220.300 265.419 C 221.235 264.549,222.000 263.784,222.000 263.719 C 222.000 263.416,221.652 263.719,220.181 265.300 M213.800 270.017 C 212.700 270.664,211.964 271.195,212.165 271.197 C 212.606 271.201,216.000 269.242,216.000 268.983 C 216.000 268.722,216.004 268.720,213.800 270.017 M202.400 274.000 C 201.596 274.257,201.557 274.323,202.200 274.332 C 202.640 274.338,203.360 274.189,203.800 274.000 C 204.819 273.562,203.768 273.562,202.400 274.000 M192.117 274.697 C 193.611 274.774,195.951 274.774,197.317 274.696 C 198.682 274.618,197.460 274.555,194.600 274.555 C 191.740 274.556,190.622 274.620,192.117 274.697 M143.288 295.413 C 143.886 296.043,144.447 296.477,144.535 296.379 C 144.623 296.280,144.133 295.765,143.447 295.234 L 142.200 294.269 143.288 295.413 M173.905 300.283 C 174.402 300.379,175.122 300.375,175.505 300.275 C 175.887 300.175,175.480 300.096,174.600 300.101 C 173.720 300.105,173.407 300.187,173.905 300.283 M210.900 300.276 C 211.285 300.376,211.915 300.376,212.300 300.276 C 212.685 300.175,212.370 300.093,211.600 300.093 C 210.830 300.093,210.515 300.175,210.900 300.276 M183.891 300.689 C 184.601 300.777,185.861 300.779,186.691 300.692 C 187.521 300.605,186.940 300.533,185.400 300.531 C 183.860 300.529,183.181 300.600,183.891 300.689 M202.307 300.690 C 203.026 300.779,204.106 300.777,204.707 300.686 C 205.308 300.595,204.720 300.522,203.400 300.524 C 202.080 300.526,201.588 300.601,202.307 300.690 " stroke="none" fill="#7cb4dc" fill-rule="evenodd"></path><path id="path5" d="M171.000 100.832 C 170.121 101.079,170.375 101.115,171.946 100.965 C 173.614 100.806,174.261 100.912,174.846 101.442 C 175.261 101.817,175.600 101.981,175.600 101.806 C 175.600 100.652,173.342 100.173,171.000 100.832 M165.305 101.487 C 165.914 101.579,166.814 101.577,167.305 101.482 C 167.797 101.387,167.300 101.311,166.200 101.314 C 165.100 101.317,164.697 101.395,165.305 101.487 M159.800 102.220 C 158.449 102.877,159.213 102.823,162.000 102.063 L 163.400 101.682 162.200 101.659 C 161.540 101.646,160.460 101.899,159.800 102.220 M175.796 134.795 C 175.800 165.900,175.833 167.395,176.522 167.528 C 176.919 167.605,178.782 167.067,180.660 166.334 C 182.539 165.600,183.780 164.940,183.418 164.867 C 183.057 164.794,182.365 164.989,181.880 165.302 C 181.396 165.614,180.158 166.154,179.130 166.501 C 175.741 167.643,176.013 170.359,175.896 134.200 L 175.793 102.200 175.796 134.795 M150.080 103.595 C 149.354 103.767,148.634 104.044,148.480 104.211 C 148.326 104.378,148.830 104.377,149.600 104.209 C 150.370 104.041,151.720 103.767,152.600 103.601 L 154.200 103.300 152.800 103.291 C 152.030 103.286,150.806 103.423,150.080 103.595 M140.120 105.242 C 139.416 105.446,138.713 105.818,138.558 106.068 C 138.384 106.349,138.454 106.414,138.742 106.236 C 138.998 106.078,140.331 105.704,141.704 105.406 C 143.579 104.999,143.852 104.865,142.800 104.868 C 142.030 104.870,140.824 105.039,140.120 105.242 M138.000 124.295 C 138.000 124.906,139.038 125.896,140.436 126.619 C 141.074 126.949,142.317 128.130,143.198 129.245 C 144.079 130.360,144.800 131.100,144.800 130.891 C 144.800 130.154,142.319 127.388,140.669 126.285 C 139.751 125.671,138.775 124.872,138.500 124.508 C 138.225 124.145,138.000 124.049,138.000 124.295 M145.029 132.200 C 145.972 134.907,146.365 135.730,146.366 135.000 C 146.366 134.560,146.003 133.570,145.559 132.800 C 145.114 132.030,144.876 131.760,145.029 132.200 M145.501 141.286 C 145.116 142.193,144.881 143.014,144.977 143.111 C 145.202 143.336,146.455 140.360,146.309 139.947 C 146.249 139.776,145.885 140.379,145.501 141.286 M143.390 145.349 C 142.724 146.247,141.554 147.397,140.790 147.904 C 138.820 149.212,138.000 149.935,138.000 150.365 C 138.000 150.571,138.532 150.257,139.183 149.669 C 139.833 149.081,141.117 147.973,142.035 147.207 C 143.655 145.854,145.067 144.109,144.754 143.845 C 144.669 143.774,144.055 144.451,143.390 145.349 M202.500 161.496 C 203.765 161.575,205.835 161.575,207.100 161.496 C 208.365 161.416,207.330 161.351,204.800 161.351 C 202.270 161.351,201.235 161.416,202.500 161.496 M193.800 162.220 L 192.600 162.805 193.800 162.542 C 194.460 162.398,195.720 162.149,196.600 161.990 L 198.200 161.700 196.600 161.668 C 195.720 161.650,194.460 161.899,193.800 162.220 M213.800 161.991 C 214.680 162.188,215.940 162.473,216.600 162.625 C 217.515 162.835,217.695 162.788,217.357 162.427 C 217.113 162.167,215.853 161.882,214.557 161.794 C 212.437 161.650,212.361 161.670,213.800 161.991 M186.842 163.634 C 185.263 164.266,186.104 164.409,187.815 163.800 C 188.687 163.489,189.040 163.239,188.600 163.243 C 188.160 163.247,187.369 163.423,186.842 163.634 M222.985 163.800 C 223.856 164.110,224.646 164.287,224.740 164.193 C 224.977 163.957,222.898 163.196,222.074 163.218 C 221.703 163.227,222.113 163.489,222.985 163.800 M231.800 167.230 C 240.650 171.664,249.779 180.073,253.705 187.405 C 254.617 189.108,256.653 193.290,256.915 194.000 C 257.062 194.397,257.148 194.425,257.168 194.083 C 257.201 193.551,255.483 189.863,253.846 186.948 C 251.575 182.908,245.487 176.030,240.990 172.424 C 239.527 171.252,235.185 168.373,234.307 167.994 C 233.808 167.778,233.130 167.437,232.800 167.235 C 231.726 166.580,227.730 164.800,227.360 164.813 C 227.162 164.820,229.160 165.908,231.800 167.230 M138.016 166.718 C 137.998 167.301,139.217 168.517,141.293 169.989 C 144.883 172.533,147.200 180.120,145.431 183.540 C 145.084 184.211,144.804 184.994,144.809 185.280 C 144.814 185.566,145.174 185.015,145.609 184.056 C 147.808 179.209,144.439 170.009,139.942 168.581 C 139.532 168.451,138.935 167.862,138.614 167.273 C 138.294 166.683,138.025 166.433,138.016 166.718 M143.652 187.406 C 143.141 188.152,141.765 189.501,140.596 190.403 C 138.633 191.917,137.728 193.061,138.154 193.487 C 138.249 193.582,138.446 193.285,138.592 192.826 C 138.738 192.367,139.339 191.727,139.928 191.404 C 141.784 190.386,145.219 186.686,144.747 186.213 C 144.656 186.123,144.164 186.659,143.652 187.406 M193.400 189.957 C 192.520 190.091,195.389 190.200,199.776 190.200 C 204.163 190.200,207.223 190.086,206.576 189.947 C 205.086 189.627,195.523 189.634,193.400 189.957 M187.200 191.385 C 184.099 192.317,181.338 193.593,182.411 193.598 C 182.747 193.599,183.405 193.332,183.872 193.004 C 184.340 192.677,185.775 192.148,187.061 191.830 C 190.413 191.001,191.964 190.467,191.000 190.476 C 190.560 190.480,188.850 190.889,187.200 191.385 M211.000 191.479 C 212.760 192.043,214.294 192.650,214.408 192.827 C 214.678 193.245,216.858 194.076,217.086 193.848 C 217.182 193.752,216.842 193.545,216.330 193.389 C 215.819 193.233,215.130 192.881,214.800 192.607 C 214.092 192.020,209.321 190.388,208.422 190.427 C 208.080 190.441,209.240 190.915,211.000 191.479 M178.800 194.644 C 175.312 196.551,175.619 192.747,175.609 234.254 L 175.600 271.108 176.661 271.803 C 180.841 274.542,200.795 274.741,207.909 272.115 C 210.257 271.249,209.831 271.095,207.181 271.854 C 199.784 273.972,188.665 274.052,178.907 272.056 C 175.730 271.407,175.999 274.930,176.013 234.051 C 176.027 192.808,175.688 196.663,179.463 194.787 C 180.748 194.148,181.530 193.633,181.200 193.642 C 180.870 193.652,179.790 194.102,178.800 194.644 M218.800 195.239 C 220.675 197.076,222.048 198.115,221.238 197.085 C 220.930 196.692,219.940 195.807,219.038 195.118 L 217.400 193.867 218.800 195.239 M222.109 198.676 C 222.494 199.074,223.171 199.850,223.614 200.400 C 224.389 201.363,224.388 201.346,223.591 199.936 C 223.136 199.130,222.459 198.355,222.086 198.212 C 221.469 197.975,221.471 198.016,222.109 198.676 M259.656 200.945 C 259.939 201.575,260.242 201.873,260.331 201.606 C 260.420 201.340,260.189 200.824,259.818 200.461 C 259.186 199.842,259.176 199.873,259.656 200.945 M224.624 202.400 C 224.781 202.950,225.245 203.829,225.655 204.354 C 226.065 204.879,226.401 205.509,226.402 205.754 C 226.404 205.999,226.696 206.740,227.051 207.400 C 228.882 210.799,230.766 221.581,231.351 232.000 C 231.431 233.430,231.430 231.990,231.350 228.800 C 231.074 217.953,228.847 208.518,225.203 202.766 C 224.509 201.670,224.395 201.598,224.624 202.400 M260.813 205.254 C 260.806 205.394,261.063 206.114,261.384 206.854 C 261.815 207.847,261.973 207.984,261.984 207.376 C 261.998 206.662,260.847 204.577,260.813 205.254 M138.033 209.000 C 137.998 209.667,138.512 210.236,140.549 211.786 C 141.621 212.602,142.881 213.668,143.349 214.155 C 144.058 214.892,144.101 214.903,143.605 214.220 C 142.739 213.025,140.303 210.845,139.557 210.596 C 139.204 210.479,138.721 209.981,138.484 209.491 C 138.248 209.001,138.045 208.780,138.033 209.000 M262.418 211.926 C 262.408 212.436,262.579 213.188,262.799 213.597 C 263.018 214.007,263.370 215.570,263.581 217.071 L 263.965 219.800 263.793 217.000 C 263.624 214.251,262.455 209.939,262.418 211.926 M144.847 217.200 C 144.837 217.530,145.086 218.250,145.400 218.800 C 147.628 222.697,144.721 229.843,139.246 233.930 C 138.561 234.442,138.000 235.011,138.000 235.194 C 138.000 235.648,140.175 233.834,142.600 231.358 C 146.038 227.848,147.393 221.944,145.622 218.200 C 145.205 217.320,144.857 216.870,144.847 217.200 M264.173 231.400 C 264.173 236.680,264.230 238.785,264.299 236.077 C 264.368 233.369,264.368 229.049,264.299 226.477 C 264.229 223.905,264.172 226.120,264.173 231.400 M230.480 239.638 C 230.194 242.189,229.684 245.249,229.347 246.438 C 228.345 249.973,228.342 250.814,229.343 247.792 C 230.353 244.744,231.383 238.127,231.147 236.200 C 231.066 235.540,230.766 237.087,230.480 239.638 M263.600 244.336 C 263.600 245.181,263.332 246.756,263.004 247.836 C 262.247 250.334,262.281 251.422,263.062 249.632 C 263.681 248.212,264.311 242.800,263.858 242.800 C 263.716 242.800,263.600 243.491,263.600 244.336 M138.032 250.284 C 137.994 250.855,138.400 251.223,140.779 252.776 C 141.758 253.414,143.063 254.613,143.679 255.440 C 144.296 256.266,144.800 256.808,144.800 256.645 C 144.800 255.892,142.528 253.497,140.598 252.216 C 139.426 251.438,138.376 250.576,138.265 250.301 C 138.114 249.927,138.055 249.923,138.032 250.284 M227.298 252.930 C 226.068 255.751,226.167 256.305,227.431 253.678 C 227.992 252.511,228.395 251.400,228.326 251.208 C 228.257 251.017,227.794 251.792,227.298 252.930 M262.000 252.613 C 262.000 253.170,261.728 254.278,261.395 255.074 C 260.735 256.653,260.866 257.371,261.573 256.050 C 262.089 255.086,262.623 251.600,262.254 251.600 C 262.114 251.600,262.000 252.056,262.000 252.613 M225.509 256.700 C 225.171 257.085,224.761 257.850,224.598 258.400 C 224.242 259.596,224.379 259.469,225.563 257.500 C 226.529 255.894,226.507 255.564,225.509 256.700 M259.656 260.655 C 259.176 261.727,259.186 261.758,259.818 261.139 C 260.189 260.776,260.420 260.260,260.331 259.994 C 260.242 259.727,259.939 260.025,259.656 260.655 M146.524 263.400 C 146.526 264.720,146.601 265.212,146.690 264.493 C 146.779 263.774,146.777 262.694,146.686 262.093 C 146.595 261.492,146.522 262.080,146.524 263.400 M221.199 263.100 C 218.562 265.887,216.177 267.719,212.800 269.557 C 209.483 271.361,209.301 271.792,212.542 270.169 C 215.941 268.466,219.414 265.688,222.377 262.300 C 223.953 260.498,223.138 261.052,221.199 263.100 M258.432 264.071 C 258.414 264.441,258.109 265.034,257.752 265.390 C 257.396 265.747,257.202 266.135,257.320 266.254 C 257.669 266.602,258.895 264.474,258.669 263.913 C 258.535 263.580,258.452 263.635,258.432 264.071 M145.200 268.422 C 144.650 269.745,143.496 271.542,142.636 272.416 C 141.775 273.290,141.167 274.101,141.285 274.218 C 141.922 274.855,146.696 267.474,146.334 266.411 C 146.260 266.194,145.750 267.098,145.200 268.422 M256.312 268.331 C 255.933 269.116,255.695 269.829,255.782 269.916 C 256.010 270.143,257.273 267.610,257.124 267.226 C 257.056 267.050,256.690 267.547,256.312 268.331 M254.694 271.703 L 253.988 273.000 254.794 272.056 C 255.480 271.252,255.846 270.394,255.500 270.403 C 255.445 270.404,255.082 270.989,254.694 271.703 M250.783 277.454 C 247.833 281.362,242.146 287.012,238.372 289.786 C 235.242 292.086,234.898 292.437,237.000 291.189 C 241.638 288.434,254.509 275.176,253.513 274.180 C 253.432 274.099,252.203 275.572,250.783 277.454 M139.557 274.900 C 139.229 275.175,138.706 275.760,138.396 276.200 C 138.071 276.660,138.418 276.490,139.213 275.800 C 139.974 275.140,140.672 274.555,140.765 274.500 C 140.857 274.445,140.758 274.400,140.543 274.400 C 140.329 274.400,139.885 274.625,139.557 274.900 M138.063 287.000 C 138.038 288.012,139.534 291.627,139.583 290.674 C 139.592 290.494,139.387 289.954,139.126 289.474 C 138.865 288.993,138.526 287.970,138.372 287.200 C 138.100 285.838,138.091 285.832,138.063 287.000 M139.600 291.873 C 139.600 292.516,141.725 295.104,143.000 296.012 L 144.200 296.867 142.948 295.734 C 142.259 295.110,141.224 293.900,140.648 293.044 C 140.072 292.188,139.600 291.661,139.600 291.873 M234.189 292.552 C 233.755 292.856,232.320 293.662,231.000 294.344 C 229.680 295.025,228.841 295.587,229.135 295.592 C 229.764 295.601,234.689 292.904,235.020 292.368 C 235.335 291.857,235.110 291.907,234.189 292.552 M151.600 297.640 C 153.910 297.807,156.430 298.053,157.200 298.186 L 158.600 298.427 157.000 297.820 C 155.903 297.403,154.142 297.232,151.400 297.274 L 147.400 297.336 151.600 297.640 M223.496 297.437 C 223.366 297.567,222.571 297.935,221.730 298.255 L 220.200 298.837 221.595 298.609 C 222.717 298.427,224.769 297.200,223.952 297.200 C 223.832 297.200,223.627 297.307,223.496 297.437 M159.505 298.683 C 160.002 298.779,160.722 298.775,161.105 298.675 C 161.487 298.575,161.080 298.496,160.200 298.501 C 159.320 298.505,159.007 298.587,159.505 298.683 M165.200 299.565 C 166.190 300.000,167.540 300.353,168.200 300.351 C 169.161 300.347,169.002 300.234,167.400 299.782 C 163.944 298.809,163.341 298.749,165.200 299.565 M216.200 299.814 C 215.237 300.255,215.163 300.367,215.824 300.382 C 216.276 300.392,216.996 300.136,217.424 299.813 C 218.387 299.084,217.793 299.085,216.200 299.814 M172.707 300.690 C 173.426 300.779,174.506 300.777,175.107 300.686 C 175.708 300.595,175.120 300.522,173.800 300.524 C 172.480 300.526,171.988 300.601,172.707 300.690 M211.100 300.682 C 211.595 300.778,212.405 300.778,212.900 300.682 C 213.395 300.587,212.990 300.509,212.000 300.509 C 211.010 300.509,210.605 300.587,211.100 300.682 M180.000 301.244 C 181.898 301.799,205.366 301.831,207.200 301.282 C 208.266 300.963,207.550 300.927,204.200 301.131 C 198.510 301.479,190.349 301.473,183.800 301.118 C 180.011 300.912,178.980 300.946,180.000 301.244 " stroke="none" fill="#398ccc" fill-rule="evenodd"></path><path id="path6" d="M169.800 100.646 L 168.200 101.209 169.600 100.989 C 176.562 99.894,175.781 95.815,175.903 133.917 C 176.015 168.944,175.917 167.478,178.119 166.873 C 178.915 166.654,178.884 166.610,177.800 166.411 L 176.600 166.192 176.400 133.938 C 176.208 102.933,176.170 101.651,175.438 100.842 C 174.538 99.848,172.294 99.770,169.800 100.646 M161.900 101.482 C 162.395 101.578,163.205 101.578,163.700 101.482 C 164.195 101.387,163.790 101.309,162.800 101.309 C 161.810 101.309,161.405 101.387,161.900 101.482 M158.576 102.187 C 157.579 102.942,157.958 102.952,159.654 102.216 C 160.647 101.785,160.784 101.627,160.176 101.616 C 159.724 101.607,159.004 101.864,158.576 102.187 M153.305 103.087 C 153.914 103.179,154.814 103.177,155.305 103.082 C 155.797 102.987,155.300 102.911,154.200 102.914 C 153.100 102.917,152.697 102.995,153.305 103.087 M148.200 103.822 C 146.925 104.445,147.296 104.406,150.200 103.611 C 151.304 103.308,151.320 103.280,150.400 103.259 C 149.850 103.246,148.860 103.500,148.200 103.822 M143.305 104.687 C 143.914 104.779,144.814 104.777,145.305 104.682 C 145.797 104.587,145.300 104.511,144.200 104.514 C 143.100 104.517,142.697 104.595,143.305 104.687 M138.662 105.531 C 138.298 105.934,138.000 106.418,138.000 106.608 C 138.000 106.798,138.225 106.645,138.500 106.268 C 138.776 105.892,139.541 105.423,140.200 105.226 C 141.371 104.878,141.375 104.868,140.362 104.834 C 139.791 104.815,139.026 105.129,138.662 105.531 M137.770 115.600 C 137.770 120.330,137.828 122.265,137.898 119.900 C 137.969 117.535,137.969 113.665,137.898 111.300 C 137.828 108.935,137.770 110.870,137.770 115.600 M138.000 125.190 C 138.000 125.436,138.568 125.944,139.263 126.319 C 139.957 126.693,140.820 127.270,141.180 127.600 C 142.686 128.981,143.375 129.347,142.400 128.250 C 141.850 127.631,140.922 126.875,140.338 126.571 C 139.754 126.267,138.989 125.732,138.638 125.381 C 138.282 125.024,138.000 124.940,138.000 125.190 M144.828 132.800 C 144.828 133.130,145.086 133.850,145.400 134.400 C 145.730 134.978,145.972 135.147,145.972 134.800 C 145.972 134.470,145.714 133.750,145.400 133.200 C 145.070 132.622,144.828 132.453,144.828 132.800 M146.070 137.320 C 146.031 138.376,145.719 139.783,145.376 140.447 C 145.032 141.111,144.821 141.864,144.907 142.121 C 145.249 143.147,146.447 138.879,146.296 137.173 L 146.140 135.400 146.070 137.320 M141.156 147.300 C 140.686 148.195,140.688 148.196,141.542 147.438 C 142.495 146.591,142.582 146.400,142.014 146.400 C 141.802 146.400,141.416 146.805,141.156 147.300 M138.889 148.623 C 138.400 148.965,138.003 149.460,138.006 149.723 C 138.010 150.044,138.109 150.061,138.306 149.777 C 138.468 149.544,139.045 149.049,139.589 148.677 C 140.133 148.305,140.398 148.000,140.178 148.000 C 139.958 148.000,139.378 148.280,138.889 148.623 M137.769 158.800 C 137.769 163.310,137.827 165.155,137.898 162.900 C 137.970 160.645,137.970 156.955,137.898 154.700 C 137.827 152.445,137.769 154.290,137.769 158.800 M196.291 161.489 C 197.001 161.577,198.261 161.579,199.091 161.492 C 199.921 161.405,199.340 161.333,197.800 161.331 C 196.260 161.329,195.581 161.400,196.291 161.489 M210.500 161.491 C 211.325 161.578,212.675 161.578,213.500 161.491 C 214.325 161.405,213.650 161.334,212.000 161.334 C 210.350 161.334,209.675 161.405,210.500 161.491 M192.576 162.187 C 191.579 162.942,191.958 162.952,193.654 162.216 C 194.647 161.785,194.784 161.627,194.176 161.616 C 193.724 161.607,193.004 161.864,192.576 162.187 M216.200 161.885 C 216.640 161.991,217.171 162.240,217.380 162.439 C 217.589 162.637,218.039 162.794,218.380 162.787 C 218.872 162.777,218.840 162.654,218.224 162.187 C 217.796 161.864,216.986 161.621,216.424 161.646 C 215.598 161.684,215.555 161.730,216.200 161.885 M220.900 163.076 C 221.285 163.176,221.915 163.176,222.300 163.076 C 222.685 162.975,222.370 162.893,221.600 162.893 C 220.830 162.893,220.515 162.975,220.900 163.076 M185.776 163.787 C 184.766 164.551,185.204 164.559,186.654 163.802 C 187.284 163.474,187.519 163.204,187.176 163.202 C 186.834 163.201,186.204 163.464,185.776 163.787 M224.146 163.802 C 225.596 164.559,226.034 164.551,225.024 163.787 C 224.596 163.464,223.966 163.201,223.624 163.202 C 223.281 163.204,223.516 163.474,224.146 163.802 M180.800 165.400 C 180.166 166.163,180.761 166.156,181.776 165.387 C 182.398 164.917,182.428 164.800,181.925 164.800 C 181.580 164.800,181.074 165.070,180.800 165.400 M228.400 164.990 C 228.400 165.224,230.641 166.401,231.080 166.397 C 231.256 166.396,230.860 166.037,230.200 165.600 C 229.026 164.822,228.400 164.610,228.400 164.990 M232.259 166.797 C 232.732 166.988,233.237 167.337,233.383 167.572 C 233.528 167.807,233.862 167.994,234.124 167.987 C 234.386 167.979,234.175 167.619,233.656 167.187 C 233.136 166.754,232.416 166.411,232.056 166.425 C 231.585 166.444,231.643 166.549,232.259 166.797 M237.229 169.764 C 241.379 172.610,241.592 172.792,246.334 177.537 C 251.157 182.363,251.877 182.527,247.317 177.761 C 244.691 175.017,238.379 169.600,237.806 169.600 C 237.652 169.600,237.069 169.240,236.509 168.800 C 235.950 168.360,235.304 168.000,235.075 168.000 C 234.846 168.000,235.815 168.794,237.229 169.764 M140.785 170.016 C 141.547 170.667,142.336 171.200,142.540 171.200 C 142.743 171.200,142.231 170.660,141.400 170.000 C 139.454 168.454,138.972 168.466,140.785 170.016 M144.814 175.854 C 144.806 176.104,145.063 176.914,145.384 177.654 C 145.788 178.583,145.969 178.752,145.970 178.200 C 145.972 177.363,144.839 175.064,144.814 175.854 M145.299 182.142 C 144.565 183.754,144.684 184.873,145.441 183.477 C 145.776 182.859,145.993 182.060,145.924 181.700 C 145.833 181.230,145.658 181.354,145.299 182.142 M252.272 184.456 C 253.113 185.696,253.869 186.647,253.954 186.568 C 254.147 186.389,253.185 184.975,251.800 183.400 C 251.179 182.694,251.373 183.128,252.272 184.456 M254.013 187.337 C 254.006 187.522,254.360 188.131,254.800 188.691 C 255.240 189.250,255.600 189.524,255.600 189.298 C 255.600 188.800,254.032 186.861,254.013 187.337 M139.367 190.960 C 138.505 191.708,137.890 192.386,138.000 192.466 C 138.110 192.546,138.920 191.935,139.800 191.108 C 141.796 189.232,141.481 189.125,139.367 190.960 M197.700 190.296 C 198.965 190.375,201.035 190.375,202.300 190.296 C 203.565 190.216,202.530 190.151,200.000 190.151 C 197.470 190.151,196.435 190.216,197.700 190.296 M189.887 191.046 C 189.751 191.182,189.046 191.433,188.320 191.605 C 187.233 191.863,187.177 191.922,188.000 191.941 C 189.095 191.966,191.793 190.885,190.767 190.832 C 190.418 190.815,190.022 190.911,189.887 191.046 M209.400 191.414 C 210.060 191.717,210.960 191.964,211.400 191.964 C 211.840 191.965,211.480 191.705,210.600 191.388 C 208.592 190.665,207.800 190.682,209.400 191.414 M183.824 193.013 C 183.396 193.336,183.227 193.600,183.447 193.600 C 183.667 193.600,184.196 193.336,184.624 193.013 C 185.051 192.690,185.220 192.425,185.000 192.425 C 184.780 192.425,184.251 192.690,183.824 193.013 M137.768 201.000 C 137.768 205.400,137.826 207.255,137.898 205.121 C 137.970 202.988,137.970 199.388,137.899 197.121 C 137.827 194.855,137.768 196.600,137.768 201.000 M179.400 194.827 C 178.740 195.250,178.405 195.597,178.656 195.598 C 178.906 195.599,179.536 195.246,180.056 194.813 C 181.245 193.823,180.959 193.829,179.400 194.827 M217.400 194.800 C 217.798 195.240,218.304 195.600,218.524 195.600 C 218.744 195.600,218.598 195.240,218.200 194.800 C 217.802 194.360,217.296 194.000,217.076 194.000 C 216.856 194.000,217.002 194.360,217.400 194.800 M257.686 195.100 C 258.021 195.485,258.395 196.070,258.516 196.400 C 258.668 196.814,258.747 196.837,258.768 196.474 C 258.815 195.694,258.038 194.400,257.524 194.400 C 257.255 194.400,257.320 194.680,257.686 195.100 M176.646 196.586 C 175.686 198.052,175.653 270.414,176.613 271.211 C 177.151 271.657,177.175 271.587,176.813 270.634 C 176.071 268.682,176.259 198.232,177.010 196.780 C 177.752 195.346,177.534 195.230,176.646 196.586 M258.825 198.456 C 258.811 198.816,259.154 199.536,259.587 200.056 C 260.019 200.575,260.379 200.786,260.387 200.524 C 260.394 200.262,260.207 199.928,259.972 199.783 C 259.737 199.637,259.388 199.132,259.197 198.659 C 258.949 198.043,258.844 197.985,258.825 198.456 M222.800 199.902 C 222.800 200.400,224.368 202.339,224.387 201.863 C 224.394 201.678,224.040 201.069,223.600 200.509 C 223.160 199.950,222.800 199.676,222.800 199.902 M225.164 204.200 C 225.858 205.557,226.387 206.222,226.394 205.744 C 226.397 205.494,226.030 204.864,225.577 204.344 C 224.931 203.602,224.842 203.571,225.164 204.200 M260.800 204.634 C 260.800 204.857,260.999 205.239,261.243 205.483 C 261.487 205.727,261.843 206.528,262.036 207.263 C 262.381 208.579,262.383 208.576,262.206 207.028 C 262.051 205.663,260.800 203.535,260.800 204.634 M226.403 206.806 C 226.404 207.133,226.763 207.940,227.200 208.600 C 228.228 210.152,228.228 209.622,227.200 207.704 C 226.760 206.884,226.401 206.479,226.403 206.806 M262.436 209.686 C 262.416 210.283,262.655 211.543,262.966 212.486 C 263.277 213.429,263.617 214.560,263.720 215.000 L 263.907 215.800 263.944 215.000 C 263.965 214.560,263.642 212.940,263.227 211.400 C 262.768 209.698,262.458 209.026,262.436 209.686 M228.248 211.963 C 228.382 212.933,228.734 214.283,229.030 214.963 C 229.800 216.731,229.698 215.818,228.788 212.800 C 228.128 210.609,228.043 210.477,228.248 211.963 M229.852 220.200 C 230.266 224.479,230.310 236.335,229.930 241.400 L 229.661 245.000 230.202 241.600 C 231.369 234.275,231.064 218.061,229.737 216.818 C 229.608 216.698,229.660 218.220,229.852 220.200 M264.200 231.168 C 264.200 240.016,264.330 244.993,264.533 243.934 C 264.961 241.709,264.954 221.224,264.526 218.634 C 264.328 217.441,264.200 222.369,264.200 231.168 M144.828 218.400 C 144.828 218.730,145.086 219.450,145.400 220.000 C 145.730 220.578,145.972 220.747,145.972 220.400 C 145.972 220.070,145.714 219.350,145.400 218.800 C 145.070 218.222,144.828 218.053,144.828 218.400 M145.300 224.470 C 144.602 226.405,144.703 227.296,145.430 225.621 C 145.759 224.862,145.977 223.981,145.914 223.662 C 145.851 223.344,145.575 223.707,145.300 224.470 M143.240 229.630 C 142.829 230.307,142.111 231.127,141.646 231.453 C 141.181 231.779,140.801 232.260,140.802 232.523 C 140.803 232.785,141.613 232.108,142.602 231.017 C 144.247 229.202,144.735 228.400,144.194 228.400 C 144.081 228.400,143.652 228.954,143.240 229.630 M138.770 233.900 L 137.800 235.000 139.000 234.000 C 139.660 233.450,140.275 232.955,140.367 232.900 C 140.458 232.845,140.355 232.800,140.136 232.800 C 139.918 232.800,139.303 233.295,138.770 233.900 M137.766 242.800 C 137.766 246.870,137.825 248.535,137.898 246.500 C 137.971 244.465,137.971 241.135,137.898 239.100 C 137.825 237.065,137.766 238.730,137.766 242.800 M228.800 246.800 C 228.509 247.682,228.378 248.511,228.509 248.642 C 228.640 248.773,228.951 248.124,229.200 247.200 C 229.787 245.019,229.487 244.719,228.800 246.800 M263.278 248.627 C 262.388 251.987,262.336 253.622,263.208 250.800 C 263.650 249.370,263.964 247.852,263.906 247.427 C 263.848 247.002,263.565 247.542,263.278 248.627 M227.079 252.374 C 226.706 253.006,226.408 253.766,226.418 254.062 C 226.427 254.358,226.800 253.908,227.247 253.062 C 228.201 251.254,228.067 250.702,227.079 252.374 M140.400 252.685 C 140.400 253.034,141.999 254.138,142.200 253.928 C 142.267 253.857,141.889 253.477,141.361 253.081 C 140.832 252.686,140.400 252.508,140.400 252.685 M262.032 254.611 C 262.014 255.057,261.720 255.822,261.377 256.311 C 261.035 256.800,260.923 257.200,261.129 257.200 C 261.641 257.200,262.529 254.963,262.272 254.320 C 262.153 254.023,262.050 254.148,262.032 254.611 M226.032 255.313 C 226.014 255.704,225.730 256.129,225.400 256.255 C 225.070 256.382,224.800 256.686,224.800 256.932 C 224.800 257.177,225.181 256.997,225.647 256.531 C 226.113 256.065,226.397 255.440,226.279 255.142 C 226.132 254.773,226.053 254.828,226.032 255.313 M144.800 258.431 C 144.800 258.766,144.999 259.239,145.243 259.483 C 145.487 259.727,145.843 260.528,146.036 261.263 L 146.386 262.600 146.219 261.105 C 146.049 259.586,144.800 257.232,144.800 258.431 M223.000 260.400 C 222.659 261.060,222.223 261.600,222.033 261.600 C 221.842 261.600,221.575 261.915,221.440 262.300 C 221.305 262.685,221.743 262.370,222.415 261.600 C 224.360 259.369,224.473 259.200,224.026 259.200 C 223.803 259.200,223.341 259.740,223.000 260.400 M217.800 265.854 C 216.920 266.635,215.537 267.615,214.727 268.031 C 213.917 268.448,213.130 268.989,212.979 269.234 C 212.476 270.047,215.990 267.827,217.910 266.118 C 218.950 265.193,219.710 264.435,219.600 264.435 C 219.490 264.434,218.680 265.072,217.800 265.854 M257.861 265.867 C 257.454 266.410,257.215 266.948,257.329 267.062 C 257.443 267.176,257.845 266.798,258.222 266.222 C 259.112 264.864,258.823 264.580,257.861 265.867 M145.232 267.139 C 144.995 267.584,144.807 268.184,144.816 268.474 C 144.825 268.763,145.109 268.489,145.447 267.865 C 145.786 267.240,145.973 266.640,145.864 266.530 C 145.754 266.421,145.470 266.695,145.232 267.139 M256.280 269.280 C 255.892 269.956,255.657 270.591,255.758 270.691 C 255.859 270.792,256.238 270.301,256.600 269.600 C 257.457 267.943,257.197 267.683,256.280 269.280 M210.265 270.247 C 209.640 270.586,209.218 270.952,209.327 271.060 C 209.436 271.169,210.216 270.893,211.062 270.447 C 211.908 270.000,212.330 269.635,212.000 269.634 C 211.670 269.633,210.889 269.909,210.265 270.247 M142.043 272.441 C 140.265 274.424,139.992 275.192,141.682 273.458 C 143.750 271.335,144.520 270.402,144.170 270.441 C 143.966 270.463,143.010 271.363,142.043 272.441 M254.433 272.633 C 253.912 273.395,253.560 274.093,253.651 274.185 C 253.743 274.276,254.245 273.728,254.767 272.967 C 255.288 272.205,255.640 271.507,255.549 271.415 C 255.457 271.324,254.955 271.872,254.433 272.633 M179.800 272.177 C 181.120 272.491,182.830 272.749,183.600 272.749 C 186.022 272.750,183.669 272.086,180.342 271.831 L 177.400 271.605 179.800 272.177 M204.000 272.102 C 203.095 272.381,202.838 272.588,203.273 272.690 C 203.643 272.777,204.723 272.576,205.673 272.243 C 207.722 271.525,206.274 271.403,204.000 272.102 M187.800 273.257 C 191.004 273.599,198.559 273.607,200.796 273.270 C 201.783 273.122,198.723 273.000,193.996 273.000 C 189.241 273.000,186.472 273.115,187.800 273.257 M138.911 274.900 C 138.230 275.781,137.917 276.630,138.570 275.824 C 138.917 275.397,139.425 274.904,139.700 274.730 C 140.027 274.522,140.044 274.410,139.749 274.406 C 139.501 274.403,139.124 274.625,138.911 274.900 M251.026 277.782 C 249.790 279.454,248.063 281.537,247.189 282.411 C 246.315 283.285,245.736 284.000,245.901 284.000 C 246.324 284.000,248.223 281.937,250.455 279.053 C 251.499 277.704,252.649 276.270,253.010 275.867 C 253.371 275.463,253.578 275.045,253.471 274.937 C 253.363 274.830,252.263 276.110,251.026 277.782 M137.754 281.600 C 137.754 284.350,137.818 285.475,137.896 284.100 C 137.974 282.725,137.974 280.475,137.896 279.100 C 137.818 277.725,137.754 278.850,137.754 281.600 M243.907 285.700 C 241.408 288.013,238.264 290.432,235.412 292.236 C 233.879 293.206,232.771 294.000,232.951 294.000 C 233.960 294.000,241.623 288.428,244.576 285.547 C 246.193 283.969,245.641 284.095,243.907 285.700 M138.019 288.800 C 138.012 289.130,138.363 289.940,138.800 290.600 C 139.810 292.125,139.810 291.445,138.800 289.600 C 138.378 288.830,138.027 288.470,138.019 288.800 M231.000 294.827 C 230.340 295.250,230.005 295.597,230.256 295.598 C 230.506 295.599,231.136 295.246,231.656 294.813 C 232.845 293.823,232.559 293.829,231.000 294.827 M142.639 296.156 C 142.761 296.476,143.144 296.846,143.488 296.978 C 144.463 297.352,144.414 297.069,143.368 296.287 C 142.651 295.750,142.470 295.718,142.639 296.156 M227.200 296.485 C 225.802 297.271,225.802 297.272,227.000 297.010 C 227.660 296.866,228.464 296.489,228.786 296.174 C 229.579 295.397,228.897 295.531,227.200 296.485 M146.200 297.596 C 146.640 297.757,149.160 297.981,151.800 298.094 C 154.440 298.206,156.240 298.166,155.800 298.004 C 155.360 297.843,152.840 297.619,150.200 297.506 C 147.560 297.394,145.760 297.434,146.200 297.596 M223.783 297.628 C 223.637 297.863,223.132 298.212,222.659 298.403 C 222.072 298.640,222.002 298.757,222.439 298.775 C 222.790 298.789,223.493 298.440,224.000 298.000 C 224.507 297.560,224.725 297.200,224.485 297.200 C 224.244 297.200,223.928 297.393,223.783 297.628 M164.576 299.813 C 165.004 300.136,165.724 300.393,166.176 300.384 C 166.784 300.373,166.647 300.215,165.654 299.784 C 163.958 299.048,163.579 299.058,164.576 299.813 M217.424 299.813 C 216.802 300.283,216.772 300.400,217.275 300.400 C 217.620 300.400,218.126 300.130,218.400 299.800 C 219.034 299.037,218.439 299.044,217.424 299.813 M168.905 300.687 C 169.514 300.779,170.414 300.777,170.905 300.682 C 171.397 300.587,170.900 300.511,169.800 300.514 C 168.700 300.517,168.297 300.595,168.905 300.687 M214.100 300.676 C 214.485 300.776,215.115 300.776,215.500 300.676 C 215.885 300.575,215.570 300.493,214.800 300.493 C 214.030 300.493,213.715 300.575,214.100 300.676 M176.800 301.228 C 177.350 301.475,180.050 301.729,182.800 301.794 C 187.757 301.910,187.767 301.909,184.000 301.605 C 181.910 301.437,179.210 301.183,178.000 301.040 C 176.188 300.826,175.976 300.859,176.800 301.228 M208.303 301.031 C 208.176 301.158,206.481 301.416,204.536 301.605 L 201.000 301.948 204.800 301.818 C 206.890 301.746,209.050 301.499,209.600 301.269 L 210.600 300.851 209.567 300.825 C 208.998 300.811,208.430 300.904,208.303 301.031 M192.500 302.294 C 193.545 302.376,195.255 302.376,196.300 302.294 C 197.345 302.212,196.490 302.144,194.400 302.144 C 192.310 302.144,191.455 302.212,192.500 302.294 " stroke="none" fill="#2a82cc" fill-rule="evenodd"></path><path id="path7" d="M168.463 100.097 C 168.190 100.370,166.939 100.703,165.683 100.838 L 163.400 101.082 165.636 101.141 C 166.866 101.174,168.756 100.932,169.836 100.604 C 172.656 99.749,174.520 99.828,175.438 100.842 C 176.170 101.651,176.208 102.934,176.400 133.942 L 176.600 166.200 178.000 166.256 C 179.046 166.298,179.122 166.266,178.300 166.130 L 177.200 165.947 177.200 133.827 C 177.200 95.980,177.723 99.600,172.251 99.600 C 170.164 99.600,168.778 99.782,168.463 100.097 M157.300 101.612 C 156.805 101.811,156.400 102.160,156.400 102.387 C 156.400 102.937,157.724 102.916,158.283 102.357 C 158.527 102.113,159.328 101.772,160.063 101.598 L 161.400 101.282 159.800 101.266 C 158.920 101.258,157.795 101.413,157.300 101.612 M147.230 103.151 C 146.228 103.431,145.578 104.400,146.393 104.400 C 146.646 104.400,147.233 104.196,147.698 103.948 C 148.163 103.699,149.456 103.361,150.572 103.197 L 152.600 102.900 150.400 102.890 C 149.190 102.884,147.763 103.002,147.230 103.151 M138.178 104.836 C 135.603 109.002,136.484 126.193,139.324 127.183 C 139.985 127.414,140.778 127.962,141.086 128.401 C 141.394 128.841,141.905 129.200,142.223 129.200 C 142.540 129.200,142.800 129.532,142.800 129.938 C 142.800 130.344,143.160 131.002,143.600 131.400 C 144.040 131.798,144.400 132.613,144.400 133.212 C 144.400 133.810,144.661 135.040,144.981 135.946 C 145.489 137.386,145.489 137.768,144.981 138.984 C 144.661 139.749,144.408 140.965,144.418 141.687 L 144.435 143.000 145.091 141.400 C 147.172 136.320,144.365 128.990,139.322 126.336 C 137.664 125.463,137.510 124.345,137.672 114.341 C 137.818 105.358,137.952 104.963,140.943 104.691 C 142.493 104.549,142.466 104.535,140.524 104.470 C 139.381 104.431,138.326 104.596,138.178 104.836 M143.214 143.974 C 142.540 145.232,142.740 145.660,143.600 144.800 C 144.040 144.360,144.400 143.820,144.400 143.600 C 144.400 142.922,143.651 143.158,143.214 143.974 M140.817 146.767 C 140.591 147.190,139.865 147.654,139.203 147.799 C 138.324 147.992,137.936 148.352,137.767 149.132 C 137.639 149.719,137.369 150.722,137.167 151.360 C 136.592 153.178,136.721 165.138,137.335 166.901 C 137.622 167.726,138.474 168.933,139.229 169.583 C 139.983 170.233,140.885 171.043,141.234 171.383 C 141.582 171.722,142.064 172.000,142.306 172.000 C 142.547 172.000,142.802 172.403,142.872 172.896 C 142.942 173.389,143.316 173.852,143.701 173.925 C 144.916 174.157,142.901 171.583,140.464 169.791 C 137.623 167.703,137.594 167.587,137.640 158.674 C 137.687 149.573,137.756 149.228,139.709 148.267 C 140.529 147.864,141.200 147.363,141.200 147.154 C 141.200 146.945,141.605 146.611,142.100 146.412 L 143.000 146.051 142.114 146.025 C 141.627 146.011,141.043 146.345,140.817 146.767 M202.100 161.097 C 203.805 161.172,206.595 161.172,208.300 161.097 C 210.005 161.022,208.610 160.961,205.200 160.961 C 201.790 160.961,200.395 161.022,202.100 161.097 M191.144 161.987 C 190.239 162.741,190.234 162.774,191.020 162.787 C 191.471 162.794,192.039 162.601,192.283 162.357 C 192.527 162.113,193.328 161.772,194.063 161.598 L 195.400 161.282 193.744 161.241 C 192.638 161.214,191.775 161.461,191.144 161.987 M216.200 161.572 C 217.080 161.722,218.197 162.098,218.682 162.407 C 219.798 163.119,220.406 162.592,219.371 161.809 C 218.914 161.463,217.787 161.241,216.600 161.263 L 214.600 161.300 216.200 161.572 M184.977 163.367 C 184.550 163.679,184.332 164.065,184.491 164.224 C 184.650 164.384,185.056 164.285,185.393 164.006 C 185.729 163.727,186.589 163.359,187.302 163.190 L 188.600 162.882 187.176 162.841 C 186.394 162.818,185.404 163.055,184.977 163.367 M223.613 163.176 C 224.170 163.346,225.016 163.728,225.494 164.027 C 225.972 164.325,226.494 164.440,226.653 164.281 C 227.170 163.763,225.435 162.825,224.000 162.847 C 222.724 162.867,222.690 162.896,223.613 163.176 M180.100 164.665 C 179.535 164.893,179.411 166.000,179.951 166.000 C 180.144 166.000,180.517 165.741,180.780 165.424 C 181.043 165.107,181.740 164.774,182.329 164.684 C 183.184 164.553,183.117 164.514,182.000 164.492 C 181.230 164.476,180.375 164.554,180.100 164.665 M229.819 165.354 C 230.909 165.878,232.250 166.512,232.800 166.762 C 233.350 167.012,234.520 167.654,235.400 168.189 C 236.280 168.724,237.270 169.291,237.600 169.448 C 239.695 170.448,250.360 180.289,250.392 181.252 C 250.409 181.766,254.000 186.121,254.000 185.628 C 254.000 185.346,253.550 184.581,253.000 183.927 C 252.450 183.273,252.000 182.482,252.000 182.169 C 252.000 181.856,251.816 181.600,251.591 181.600 C 251.367 181.600,250.978 181.150,250.727 180.600 C 250.477 180.050,250.059 179.600,249.800 179.600 C 249.541 179.600,249.123 179.150,248.873 178.600 C 248.622 178.050,248.143 177.600,247.809 177.600 C 247.474 177.600,247.194 177.375,247.187 177.100 C 247.171 176.465,245.371 174.400,244.833 174.400 C 244.610 174.400,244.235 174.040,244.000 173.600 C 243.765 173.160,243.421 172.800,243.236 172.800 C 243.052 172.800,242.203 172.149,241.350 171.354 C 240.498 170.559,239.215 169.657,238.500 169.349 C 237.785 169.041,237.200 168.631,237.200 168.438 C 237.200 168.245,236.728 167.968,236.152 167.824 C 235.575 167.679,234.833 167.291,234.503 166.961 C 234.174 166.631,233.394 166.259,232.772 166.134 C 232.150 166.010,231.334 165.569,230.958 165.154 C 230.574 164.730,229.743 164.400,229.057 164.400 C 227.912 164.400,227.958 164.458,229.819 165.354 M144.542 180.061 C 144.546 182.918,144.671 184.494,144.836 183.800 C 144.994 183.140,145.357 182.022,145.644 181.315 C 146.097 180.196,146.059 179.713,145.349 177.576 L 144.533 175.122 144.542 180.061 M143.497 186.050 C 143.114 186.264,142.800 186.791,142.800 187.220 C 142.800 187.649,142.536 188.000,142.214 188.000 C 141.892 188.000,141.435 188.360,141.200 188.800 C 140.965 189.240,140.508 189.600,140.186 189.600 C 136.190 189.600,135.140 210.532,139.061 212.023 C 140.384 212.526,141.751 212.490,140.495 211.986 C 137.825 210.913,137.800 210.813,137.800 201.123 L 137.800 192.291 139.363 191.046 C 142.895 188.231,145.737 184.796,143.497 186.050 M254.000 186.637 C 254.000 186.767,254.360 187.331,254.800 187.891 C 255.507 188.790,255.600 188.818,255.600 188.134 C 255.600 187.708,255.384 187.144,255.120 186.880 C 254.612 186.372,254.000 186.239,254.000 186.637 M255.600 189.714 C 255.600 190.066,255.793 190.472,256.028 190.617 C 256.263 190.763,256.612 191.268,256.803 191.741 C 257.131 192.556,257.151 192.546,257.175 191.562 C 257.189 190.991,256.840 190.198,256.400 189.800 C 255.703 189.169,255.600 189.158,255.600 189.714 M196.700 190.698 C 198.515 190.772,201.485 190.772,203.300 190.698 C 205.115 190.623,203.630 190.563,200.000 190.563 C 196.370 190.563,194.885 190.623,196.700 190.698 M190.200 191.414 C 189.540 191.717,188.460 191.978,187.800 191.994 C 186.186 192.036,182.129 193.991,183.646 193.996 C 184.221 193.998,185.150 193.640,185.709 193.200 C 186.324 192.717,187.335 192.399,188.263 192.398 C 190.075 192.395,192.671 191.732,193.009 191.185 C 193.353 190.629,191.604 190.772,190.200 191.414 M207.237 191.374 C 207.622 191.780,208.808 192.140,210.237 192.286 C 211.881 192.453,212.759 192.751,213.123 193.263 C 213.412 193.671,214.127 193.997,214.723 193.994 L 215.800 193.988 214.800 193.410 C 212.869 192.293,211.352 191.770,207.600 190.928 C 206.676 190.721,206.648 190.754,207.237 191.374 M257.200 193.402 C 257.200 193.792,257.493 194.326,257.852 194.589 C 258.211 194.851,258.655 195.771,258.839 196.633 L 259.174 198.200 259.027 196.514 C 258.877 194.800,257.200 191.943,257.200 193.402 M180.056 194.813 C 179.315 195.431,179.254 195.600,179.772 195.600 C 180.136 195.600,180.820 195.240,181.292 194.800 C 182.444 193.727,181.345 193.739,180.056 194.813 M216.000 194.351 C 216.000 194.890,216.888 195.506,218.102 195.811 C 218.706 195.963,219.200 196.325,219.200 196.616 C 219.200 196.908,219.560 197.260,220.000 197.400 C 220.440 197.540,220.800 197.794,220.800 197.966 C 220.800 198.561,222.407 200.127,222.703 199.820 C 222.866 199.651,222.595 199.240,222.100 198.907 C 221.605 198.575,221.200 198.054,221.200 197.751 C 221.200 197.448,220.936 197.200,220.614 197.200 C 220.292 197.200,219.835 196.840,219.600 196.400 C 219.365 195.960,218.936 195.600,218.648 195.600 C 218.360 195.600,217.798 195.240,217.400 194.800 C 216.641 193.961,216.000 193.756,216.000 194.351 M177.010 196.780 C 176.341 198.074,176.108 268.907,176.767 270.595 C 177.419 272.266,194.947 273.854,201.000 272.790 C 205.388 272.019,208.671 271.150,210.054 270.395 C 210.854 269.958,211.717 269.600,211.971 269.600 C 212.225 269.600,212.920 269.268,213.516 268.863 C 214.112 268.457,215.320 267.648,216.200 267.065 C 218.272 265.691,221.371 262.800,220.771 262.800 C 220.515 262.800,219.643 263.483,218.833 264.319 C 218.022 265.154,216.783 266.076,216.079 266.367 C 215.376 266.659,214.800 267.052,214.800 267.241 C 214.800 267.430,214.350 267.698,213.800 267.836 C 213.250 267.974,212.800 268.240,212.800 268.428 C 212.800 268.615,211.870 269.045,210.733 269.383 C 209.597 269.720,208.382 270.244,208.033 270.546 C 207.676 270.856,206.053 271.192,204.304 271.317 C 202.601 271.438,200.638 271.822,199.942 272.169 C 198.224 273.026,191.669 273.021,189.200 272.161 C 188.134 271.790,185.320 271.441,182.300 271.307 L 177.200 271.079 177.200 233.962 L 177.200 196.845 178.089 196.223 C 178.807 195.720,178.848 195.600,178.299 195.600 C 177.926 195.600,177.346 196.131,177.010 196.780 M259.200 198.776 C 259.200 198.983,259.393 199.272,259.628 199.417 C 259.863 199.563,260.212 200.068,260.403 200.541 C 260.694 201.264,260.753 201.285,260.775 200.674 C 260.789 200.274,260.614 199.599,260.386 199.174 C 259.956 198.371,259.200 198.118,259.200 198.776 M222.800 200.917 C 222.800 201.602,223.975 202.958,224.293 202.640 C 224.402 202.531,224.111 201.958,223.646 201.367 C 223.070 200.636,222.800 200.492,222.800 200.917 M260.800 203.075 C 260.800 203.750,261.065 204.522,261.389 204.791 C 261.714 205.060,262.092 205.937,262.230 206.740 C 262.368 207.543,262.803 209.550,263.196 211.200 C 265.645 221.473,265.646 240.677,263.198 251.000 C 262.780 252.760,262.340 254.682,262.219 255.272 C 262.098 255.862,261.717 256.626,261.373 256.970 C 261.028 257.315,260.804 258.067,260.873 258.643 C 261.122 260.699,263.503 255.292,263.833 251.923 C 263.990 250.315,264.407 248.558,264.759 248.018 C 265.731 246.528,265.725 216.002,264.753 214.200 C 264.397 213.540,263.978 211.669,263.823 210.043 C 263.665 208.395,263.199 206.450,262.770 205.649 C 262.347 204.858,261.994 204.029,261.987 203.806 C 261.948 202.564,260.800 201.856,260.800 203.075 M224.402 203.884 C 224.401 204.371,224.734 205.091,225.143 205.484 C 225.552 205.878,225.994 206.897,226.126 207.750 C 226.258 208.602,226.627 209.592,226.946 209.950 C 227.265 210.307,227.655 211.680,227.811 213.000 C 227.968 214.320,228.389 215.734,228.748 216.142 C 229.739 217.269,229.734 243.693,228.742 245.200 C 228.381 245.750,227.964 247.222,227.817 248.472 C 227.670 249.722,227.296 250.955,226.985 251.212 C 226.675 251.470,226.300 252.329,226.151 253.121 C 226.002 253.913,225.548 254.919,225.140 255.356 C 224.733 255.793,224.414 256.522,224.432 256.975 C 224.454 257.560,224.529 257.625,224.690 257.200 C 224.815 256.870,225.147 256.464,225.427 256.298 C 225.708 256.131,226.061 255.411,226.212 254.698 C 226.363 253.984,226.808 252.860,227.201 252.200 C 227.594 251.540,228.045 250.190,228.204 249.200 C 228.363 248.210,228.681 247.043,228.911 246.606 C 230.721 243.167,230.705 217.959,228.890 214.569 C 228.664 214.146,228.350 212.900,228.192 211.800 C 228.035 210.700,227.567 209.239,227.153 208.553 C 226.739 207.867,226.394 207.057,226.388 206.753 C 226.364 205.712,224.404 202.881,224.402 203.884 M141.200 213.228 C 141.200 213.474,141.560 213.769,142.000 213.884 C 142.440 213.999,142.800 214.404,142.800 214.785 C 142.800 215.165,143.160 215.802,143.600 216.200 C 144.277 216.813,144.400 216.829,144.400 216.305 C 144.400 215.964,144.130 215.582,143.800 215.455 C 143.470 215.329,143.200 214.970,143.200 214.659 C 143.200 214.347,142.750 213.797,142.200 213.437 C 141.588 213.036,141.200 212.955,141.200 213.228 M144.532 222.200 C 144.527 225.060,144.594 227.130,144.680 226.800 C 144.766 226.470,145.136 225.252,145.503 224.093 C 146.072 222.297,146.093 221.796,145.647 220.693 C 145.359 219.982,144.992 218.860,144.832 218.200 C 144.662 217.502,144.537 219.176,144.532 222.200 M143.017 228.748 C 142.761 229.553,139.653 232.540,138.685 232.912 C 135.929 233.969,136.055 251.566,138.824 252.290 C 139.251 252.402,139.600 252.730,139.600 253.020 C 139.600 253.309,139.978 253.666,140.439 253.813 C 141.369 254.108,142.800 255.404,142.800 255.951 C 142.800 256.473,143.979 257.354,144.278 257.055 C 144.420 256.913,144.146 256.381,143.668 255.873 C 143.191 255.364,142.800 254.735,142.800 254.474 C 142.800 254.213,142.564 254.000,142.275 254.000 C 141.987 254.000,141.362 253.637,140.886 253.194 C 140.410 252.751,139.578 252.220,139.038 252.014 C 136.288 250.969,137.246 232.800,140.052 232.800 C 140.499 232.800,142.439 230.822,143.484 229.300 C 144.141 228.342,144.228 228.000,143.815 228.000 C 143.506 228.000,143.147 228.337,143.017 228.748 M144.446 258.656 C 144.420 259.376,144.736 260.314,145.187 260.856 C 146.120 261.976,146.342 261.067,145.448 259.789 C 145.145 259.355,144.805 258.640,144.694 258.200 C 144.556 257.650,144.478 257.793,144.446 258.656 M223.490 258.701 C 222.510 259.784,222.631 260.569,223.625 259.575 C 224.079 259.121,224.389 258.567,224.315 258.344 C 224.240 258.121,223.869 258.282,223.490 258.701 M260.446 260.913 C 260.421 261.304,260.130 261.729,259.800 261.855 C 259.470 261.982,259.200 262.376,259.200 262.732 C 259.200 263.265,259.346 263.232,260.039 262.539 C 260.525 262.053,260.797 261.385,260.685 260.950 C 260.511 260.271,260.488 260.268,260.446 260.913 M221.900 261.076 C 221.515 261.176,221.200 261.514,221.200 261.825 C 221.200 262.275,221.365 262.251,222.000 261.707 C 222.686 261.119,223.035 260.691,222.700 260.846 C 222.645 260.872,222.285 260.975,221.900 261.076 M258.800 264.479 C 258.800 265.036,258.440 265.950,258.000 266.509 C 257.560 267.069,257.200 267.726,257.200 267.970 C 257.200 268.571,255.220 272.418,254.433 273.346 C 253.847 274.037,253.857 274.082,254.571 273.946 C 255.018 273.862,255.471 273.319,255.648 272.657 C 255.816 272.028,256.214 271.218,256.532 270.857 C 256.851 270.496,257.238 269.603,257.393 268.873 C 257.548 268.143,257.915 267.454,258.208 267.342 C 258.766 267.127,259.454 264.121,259.040 263.706 C 258.908 263.575,258.800 263.922,258.800 264.479 M145.075 266.014 C 144.704 266.544,144.415 267.523,144.434 268.189 L 144.469 269.400 144.807 268.274 C 144.992 267.655,145.354 266.896,145.610 266.588 C 145.866 266.279,146.002 265.807,145.913 265.539 C 145.813 265.239,145.489 265.423,145.075 266.014 M143.200 269.922 C 143.200 270.430,140.675 273.025,139.900 273.314 C 139.515 273.457,139.200 273.761,139.200 273.987 C 139.200 274.214,138.925 274.400,138.590 274.400 C 138.231 274.400,137.880 274.898,137.738 275.608 C 137.605 276.273,137.340 276.914,137.148 277.032 C 136.644 277.344,136.746 282.005,137.355 286.400 C 137.954 290.727,139.575 294.435,141.620 296.155 C 143.722 297.924,143.711 297.313,141.601 295.124 C 140.501 293.982,139.600 292.788,139.600 292.471 C 139.600 292.154,139.217 291.276,138.750 290.519 C 136.665 287.145,137.437 274.400,139.727 274.400 C 140.236 274.400,144.400 270.331,144.400 269.834 C 144.400 269.705,144.130 269.600,143.800 269.600 C 143.470 269.600,143.200 269.745,143.200 269.922 M253.600 274.800 C 253.600 275.020,253.319 275.515,252.976 275.900 C 252.634 276.285,251.462 277.750,250.373 279.155 C 246.868 283.679,240.762 289.332,236.685 291.828 C 232.024 294.680,231.332 295.067,229.600 295.783 C 228.037 296.430,227.010 297.188,227.690 297.194 C 228.070 297.197,228.970 296.841,229.690 296.401 C 230.411 295.962,231.287 295.602,231.638 295.601 C 231.989 295.601,232.602 295.240,233.000 294.800 C 233.398 294.360,234.050 294.000,234.448 294.000 C 234.846 294.000,235.353 293.661,235.575 293.246 C 235.797 292.831,236.477 292.367,237.086 292.214 C 237.695 292.061,238.465 291.684,238.797 291.376 C 240.472 289.819,241.748 288.800,242.022 288.800 C 242.619 288.800,249.200 282.038,249.200 281.425 C 249.200 281.081,249.467 280.800,249.792 280.800 C 250.118 280.800,250.498 280.350,250.636 279.800 C 250.774 279.250,251.137 278.800,251.443 278.800 C 251.750 278.800,252.000 278.629,252.000 278.421 C 252.000 278.212,252.450 277.556,253.000 276.962 C 253.871 276.023,254.377 274.400,253.800 274.400 C 253.690 274.400,253.600 274.580,253.600 274.800 M145.144 297.970 C 145.953 298.680,146.616 298.800,149.744 298.802 C 151.755 298.803,155.470 298.880,158.000 298.973 C 163.379 299.171,160.377 298.776,151.000 298.051 C 148.360 297.847,145.750 297.558,145.200 297.409 L 144.200 297.139 145.144 297.970 M224.177 297.880 C 223.803 298.254,222.755 298.696,221.849 298.863 C 220.405 299.129,220.468 299.146,222.355 298.996 C 223.540 298.902,224.800 298.573,225.155 298.265 C 225.510 297.956,226.070 297.605,226.400 297.484 C 226.747 297.356,226.547 297.250,225.929 297.232 C 225.339 297.214,224.551 297.506,224.177 297.880 M162.800 299.586 C 162.800 300.290,164.323 300.801,166.274 300.750 L 168.200 300.700 166.492 300.422 C 165.553 300.269,164.572 299.932,164.312 299.672 C 163.743 299.103,162.800 299.049,162.800 299.586 M218.420 299.776 C 218.157 300.093,217.460 300.426,216.871 300.516 C 215.876 300.669,215.889 300.684,217.056 300.740 C 217.792 300.775,218.702 300.474,219.256 300.013 C 219.990 299.401,220.055 299.224,219.549 299.213 C 219.191 299.206,218.683 299.459,218.420 299.776 M172.200 301.415 C 182.365 303.483,208.798 303.349,214.125 301.203 C 215.730 300.557,211.429 300.748,208.920 301.435 C 206.045 302.221,182.452 302.340,178.800 301.587 C 177.590 301.337,174.980 301.068,173.000 300.989 L 169.400 300.846 172.200 301.415 " stroke="none" fill="#1474c4" fill-rule="evenodd"></path><path id="path8" d="" stroke="none" fill="#1078e4" fill-rule="evenodd"></path></g></svg>