<svg width="28" height="32" viewBox="0 0 28 32" fill="none" xmlns="http://www.w3.org/2000/svg">
<path d="M24.6804 0.00195312H3.27491C1.46972 0.00195312 0 1.47157 0 3.2927V24.8901C0 26.7112 1.46961 28.1808 3.2748 28.1808H21.3898L20.543 25.2255L22.5878 27.1265L24.5206 28.9156L27.9552 31.9507V3.2927C27.9552 1.47157 26.4856 0.00195312 24.6804 0.00195312ZM18.5143 20.8646C18.5143 20.8646 17.9393 20.1776 17.46 19.5706C19.5527 18.9795 20.3514 17.6696 20.3514 17.6696C19.6964 18.101 19.0734 18.4046 18.5143 18.612C17.7156 18.9476 16.9488 19.1711 16.1981 19.299C14.6645 19.5865 13.2587 19.5067 12.0607 19.2831C11.1501 19.1073 10.3673 18.8517 9.71247 18.5962C9.34501 18.4524 8.94566 18.2767 8.54621 18.053C8.49838 18.021 8.45044 18.0051 8.4025 17.9731C8.37062 17.9572 8.35456 17.9412 8.33862 17.9253C8.0511 17.7655 7.89134 17.6537 7.89134 17.6537C7.89134 17.6537 8.65814 18.9317 10.6869 19.5386C10.2077 20.1458 9.61659 20.8645 9.61659 20.8645C6.08615 20.7527 4.74441 18.4364 4.74441 18.4364C4.74441 13.2927 7.04471 9.12332 7.04471 9.12332C9.34501 7.39807 11.5335 7.44601 11.5335 7.44601L11.6932 7.63776C8.8179 8.46823 7.49199 9.73036 7.49199 9.73036C7.49199 9.73036 7.8434 9.53872 8.43439 9.26714C10.1437 8.51628 11.5016 8.30869 12.0607 8.26075C12.1565 8.2447 12.2364 8.22875 12.3323 8.22875C13.4028 8.0893 14.4861 8.0786 15.5591 8.19687C17.0766 8.37257 18.7061 8.81985 20.3673 9.73036C20.3673 9.73036 19.1054 8.53233 16.3897 7.70165L16.6134 7.44612C16.6134 7.44612 18.8018 7.39807 21.1021 9.12343C21.1021 9.12343 23.4025 13.2927 23.4025 18.4364C23.4025 18.4364 22.0446 20.7527 18.5143 20.8645V20.8646ZM11.0862 13.4045C10.1757 13.4045 9.45694 14.2032 9.45694 15.1776C9.45694 16.1521 10.1916 16.9508 11.0862 16.9508C11.9968 16.9508 12.7156 16.1521 12.7156 15.1776C12.7316 14.2032 11.9968 13.4045 11.0863 13.4045M16.9169 13.4045C16.0063 13.4045 15.2875 14.2032 15.2875 15.1776C15.2875 16.1521 16.0224 16.9508 16.9169 16.9508C17.8274 16.9508 18.5462 16.1521 18.5462 15.1776C18.5462 14.2032 17.8274 13.4045 16.9169 13.4045Z" fill="white"/>
</svg>
