<svg width="32" height="32" viewBox="0 0 32 32" fill="none" xmlns="http://www.w3.org/2000/svg">
<path fill-rule="evenodd" clip-rule="evenodd" d="M12.7021 2.39065C13.7597 2.13529 14.864 2 16 2C19.9663 2 23.5474 3.64939 26.0948 6.29969C23.2837 8.13044 20.4748 9.62745 17.6927 10.7858C16.1646 7.90304 14.4976 5.10009 12.7021 2.39065ZM18.6144 12.5678C21.5366 11.339 24.4683 9.76064 27.3825 7.84724C28.8875 9.94464 29.8271 12.4751 29.9784 15.2158C28.8079 15.0567 27.6469 15 26.5002 15C24.3269 15 22.2067 15.2763 20.1711 15.7963C19.6714 14.7103 19.1524 13.6339 18.6144 12.5678ZM18.2343 16.3727C17.7561 15.3414 17.2601 14.319 16.7466 13.3062C11.7423 15.1576 6.78273 15.9712 2.00372 15.674C2.00124 15.7824 2 15.891 2 16C2 19.6059 3.36327 22.8934 5.60252 25.3753C8.87686 21.242 13.2552 18.0681 18.2343 16.3727ZM7.05188 26.7676C10.1527 22.7944 14.3268 19.7749 19.0611 18.2052C20.4938 21.4705 21.7484 24.8198 22.8111 28.2344C20.7952 29.3591 18.4724 30 16 30C12.5973 30 9.47808 28.786 7.05188 26.7676ZM21.0017 17.6515C22.7777 17.2251 24.6187 17 26.5002 17C27.6635 17 28.8103 17.062 29.9466 17.2313C29.5973 21.2396 27.559 24.764 24.5474 27.0888C23.5277 23.88 22.3421 20.7293 21.0017 17.6515ZM31.9913 16.5336C31.8133 21.9644 28.9289 26.7106 24.6431 29.4669C24.5754 29.5238 24.4994 29.5723 24.4162 29.6102C21.9712 31.1253 19.0878 32 16 32C7.16344 32 0 24.8366 0 16C0 9.05741 4.42179 3.14759 10.6027 0.933181C10.715 0.868645 10.8355 0.828244 10.9576 0.810759C12.5429 0.284758 14.2382 0 16 0C24.8366 0 32 7.16344 32 16C32 16.1056 31.999 16.211 31.9969 16.3162C32.0029 16.3874 32.0012 16.4602 31.9913 16.5336ZM10.7235 3.0284C12.5592 5.76428 14.2606 8.59886 15.8164 11.5172C11.1434 13.2143 6.56224 13.9436 2.19105 13.6817C2.99868 8.83536 6.2958 4.83129 10.7235 3.0284Z" fill="white"/>
</svg>
