<svg width="32" height="32" viewBox="0 0 32 32" fill="none" xmlns="http://www.w3.org/2000/svg">
<path d="M15.9724 0C7.5525 0 0.655 6.48097 0 14.7166L8.5905 18.2623C9.34062 17.7486 10.2315 17.474 11.1438 17.4751C11.229 17.4751 11.3132 17.4774 11.3962 17.482L15.217 11.9534V11.876C15.217 8.54933 17.9283 5.84217 21.2611 5.84217C24.5939 5.84217 27.3051 8.54933 27.3051 11.876C27.3051 15.2026 24.5939 17.9108 21.2611 17.9108C21.2149 17.9108 21.1699 17.9097 21.1239 17.9086L15.6748 21.7885C15.6783 21.8605 15.6805 21.9323 15.6805 22.003C15.6805 24.5014 13.6451 26.5332 11.1438 26.5332C8.948 26.5332 7.11088 24.968 6.69575 22.8963L0.55125 20.3602C2.45412 27.0762 8.63538 32 15.9724 32C24.8246 32 32 24.8357 32 16C32 7.16329 24.8246 0 15.9724 0ZM10.044 24.2773L8.07537 23.4651C8.42375 24.1906 9.028 24.7975 9.8295 25.1308C11.5616 25.8517 13.559 25.0315 14.281 23.3008C14.6305 22.4686 14.6326 21.5334 14.2867 20.6997C13.9408 19.8601 13.2869 19.2052 12.4485 18.8562C11.6147 18.5106 10.7221 18.523 9.93787 18.8186L11.9722 19.6582C13.25 20.1899 13.8542 21.6546 13.3215 22.9301C12.7899 24.2055 11.3217 24.809 10.044 24.2773ZM25.2886 11.876C25.2886 9.6595 23.4815 7.85477 21.2615 7.85477C19.0404 7.85477 17.2332 9.6595 17.2332 11.876C17.2332 14.0926 19.0404 15.8963 21.2615 15.8963C23.4815 15.8963 25.2886 14.0926 25.2886 11.876ZM18.2424 11.8692C18.2424 10.2014 19.5974 8.84957 21.2674 8.84957C22.9384 8.84957 24.2934 10.2014 24.2934 11.8692C24.2934 13.5371 22.9384 14.889 21.2673 14.889C19.5974 14.889 18.2423 13.5371 18.2423 11.8693L18.2424 11.8692Z" fill="white"/>
</svg>
