<svg width="59" height="11" viewBox="0 0 59 11" fill="none" xmlns="http://www.w3.org/2000/svg">
<path d="M7.1 6.316C6.972 6.324 6.816 6.408 6.632 6.568C6.448 6.72 6.248 6.92 6.032 7.168C5.824 7.408 5.604 7.676 5.372 7.972C5.148 8.268 4.928 8.564 4.712 8.86C4.504 9.148 4.308 9.42 4.124 9.676C3.94 9.932 3.784 10.136 3.656 10.288C3.48 10.216 3.328 10.112 3.2 9.976C3.072 9.832 2.98 9.656 2.924 9.448C2.964 9.2 3.02 8.944 3.092 8.68C3.164 8.408 3.256 8.128 3.368 7.84C3.488 7.552 3.632 7.252 3.8 6.94C3.976 6.62 4.188 6.284 4.436 5.932C4.316 5.94 4.152 6.028 3.944 6.196C3.736 6.356 3.512 6.568 3.272 6.832C3.032 7.088 2.784 7.38 2.528 7.708C2.272 8.028 2.032 8.344 1.808 8.656C1.512 9.072 1.264 9.436 1.064 9.748C0.872 10.06 0.732 10.244 0.644 10.3C0.436 10.148 0.292 9.984 0.212 9.808C0.132 9.632 0.0720001 9.436 0.032 9.22C0.0400001 9.028 0.068 8.788 0.116 8.5C0.172 8.212 0.248 7.916 0.344 7.612C0.528 7.028 0.764 6.448 1.052 5.872C1.348 5.296 1.632 4.768 1.904 4.288C2.128 4.336 2.328 4.412 2.504 4.516C2.688 4.62 2.88 4.772 3.08 4.972C3 5.22 2.876 5.484 2.708 5.764C2.54 6.036 2.364 6.324 2.18 6.628C1.996 6.932 1.828 7.244 1.676 7.564C1.524 7.884 1.424 8.208 1.376 8.536C1.6 8.216 1.864 7.848 2.168 7.432C2.48 7.016 2.796 6.624 3.116 6.256C3.444 5.888 3.768 5.576 4.088 5.32C4.408 5.064 4.696 4.936 4.952 4.936C5.048 4.936 5.152 4.952 5.264 4.984C5.376 5.016 5.48 5.056 5.576 5.104C5.672 5.152 5.752 5.2 5.816 5.248C5.88 5.288 5.916 5.32 5.924 5.344C5.884 5.504 5.788 5.724 5.636 6.004C5.492 6.276 5.336 6.564 5.168 6.868C5 7.172 4.844 7.468 4.7 7.756C4.556 8.036 4.472 8.26 4.448 8.428C4.84 7.892 5.208 7.408 5.552 6.976C5.896 6.536 6.22 6.16 6.524 5.848C6.828 5.536 7.108 5.296 7.364 5.128C7.628 4.96 7.876 4.876 8.108 4.876C8.268 4.876 8.416 4.92 8.552 5.008C8.696 5.088 8.796 5.208 8.852 5.368C8.78 5.608 8.66 5.896 8.492 6.232C8.332 6.568 8.168 6.924 8 7.3C7.832 7.668 7.68 8.032 7.544 8.392C7.416 8.752 7.352 9.076 7.352 9.364C7.352 9.532 7.376 9.644 7.424 9.7C7.472 9.748 7.54 9.772 7.628 9.772C7.724 9.772 7.812 9.756 7.892 9.724C7.98 9.684 8.044 9.664 8.084 9.664C8.132 9.696 8.16 9.736 8.168 9.784C8.176 9.832 8.18 9.876 8.18 9.916C8.02 10.044 7.856 10.148 7.688 10.228C7.52 10.316 7.332 10.36 7.124 10.36C6.932 10.36 6.772 10.328 6.644 10.264C6.524 10.2 6.424 10.112 6.344 10C6.264 9.888 6.208 9.76 6.176 9.616C6.144 9.472 6.128 9.316 6.128 9.148C6.128 8.876 6.164 8.608 6.236 8.344C6.308 8.072 6.392 7.816 6.488 7.576C6.592 7.328 6.7 7.1 6.812 6.892C6.924 6.676 7.02 6.484 7.1 6.316ZM12.6038 9.736C12.4518 9.608 12.3478 9.448 12.2918 9.256C12.2438 9.064 12.2198 8.9 12.2198 8.764C12.2198 8.596 12.2398 8.452 12.2798 8.332C12.2478 8.332 12.1758 8.396 12.0638 8.524C11.9518 8.652 11.8278 8.804 11.6918 8.98C11.5638 9.156 11.4358 9.328 11.3078 9.496C11.1798 9.664 11.0838 9.788 11.0198 9.868C10.9158 9.98 10.8158 10.068 10.7198 10.132C10.6318 10.196 10.5598 10.232 10.5038 10.24C10.3758 10.232 10.2398 10.204 10.0958 10.156C9.95978 10.116 9.82778 10.056 9.69978 9.976C9.57978 9.896 9.47178 9.8 9.37578 9.688C9.28778 9.576 9.22778 9.448 9.19578 9.304C9.19578 9.08 9.19978 8.896 9.20778 8.752C9.22378 8.608 9.25178 8.452 9.29178 8.284C9.36378 7.98 9.46778 7.636 9.60378 7.252C9.74778 6.868 9.91178 6.492 10.0958 6.124C10.2798 5.748 10.4838 5.4 10.7078 5.08C10.9398 4.752 11.1838 4.496 11.4398 4.312C11.5118 4.312 11.5958 4.32 11.6918 4.336C11.7878 4.344 11.8838 4.364 11.9798 4.396C12.0838 4.428 12.1798 4.468 12.2678 4.516C12.3638 4.556 12.4438 4.612 12.5078 4.684C12.4358 4.764 12.2518 5.032 11.9558 5.488C11.6678 5.944 11.3438 6.6 10.9838 7.456C10.9438 7.544 10.8958 7.672 10.8398 7.84C10.7838 8.008 10.7278 8.184 10.6718 8.368C10.6158 8.552 10.5678 8.732 10.5278 8.908C10.4958 9.084 10.4798 9.224 10.4798 9.328C10.4798 9.392 10.4878 9.44 10.5038 9.472C10.5278 9.504 10.5478 9.528 10.5638 9.544C10.6838 9.496 10.8358 9.364 11.0198 9.148C11.2038 8.932 11.4598 8.6 11.7878 8.152C11.8678 8.04 11.9598 7.912 12.0638 7.768C12.1758 7.624 12.2878 7.472 12.3998 7.312C12.5118 7.144 12.6158 6.972 12.7118 6.796C12.8158 6.62 12.8998 6.444 12.9638 6.268C12.9958 6.172 13.0358 6.06 13.0838 5.932C13.1398 5.796 13.2038 5.656 13.2758 5.512C13.3558 5.368 13.4438 5.224 13.5398 5.08C13.6438 4.928 13.7638 4.788 13.8998 4.66C14.0038 4.66 14.1158 4.672 14.2358 4.696C14.3558 4.72 14.4678 4.752 14.5718 4.792C14.6838 4.824 14.7798 4.864 14.8598 4.912C14.9398 4.952 14.9998 4.996 15.0398 5.044C14.8958 5.396 14.7358 5.744 14.5598 6.088C14.3838 6.432 14.2198 6.772 14.0678 7.108C13.9158 7.436 13.7878 7.764 13.6838 8.092C13.5798 8.42 13.5278 8.74 13.5278 9.052C13.5278 9.22 13.5398 9.368 13.5638 9.496C13.5958 9.616 13.6278 9.72 13.6598 9.808C13.6918 9.888 13.7198 9.956 13.7438 10.012C13.7758 10.068 13.7918 10.116 13.7918 10.156C13.7918 10.164 13.7838 10.176 13.7678 10.192C13.7598 10.2 13.7518 10.204 13.7438 10.204C13.6878 10.204 13.6158 10.192 13.5278 10.168C13.4398 10.144 13.3398 10.108 13.2278 10.06C13.1238 10.02 13.0158 9.972 12.9038 9.916C12.7998 9.86 12.6998 9.8 12.6038 9.736ZM15.2829 7.888C15.2829 7.432 15.3749 6.992 15.5589 6.568C15.7509 6.136 15.9989 5.756 16.3029 5.428C16.6149 5.092 16.9669 4.824 17.3589 4.624C17.7589 4.416 18.1709 4.312 18.5949 4.312C19.0109 4.312 19.3309 4.416 19.5549 4.624C19.7789 4.832 19.8909 5.128 19.8909 5.512C19.8909 5.696 19.8629 5.876 19.8069 6.052C19.7589 6.22 19.6909 6.372 19.6029 6.508C19.5229 6.644 19.4269 6.756 19.3149 6.844C19.2029 6.924 19.0909 6.964 18.9789 6.964C18.8829 6.964 18.7829 6.936 18.6789 6.88C18.5829 6.816 18.5029 6.736 18.4389 6.64C18.9749 6.152 19.2429 5.708 19.2429 5.308C19.2429 5.076 19.1509 4.96 18.9669 4.96C18.8069 4.96 18.6069 5.036 18.3669 5.188C18.1269 5.34 17.8949 5.54 17.6709 5.788C17.3269 6.172 17.0629 6.6 16.8789 7.072C16.7029 7.536 16.6149 8.024 16.6149 8.536C16.6149 9.184 16.7589 9.572 17.0469 9.7C17.1669 9.684 17.3069 9.648 17.4669 9.592C17.6269 9.536 17.7989 9.464 17.9829 9.376C18.1669 9.28 18.3549 9.172 18.5469 9.052C18.7469 8.932 18.9389 8.804 19.1229 8.668C19.1549 8.692 19.1829 8.728 19.2069 8.776C19.2309 8.824 19.2429 8.868 19.2429 8.908C19.1069 9.076 18.9509 9.24 18.7749 9.4C18.5989 9.56 18.4149 9.708 18.2229 9.844C18.0309 9.972 17.8429 10.08 17.6589 10.168C17.4829 10.264 17.3269 10.324 17.1909 10.348C16.9269 10.324 16.6789 10.24 16.4469 10.096C16.2149 9.96 16.0109 9.78 15.8349 9.556C15.6669 9.332 15.5309 9.076 15.4269 8.788C15.3309 8.5 15.2829 8.2 15.2829 7.888ZM24.3899 5.152C24.4699 5.152 24.5619 5.168 24.6659 5.2C24.7779 5.224 24.8779 5.26 24.9659 5.308C25.0539 5.348 25.1259 5.392 25.1819 5.44C25.2459 5.488 25.2779 5.532 25.2779 5.572C25.1179 5.908 24.9699 6.248 24.8339 6.592C24.6979 6.928 24.5819 7.252 24.4859 7.564C24.3899 7.876 24.3139 8.168 24.2579 8.44C24.2099 8.712 24.1859 8.948 24.1859 9.148C24.1859 9.372 24.2099 9.56 24.2579 9.712C24.3059 9.856 24.3859 9.96 24.4979 10.024C24.4019 10.088 24.2779 10.14 24.1259 10.18C23.9739 10.22 23.8379 10.24 23.7179 10.24C23.2859 10.24 23.0699 9.944 23.0699 9.352C23.0699 8.896 23.2219 8.272 23.5259 7.48C23.3659 7.848 23.1819 8.196 22.9739 8.524C22.7659 8.844 22.5539 9.128 22.3379 9.376C22.1219 9.624 21.9019 9.828 21.6779 9.988C21.4619 10.14 21.2619 10.232 21.0779 10.264C20.7819 10.248 20.5419 10.108 20.3579 9.844C20.1739 9.572 20.0819 9.228 20.0819 8.812C20.0819 8.364 20.1779 7.892 20.3699 7.396C20.5619 6.9 20.8059 6.44 21.1019 6.016C21.4059 5.592 21.7339 5.24 22.0859 4.96C22.4379 4.672 22.7779 4.52 23.1059 4.504C23.1859 4.528 23.2739 4.576 23.3699 4.648C23.4739 4.72 23.5699 4.804 23.6579 4.9C23.7539 4.996 23.8339 5.096 23.8979 5.2C23.9619 5.296 23.9979 5.38 24.0059 5.452C23.6859 5.5 23.3539 5.656 23.0099 5.92C22.6739 6.184 22.3659 6.504 22.0859 6.88C21.8139 7.248 21.5899 7.644 21.4139 8.068C21.2379 8.492 21.1499 8.888 21.1499 9.256C21.1499 9.408 21.2059 9.504 21.3179 9.544C21.5499 9.496 21.8179 9.3 22.1219 8.956C22.4259 8.604 22.7939 8.064 23.2259 7.336C23.3059 7.192 23.3939 7.032 23.4899 6.856C23.5939 6.68 23.6979 6.496 23.8019 6.304C23.9059 6.112 24.0059 5.92 24.1019 5.728C24.2059 5.528 24.3019 5.336 24.3899 5.152ZM25.8747 9.796C25.8747 9.516 25.9027 9.188 25.9587 8.812C26.0147 8.428 26.0947 8.02 26.1987 7.588C26.3107 7.156 26.4387 6.704 26.5827 6.232C26.7347 5.76 26.9027 5.288 27.0867 4.816C27.2467 4.392 27.4307 3.964 27.6387 3.532C27.8547 3.1 28.0867 2.676 28.3347 2.26C28.5827 1.844 28.8387 1.448 29.1027 1.072C29.3747 0.696 29.6467 0.352 29.9187 0.0399995C30.0467 0.0399995 30.1827 0.0559995 30.3267 0.0879996C30.4787 0.12 30.6227 0.164 30.7587 0.219999C30.9027 0.268 31.0307 0.328 31.1427 0.4C31.2627 0.472 31.3587 0.544 31.4307 0.615999C30.8307 1.232 30.2907 1.856 29.8107 2.488C29.3307 3.112 28.9507 3.7 28.6707 4.252C28.5187 4.556 28.3787 4.84 28.2507 5.104C28.1307 5.368 28.0187 5.632 27.9147 5.896C27.8107 6.152 27.7147 6.412 27.6267 6.676C27.5467 6.932 27.4707 7.204 27.3987 7.492C28.9347 5.532 30.0747 4.552 30.8187 4.552C31.0267 4.552 31.2507 4.62 31.4907 4.756C31.7307 4.892 31.9427 5.076 32.1267 5.308C31.8787 5.58 31.6227 5.908 31.3587 6.292C31.0947 6.676 30.8507 7.064 30.6267 7.456C30.4107 7.84 30.2307 8.2 30.0867 8.536C29.9507 8.864 29.8827 9.108 29.8827 9.268C29.8827 9.348 29.8947 9.404 29.9187 9.436C29.9427 9.46 29.9947 9.472 30.0747 9.472C30.1947 9.472 30.2907 9.456 30.3627 9.424C30.4347 9.392 30.4787 9.376 30.4947 9.376C30.5347 9.44 30.5587 9.484 30.5667 9.508C30.5747 9.532 30.5787 9.552 30.5787 9.568C30.5787 9.6 30.5307 9.648 30.4347 9.712C30.3387 9.768 30.2227 9.828 30.0867 9.892C29.9587 9.948 29.8307 10 29.7027 10.048C29.5747 10.096 29.4787 10.12 29.4147 10.12C29.3347 10.12 29.2547 10.096 29.1747 10.048C29.0947 10.008 29.0227 9.952 28.9587 9.88C28.9027 9.808 28.8547 9.728 28.8147 9.64C28.7827 9.552 28.7667 9.46 28.7667 9.364C28.7667 9.244 28.7987 9.068 28.8627 8.836C28.9347 8.596 29.0307 8.32 29.1507 8.008C29.2707 7.688 29.4147 7.34 29.5827 6.964C29.7507 6.588 29.9307 6.204 30.1227 5.812C30.1227 5.78 30.1067 5.764 30.0747 5.764C30.0507 5.764 29.9867 5.796 29.8827 5.86C29.7867 5.924 29.6947 5.988 29.6067 6.052C29.3187 6.268 29.0267 6.536 28.7307 6.856C28.4427 7.168 28.1587 7.512 27.8787 7.888C27.6067 8.264 27.3467 8.664 27.0987 9.088C26.8587 9.504 26.6507 9.924 26.4747 10.348C26.4507 10.404 26.4147 10.456 26.3667 10.504C26.3187 10.552 26.2787 10.576 26.2467 10.576C26.2227 10.576 26.1867 10.548 26.1387 10.492C26.0987 10.436 26.0587 10.364 26.0187 10.276C25.9867 10.196 25.9547 10.112 25.9227 10.024C25.8907 9.936 25.8747 9.86 25.8747 9.796ZM32.0979 9.196C32.0979 9.124 32.1019 9.036 32.1099 8.932C32.1259 8.82 32.1499 8.676 32.1819 8.5C32.2139 8.316 32.2539 8.096 32.3019 7.84C32.3579 7.584 32.4259 7.276 32.5059 6.916C32.5219 6.836 32.5579 6.708 32.6139 6.532C32.6699 6.356 32.7419 6.172 32.8299 5.98C32.9259 5.78 33.0379 5.588 33.1659 5.404C33.3019 5.22 33.4619 5.084 33.6459 4.996C33.7819 5.028 33.9619 5.112 34.1859 5.248C34.4099 5.376 34.6019 5.556 34.7619 5.788C34.5779 5.996 34.4219 6.204 34.2939 6.412C34.1739 6.62 34.0619 6.836 33.9579 7.06C33.8619 7.284 33.7699 7.516 33.6819 7.756C33.6019 7.996 33.5099 8.248 33.4059 8.512C33.3179 8.736 33.2379 8.968 33.1659 9.208C33.0939 9.44 33.0539 9.644 33.0459 9.82C33.0459 9.964 33.0419 10.064 33.0339 10.12C33.0339 10.184 33.0139 10.216 32.9739 10.216C32.9419 10.216 32.8779 10.196 32.7819 10.156C32.6859 10.116 32.5859 10.056 32.4819 9.976C32.3859 9.888 32.2979 9.78 32.2179 9.652C32.1379 9.524 32.0979 9.372 32.0979 9.196ZM34.3899 3.988C34.3899 3.94 34.4019 3.868 34.4259 3.772C34.3859 3.732 34.3499 3.672 34.3179 3.592C34.2939 3.512 34.2819 3.44 34.2819 3.376C34.2819 3.304 34.2899 3.208 34.3059 3.088C34.3299 2.96 34.3579 2.824 34.3899 2.68C34.4219 2.536 34.4619 2.388 34.5099 2.236C34.5579 2.076 34.6059 1.932 34.6539 1.804C34.7499 1.804 34.8659 1.832 35.0019 1.888C35.1459 1.936 35.2899 2.004 35.4339 2.092C35.5779 2.172 35.7099 2.264 35.8299 2.368C35.9499 2.464 36.0419 2.556 36.1059 2.644C36.0179 2.732 35.9019 2.856 35.7579 3.016C35.6139 3.168 35.4739 3.332 35.3379 3.508C35.2019 3.676 35.0779 3.836 34.9659 3.988C34.8539 4.14 34.7819 4.248 34.7499 4.312C34.6539 4.296 34.5699 4.256 34.4979 4.192C34.4259 4.12 34.3899 4.052 34.3899 3.988ZM37.5378 4.396C37.6978 4.396 37.8818 4.444 38.0898 4.54C38.2978 4.636 38.4818 4.76 38.6418 4.912C38.6018 4.592 38.5498 4.292 38.4858 4.012C38.4298 3.724 38.3418 3.428 38.2218 3.124C38.1098 2.82 37.9578 2.488 37.7658 2.128C37.5738 1.768 37.3338 1.356 37.0458 0.891999C37.0698 0.82 37.1218 0.736 37.2018 0.64C37.2898 0.543999 37.3858 0.455999 37.4898 0.375999C37.6018 0.288 37.7138 0.212 37.8258 0.148C37.9458 0.0839994 38.0578 0.0439994 38.1618 0.0279996C38.3858 0.276 38.5978 0.588 38.7978 0.964C38.9978 1.332 39.1738 1.732 39.3258 2.164C39.4778 2.588 39.5938 3.028 39.6738 3.484C39.7618 3.94 39.8058 4.376 39.8058 4.792C39.8058 5.208 39.7578 5.636 39.6618 6.076C39.5738 6.516 39.4458 6.948 39.2778 7.372C39.1178 7.788 38.9298 8.184 38.7138 8.56C38.4978 8.936 38.2618 9.272 38.0058 9.568C37.7578 9.864 37.4978 10.104 37.2258 10.288C36.9538 10.48 36.6818 10.6 36.4098 10.648C35.8578 10.584 35.4338 10.404 35.1378 10.108C34.8498 9.82 34.7058 9.42 34.7058 8.908C34.7058 8.636 34.7458 8.34 34.8258 8.02C34.9138 7.7 35.0258 7.384 35.1618 7.072C35.3058 6.752 35.4698 6.444 35.6538 6.148C35.8458 5.844 36.0458 5.572 36.2538 5.332C36.4698 5.092 36.6858 4.888 36.9018 4.72C37.1178 4.552 37.3298 4.444 37.5378 4.396ZM36.3138 10.168C36.5938 10.072 36.8738 9.86 37.1538 9.532C37.4338 9.204 37.6858 8.82 37.9098 8.38C38.1338 7.932 38.3138 7.456 38.4498 6.952C38.5938 6.44 38.6658 5.948 38.6658 5.476C38.6658 5.34 38.6658 5.256 38.6658 5.224C38.6658 5.192 38.6618 5.16 38.6538 5.128C38.4618 5.208 38.2578 5.344 38.0418 5.536C37.8258 5.728 37.6098 5.952 37.3938 6.208C37.1778 6.456 36.9738 6.728 36.7818 7.024C36.5898 7.32 36.4178 7.616 36.2658 7.912C36.1138 8.208 35.9938 8.492 35.9058 8.764C35.8178 9.036 35.7738 9.276 35.7738 9.484C35.7738 9.884 35.9538 10.112 36.3138 10.168Z" fill="white"/>
<path d="M40.4492 10.456C40.3212 10.44 40.1852 10.384 40.0412 10.288C39.9052 10.2 39.8172 10.1 39.7772 9.988C39.7772 9.892 39.7892 9.768 39.8132 9.616C39.8452 9.464 39.8812 9.312 39.9212 9.16C39.9612 9 40.0012 8.852 40.0412 8.716C40.0812 8.572 40.1092 8.464 40.1252 8.392C40.2212 8.392 40.3412 8.416 40.4852 8.464C40.6372 8.512 40.7892 8.58 40.9412 8.668C41.1012 8.748 41.2492 8.844 41.3852 8.956C41.5292 9.06 41.6372 9.168 41.7092 9.28C41.6372 9.44 41.5452 9.592 41.4332 9.736C41.3212 9.88 41.2012 10.004 41.0732 10.108C40.9532 10.22 40.8372 10.304 40.7252 10.36C40.6132 10.424 40.5212 10.456 40.4492 10.456ZM45.6238 4.396C45.7838 4.396 45.9678 4.444 46.1758 4.54C46.3838 4.636 46.5678 4.76 46.7278 4.912C46.6878 4.592 46.6358 4.292 46.5718 4.012C46.5158 3.724 46.4278 3.428 46.3078 3.124C46.1958 2.82 46.0438 2.488 45.8518 2.128C45.6598 1.768 45.4198 1.356 45.1318 0.891999C45.1558 0.82 45.2078 0.736 45.2878 0.64C45.3758 0.543999 45.4718 0.455999 45.5758 0.375999C45.6878 0.288 45.7998 0.212 45.9118 0.148C46.0318 0.0839994 46.1438 0.0439994 46.2478 0.0279996C46.4718 0.276 46.6838 0.588 46.8838 0.964C47.0838 1.332 47.2598 1.732 47.4118 2.164C47.5638 2.588 47.6798 3.028 47.7598 3.484C47.8478 3.94 47.8918 4.376 47.8918 4.792C47.8918 5.208 47.8438 5.636 47.7478 6.076C47.6598 6.516 47.5318 6.948 47.3638 7.372C47.2038 7.788 47.0158 8.184 46.7998 8.56C46.5838 8.936 46.3478 9.272 46.0918 9.568C45.8438 9.864 45.5838 10.104 45.3118 10.288C45.0398 10.48 44.7678 10.6 44.4958 10.648C43.9438 10.584 43.5198 10.404 43.2238 10.108C42.9358 9.82 42.7918 9.42 42.7918 8.908C42.7918 8.636 42.8318 8.34 42.9118 8.02C42.9998 7.7 43.1118 7.384 43.2478 7.072C43.3918 6.752 43.5558 6.444 43.7398 6.148C43.9318 5.844 44.1318 5.572 44.3398 5.332C44.5558 5.092 44.7718 4.888 44.9878 4.72C45.2038 4.552 45.4158 4.444 45.6238 4.396ZM44.3998 10.168C44.6798 10.072 44.9598 9.86 45.2398 9.532C45.5198 9.204 45.7718 8.82 45.9958 8.38C46.2198 7.932 46.3998 7.456 46.5358 6.952C46.6798 6.44 46.7518 5.948 46.7518 5.476C46.7518 5.34 46.7518 5.256 46.7518 5.224C46.7518 5.192 46.7478 5.16 46.7398 5.128C46.5478 5.208 46.3438 5.344 46.1278 5.536C45.9118 5.728 45.6958 5.952 45.4798 6.208C45.2638 6.456 45.0598 6.728 44.8678 7.024C44.6758 7.32 44.5038 7.616 44.3518 7.912C44.1998 8.208 44.0798 8.492 43.9918 8.764C43.9038 9.036 43.8598 9.276 43.8598 9.484C43.8598 9.884 44.0398 10.112 44.3998 10.168ZM52.4952 5.032C52.4632 5.528 52.3752 5.956 52.2312 6.316C52.0872 6.668 51.8792 6.98 51.6072 7.252C51.3432 7.516 51.0192 7.756 50.6352 7.972C50.2512 8.188 49.8032 8.396 49.2912 8.596C49.2912 8.644 49.2872 8.696 49.2792 8.752C49.2792 8.8 49.2792 8.852 49.2792 8.908C49.2792 9.012 49.2872 9.12 49.3032 9.232C49.3192 9.344 49.3472 9.448 49.3872 9.544C49.4272 9.64 49.4832 9.72 49.5552 9.784C49.6272 9.84 49.7192 9.868 49.8312 9.868C50.0472 9.868 50.2592 9.82 50.4672 9.724C50.6752 9.628 50.8712 9.512 51.0552 9.376C51.2472 9.232 51.4232 9.08 51.5832 8.92C51.7512 8.752 51.8992 8.6 52.0272 8.464C52.1072 8.536 52.1752 8.604 52.2312 8.668C51.8712 9.148 51.4752 9.548 51.0432 9.868C50.6192 10.18 50.2152 10.38 49.8312 10.468C49.2792 10.404 48.8472 10.204 48.5352 9.868C48.2312 9.524 48.0792 9.112 48.0792 8.632C48.0792 8.304 48.1232 7.972 48.2112 7.636C48.3072 7.292 48.4352 6.964 48.5952 6.652C48.7632 6.332 48.9552 6.032 49.1712 5.752C49.3952 5.472 49.6312 5.228 49.8792 5.02C50.1352 4.812 50.3952 4.648 50.6592 4.528C50.9312 4.408 51.1992 4.348 51.4632 4.348C51.8312 4.396 52.1752 4.624 52.4952 5.032ZM51.6672 5.428C51.4512 5.46 51.2272 5.548 50.9952 5.692C50.7632 5.836 50.5432 6.028 50.3352 6.268C50.1352 6.508 49.9512 6.788 49.7832 7.108C49.6152 7.428 49.4832 7.772 49.3872 8.14C50.0272 7.82 50.5592 7.428 50.9832 6.964C51.4072 6.492 51.6352 5.98 51.6672 5.428ZM53.6287 5.752C53.6287 5.608 53.6367 5.472 53.6527 5.344C53.6767 5.216 53.7207 5.108 53.7847 5.02C53.8487 4.924 53.9367 4.852 54.0487 4.804C54.1607 4.748 54.3087 4.72 54.4927 4.72C54.6047 4.72 54.7287 4.732 54.8647 4.756C55.0087 4.78 55.1127 4.824 55.1767 4.888C55.1447 5.024 55.1167 5.144 55.0927 5.248C55.0767 5.352 55.0607 5.468 55.0447 5.596C55.0367 5.716 55.0287 5.864 55.0207 6.04C55.0127 6.208 55.0047 6.428 54.9967 6.7C54.9807 7.244 54.9527 7.732 54.9127 8.164C54.8807 8.588 54.8007 9.012 54.6727 9.436C54.6727 9.468 54.6847 9.484 54.7087 9.484C54.8287 9.396 54.9647 9.268 55.1167 9.1C55.2687 8.932 55.4287 8.744 55.5967 8.536C55.7647 8.32 55.9327 8.092 56.1007 7.852C56.2687 7.612 56.4247 7.376 56.5687 7.144C56.7607 6.808 56.9727 6.388 57.2047 5.884C57.4367 5.38 57.6287 4.84 57.7807 4.264C57.8287 4.264 57.8887 4.276 57.9607 4.3C58.0407 4.316 58.1167 4.34 58.1887 4.372C58.2687 4.396 58.3367 4.424 58.3927 4.456C58.4567 4.488 58.5007 4.516 58.5247 4.54C58.5087 4.884 58.4247 5.236 58.2727 5.596C58.1287 5.956 57.9527 6.304 57.7447 6.64C57.5367 6.976 57.3167 7.292 57.0847 7.588C56.8527 7.884 56.6407 8.14 56.4487 8.356C56.0647 8.804 55.6767 9.204 55.2847 9.556C54.9007 9.908 54.4407 10.248 53.9047 10.576C53.6967 10.496 53.5327 10.388 53.4127 10.252C53.2927 10.124 53.2327 9.988 53.2327 9.844C53.2327 9.748 53.2527 9.64 53.2927 9.52C53.3407 9.392 53.3927 9.232 53.4487 9.04C53.5047 8.84 53.5527 8.592 53.5927 8.296C53.6407 8 53.6647 7.624 53.6647 7.168C53.6647 6.904 53.6567 6.64 53.6407 6.376C53.6327 6.104 53.6287 5.896 53.6287 5.752Z" fill="#FACC15"/>
</svg>
